<svg width="3380" height="2774" viewBox="0 0 3380 2774" fill="none" xmlns="http://www.w3.org/2000/svg">
<rect width="3380" height="2774" fill="#F5F5F5"/>
<g id="body">
<path id="Subtract" d="M1474.4 702.906C1490.05 697.365 1506.32 690.573 1516.59 683.348C1521.11 680.168 1524.87 674.747 1528.21 669.093C1531.64 663.269 1535.26 656.033 1539.17 648.229L1539.27 648.038C1562.81 600.983 1600.09 527.274 1696.99 526.663C1746.9 526.348 1779.47 545.682 1802.06 570.552C1824.95 595.75 1837.77 626.793 1847.44 650.318L1847.51 650.499C1850.41 657.558 1853.1 664.101 1855.68 669.412C1858.17 674.544 1861.04 679.598 1864.65 682.815C1870.7 688.2 1879.7 692.934 1889.11 696.973C1894 699.074 1899.18 701.059 1904.4 702.906H1474.4ZM1627.94 678.939C1627.94 678.939 1627.94 678.939 1627.94 671.439V678.939H1770.96V671.439C1770.96 678.939 1770.96 678.939 1770.97 678.939L1770.98 678.939L1771 678.939L1771.04 678.939C1771.07 678.939 1771.11 678.938 1771.15 678.937C1771.23 678.936 1771.33 678.933 1771.44 678.929C1771.67 678.92 1771.97 678.904 1772.32 678.874C1773.02 678.816 1773.97 678.704 1775.08 678.488C1777.27 678.062 1780.27 677.2 1783.34 675.41C1789.97 671.546 1795.67 664.05 1795.67 651.371C1795.67 638.89 1787.7 619.038 1771.91 602.487C1755.76 585.566 1730.95 571.509 1696.54 571.509C1662.09 571.509 1638.12 585.602 1622.86 602.664C1607.91 619.374 1601.11 639.186 1601.11 651.371C1601.11 657.644 1602.64 662.851 1605.32 667.026C1607.98 671.167 1611.49 673.861 1614.82 675.588C1618.11 677.296 1621.32 678.114 1623.64 678.516C1624.82 678.72 1625.82 678.825 1626.56 678.88C1626.93 678.907 1627.23 678.922 1627.47 678.93C1627.58 678.934 1627.68 678.936 1627.76 678.938C1627.8 678.938 1627.84 678.939 1627.87 678.939L1627.91 678.939L1627.93 678.939L1627.94 678.939Z" fill="#003E79" stroke="url(#paint0_linear_0_1)" stroke-width="15"/>
<path id="Vector" d="M1335.1 771.595C1408.84 741.638 1532.03 704.574 1690.04 704.574C1848.05 704.574 1971.25 741.638 2044.99 771.595C2073.57 783.206 2103.21 775.15 2123.55 760.009C2143.92 744.848 2160.25 718.601 2156.73 687.545C2127.84 432.497 2210.88 228.11 2404.4 108.171C2669.05 -55.8514 3042.53 55.2966 3236.03 369.544C3429.54 683.822 3361.46 1068.83 3096.72 1232.91C2970.57 1311.1 2795.99 1324.07 2660.49 1287.29C2629.51 1278.88 2597.66 1286.7 2574.45 1304.06C2550.95 1321.65 2534.12 1350.94 2538.3 1385.63C2548.54 1470.73 2566.03 1594.57 2588.49 1662.78C2603.97 1709.77 2623.88 1747.51 2641.58 1781.07C2645.29 1788.09 2648.9 1794.93 2652.35 1801.64C2672.45 1840.69 2688.51 1877.19 2694.7 1925.97C2707.11 2023.71 2660.2 2132.57 2622.78 2205.92C2587.77 2274.54 2507.2 2368.13 2424.5 2407.88C2392.82 2423.11 2362.26 2432.93 2326.45 2444.43C2313.72 2448.52 2300.33 2452.82 2285.99 2457.65C2232.29 2475.75 2170.34 2499.92 2092.35 2546.03C2052.9 2569.35 2019.63 2593.93 1989.31 2617C1984.51 2620.66 1979.81 2624.25 1975.18 2627.79C1950.17 2646.92 1927.33 2664.39 1903.22 2680C1847.96 2715.78 1787.06 2741.08 1690.05 2741.08C1593.03 2741.08 1532.13 2715.78 1476.87 2680C1452.76 2664.39 1429.92 2646.92 1404.91 2627.79C1400.28 2624.25 1395.58 2620.66 1390.78 2617C1360.46 2593.93 1327.19 2569.35 1287.74 2546.03C1209.75 2499.92 1147.8 2475.75 1094.1 2457.65C1079.76 2452.82 1066.37 2448.52 1053.64 2444.43C1017.84 2432.93 987.266 2423.11 955.588 2407.88C872.886 2368.13 792.319 2274.54 757.312 2205.92C719.895 2132.57 672.977 2023.71 685.388 1925.96C691.58 1877.19 707.645 1840.69 727.744 1801.64C731.195 1794.93 734.804 1788.09 738.51 1781.07C756.211 1747.51 776.12 1709.77 791.597 1662.78C814.062 1594.57 831.547 1470.73 841.795 1385.63C845.972 1350.94 829.14 1321.65 805.641 1304.06C782.431 1286.7 750.583 1278.88 719.598 1287.29C584.104 1324.07 409.522 1311.1 283.367 1232.91C18.6285 1068.83 -49.4508 683.822 144.063 369.544C337.559 55.2966 711.045 -55.8514 975.69 108.171C1169.21 228.11 1252.25 432.497 1223.36 687.545C1219.84 718.601 1236.17 744.848 1256.54 760.009C1276.88 775.15 1306.53 783.206 1335.1 771.595Z" fill="#003A72" stroke="url(#paint1_linear_0_1)" stroke-width="65"/>
<rect id="reflector" x="1088.1" y="973.123" width="1197.69" height="1119.37" rx="37" fill="url(#paint2_linear_0_1)" stroke="url(#paint3_linear_0_1)" stroke-width="30"/>
<rect id="reflector_2" x="1088.1" y="973.123" width="1197.69" height="1119.37" rx="37" stroke="white" stroke-opacity="0.2" stroke-width="8"/>
<g id="Vector_2">
<path d="M1477.57 1094.97C1490.12 1067.08 1523.76 1083.53 1523.76 1083.53C1523.76 1083.53 1496.79 1081.6 1495.45 1100.09C1494.1 1118.57 1510.32 1127.44 1527.6 1126.72C1544.88 1126 1567.47 1112.2 1558.69 1089.74C1549.9 1067.27 1519.1 1050.16 1496.55 1054.48C1473.99 1058.8 1438.34 1089.05 1458.01 1130.32C1477.69 1171.59 1544.26 1163.55 1544.26 1163.55C1544.26 1163.55 1474.27 1190.94 1443.15 1135.48C1412.03 1080.03 1464.85 1036.9 1498.82 1033.84C1532.8 1030.77 1568.16 1055.28 1572.44 1086.86C1576.72 1118.43 1549.67 1138.48 1527.6 1141.12C1505.52 1143.76 1465.03 1122.85 1477.57 1094.97Z" fill="#B9BEB5" fill-opacity="0.7"/>
<path d="M1920.69 1946.16C1899.37 1968.08 1873.38 1941.11 1873.38 1941.11C1873.38 1941.11 1898.06 1952.15 1905.65 1935.24C1913.23 1918.33 1901.02 1904.45 1884.54 1899.21C1868.06 1893.98 1842.11 1899.22 1842.68 1923.33C1843.25 1947.45 1866.34 1974.06 1889.01 1977.72C1911.68 1981.38 1955.53 1965.14 1951.16 1919.63C1946.79 1874.12 1881.48 1858.91 1881.48 1858.91C1881.48 1858.91 1956.62 1857.11 1966.9 1919.86C1977.17 1982.62 1912.79 2005.08 1879.81 1996.34C1846.84 1987.59 1821.99 1952.47 1828.77 1921.34C1835.55 1890.2 1867.82 1880.61 1889.47 1885.68C1911.11 1890.75 1942.01 1924.25 1920.69 1946.16Z" fill="#B9BEB5" fill-opacity="0.7"/>
<path d="M1525.07 1917.72C1533.38 1947.14 1497.04 1956.17 1497.04 1956.17C1497.04 1956.17 1518.94 1940.31 1508.08 1925.29C1497.23 1910.26 1479.11 1913.89 1466.33 1925.55C1453.56 1937.21 1445.12 1962.3 1466.29 1973.87C1487.46 1985.43 1522.06 1978.74 1536.56 1960.93C1551.06 1943.13 1558.93 1897.03 1517.32 1878.07C1475.72 1859.1 1429.9 1908.05 1429.9 1908.05C1429.9 1908.05 1465.91 1842.08 1525.4 1864.56C1584.88 1887.03 1572.14 1954.02 1548.08 1978.21C1524.02 2002.39 1481.18 2006.35 1457.61 1984.91C1434.03 1963.47 1441.86 1930.74 1457.08 1914.52C1472.29 1898.31 1516.75 1888.3 1525.07 1917.72Z" fill="#B9BEB5" fill-opacity="0.7"/>
<path d="M1911.19 1079.08C1941.37 1083.98 1934.19 1120.74 1934.19 1120.74C1934.19 1120.74 1929.08 1094.19 1910.87 1097.67C1892.67 1101.16 1888.3 1119.12 1893.47 1135.62C1898.63 1152.13 1917.81 1170.38 1937.24 1156.08C1956.66 1141.78 1965.22 1107.6 1955.21 1086.93C1945.2 1066.26 1906.75 1039.65 1871.98 1069.34C1837.21 1099.03 1862.21 1161.24 1862.21 1161.24C1862.21 1161.24 1817.63 1100.73 1863.15 1056.32C1908.66 1011.9 1963.98 1051.76 1975.74 1083.79C1987.49 1115.81 1972.97 1156.31 1943.58 1168.62C1914.18 1180.92 1887.82 1159.99 1879.56 1139.35C1871.3 1118.71 1881.01 1074.19 1911.19 1079.08Z" fill="#B9BEB5" fill-opacity="0.7"/>
</g>
<g id="Vector_3">
<path d="M1711.5 1108.64C1687.14 1117.96 1676.91 1087.86 1676.91 1087.86C1676.91 1087.86 1692.43 1103.94 1704.4 1093.59C1716.37 1083.23 1711.54 1070.25 1700.75 1060.33C1689.96 1050.41 1668.03 1044.35 1659.72 1063.18C1651.42 1082.01 1659.19 1109.88 1675.32 1120.79C1691.44 1131.7 1733.02 1131.74 1745.6 1096.59C1758.17 1061.44 1709.39 1025.76 1709.39 1025.76C1709.39 1025.76 1773.85 1049.56 1758.49 1103.52C1743.14 1157.47 1684.06 1151.33 1661.85 1132.82C1639.63 1114.31 1633.24 1078.31 1649.74 1056.68C1666.25 1035.04 1694.56 1039.14 1709.39 1050.78C1724.22 1062.42 1735.86 1099.31 1711.5 1108.64Z" fill="#809599" fill-opacity="0.7"/>
<path d="M1656.14 1192.02C1639.71 1193.91 1639.73 1173.77 1639.73 1173.77C1639.73 1173.77 1645.72 1185.41 1653.81 1181.47C1661.89 1177.53 1662.86 1168.31 1657.99 1160.65C1653.12 1153 1640.69 1146.49 1632.4 1156.59C1624.12 1166.69 1624.45 1185.17 1632.4 1194.25C1640.35 1203.32 1664.37 1210.04 1678.66 1189.87C1692.95 1169.7 1670.97 1143.06 1670.97 1143.06C1670.97 1143.06 1703.26 1167.98 1685.29 1197.21C1667.31 1226.44 1632.12 1213.61 1621.76 1199C1611.4 1184.4 1613.68 1161.66 1627.44 1151.13C1641.2 1140.59 1658.19 1145.25 1665.17 1155.55C1672.15 1165.85 1672.58 1190.13 1656.14 1192.02Z" fill="#809599" fill-opacity="0.7"/>
<path d="M1785.97 1160.76C1778.02 1174.75 1761.1 1164.5 1761.1 1164.5C1761.1 1164.5 1776.12 1166.11 1777.51 1157.54C1778.91 1148.97 1771.75 1144.54 1762.52 1144.11C1753.3 1143.69 1740.86 1150.99 1744.5 1163.14C1748.15 1175.29 1762.62 1182.64 1774.82 1181.43C1787.02 1180.23 1807 1160.76 1798.76 1139.17C1790.52 1117.57 1754.67 1118.39 1754.67 1118.39C1754.67 1118.39 1793.81 1105.47 1807.83 1135.9C1821.86 1166.34 1792.95 1192.8 1772.41 1192.8C1751.87 1192.8 1736.5 1178.37 1735.66 1161.66C1734.83 1144.96 1748.93 1135.72 1762.52 1135.31C1776.12 1134.91 1793.92 1146.77 1785.97 1160.76Z" fill="#809599" fill-opacity="0.7"/>
<path d="M2075.95 1088.59C2056.25 1105.69 2036.34 1080.9 2036.34 1080.9C2036.34 1080.9 2056.42 1090.71 2064.13 1076.88C2071.83 1063.05 2062.85 1052.51 2049.32 1046.88C2035.79 1041.24 2013.11 1043.05 2011.75 1063.58C2010.39 1084.12 2027.22 1107.66 2046.1 1112.39C2064.99 1117.13 2104.08 1102.94 2103.87 1065.61C2103.66 1028.28 2045.62 1011.44 2045.62 1011.44C2045.62 1011.44 2114.33 1011.76 2118.35 1067.71C2122.38 1123.66 2064.77 1138.1 2037.56 1128.3C2010.35 1118.5 1992.03 1086.86 2000.14 1060.89C2008.26 1034.91 2036.27 1029.08 2054.18 1034.95C2072.09 1040.81 2095.65 1071.5 2075.95 1088.59Z" fill="#809599" fill-opacity="0.7"/>
<path d="M2052.45 1185.88C2037.66 1193.28 2030.78 1174.35 2030.78 1174.35C2030.78 1174.35 2040.4 1183.23 2046.65 1176.76C2052.9 1170.29 2050.65 1161.3 2043.45 1155.77C2036.26 1150.25 2022.35 1148.38 2018.02 1160.71C2013.69 1173.04 2020.32 1190.29 2030.9 1196.09C2041.48 1201.9 2066.34 1200 2072.87 1176.16C2079.4 1152.32 2049.64 1134.8 2049.64 1134.8C2049.64 1134.8 2088.5 1147.17 2081.61 1180.79C2074.72 1214.4 2037.25 1214.38 2022.53 1204.2C2007.8 1194.02 2002.16 1171.88 2011.49 1157.27C2020.81 1142.67 2038.38 1141.24 2048.46 1148.52C2058.54 1155.81 2067.25 1178.49 2052.45 1185.88Z" fill="#809599" fill-opacity="0.7"/>
<path d="M2163.75 1112.11C2161.07 1127.97 2141.67 1124.12 2141.67 1124.12C2141.67 1124.12 2156.33 1120.5 2154.71 1111.97C2153.08 1103.44 2144.84 1101.73 2136.03 1104.48C2127.21 1107.23 2118.02 1118.35 2125.6 1128.52C2133.19 1138.7 2149.3 1140.65 2160.35 1135.34C2171.4 1130.03 2183.52 1104.91 2168.39 1087.44C2153.26 1069.96 2119.85 1083 2119.85 1083C2119.85 1083 2152.21 1057.46 2175.8 1081.27C2199.38 1105.07 2181.27 1139.83 2161.97 1146.85C2142.67 1153.88 2123.29 1145.57 2116.79 1130.16C2110.3 1114.75 2120.38 1101.24 2133.02 1096.21C2145.65 1091.18 2166.44 1096.24 2163.75 1112.11Z" fill="#809599" fill-opacity="0.7"/>
<path d="M2070.96 1917.05C2051.26 1934.15 2031.35 1909.36 2031.35 1909.36C2031.35 1909.36 2051.43 1919.17 2059.14 1905.34C2066.85 1891.51 2057.86 1880.97 2044.33 1875.33C2030.8 1869.7 2008.12 1871.51 2006.76 1892.04C2005.4 1912.58 2022.23 1936.12 2041.11 1940.85C2060 1945.59 2099.09 1931.4 2098.88 1894.07C2098.67 1856.74 2040.63 1839.9 2040.63 1839.9C2040.63 1839.9 2109.34 1840.22 2113.36 1896.17C2117.39 1952.12 2059.78 1966.56 2032.57 1956.76C2005.36 1946.96 1987.04 1915.32 1995.15 1889.35C2003.27 1863.37 2031.28 1857.54 2049.19 1863.41C2067.1 1869.27 2090.66 1899.96 2070.96 1917.05Z" fill="#809599" fill-opacity="0.7"/>
<path d="M2047.46 2014.34C2032.67 2021.74 2025.79 2002.81 2025.79 2002.81C2025.79 2002.81 2035.41 2011.69 2041.66 2005.22C2047.91 1998.75 2045.66 1989.76 2038.46 1984.23C2031.27 1978.71 2017.36 1976.84 2013.03 1989.17C2008.7 2001.49 2015.34 2018.75 2025.91 2024.55C2036.49 2030.36 2061.35 2028.46 2067.88 2004.62C2074.41 1980.78 2044.65 1963.26 2044.65 1963.26C2044.65 1963.26 2083.51 1975.63 2076.62 2009.24C2069.73 2042.86 2032.26 2042.84 2017.54 2032.66C2002.81 2022.48 1997.17 2000.34 2006.5 1985.73C2015.82 1971.12 2033.39 1969.7 2043.47 1976.98C2053.55 1984.27 2062.26 2006.95 2047.46 2014.34Z" fill="#809599" fill-opacity="0.7"/>
<path d="M2158.76 1940.56C2156.08 1956.43 2136.68 1952.58 2136.68 1952.58C2136.68 1952.58 2151.34 1948.96 2149.72 1940.43C2148.1 1931.89 2139.85 1930.19 2131.04 1932.94C2122.22 1935.69 2113.03 1946.81 2120.62 1956.98C2128.2 1967.15 2144.31 1969.11 2155.36 1963.8C2166.41 1958.49 2178.53 1933.37 2163.4 1915.9C2148.27 1898.42 2114.86 1911.45 2114.86 1911.45C2114.86 1911.45 2147.22 1885.92 2170.81 1909.72C2194.4 1933.53 2176.28 1968.29 2156.98 1975.31C2137.68 1982.34 2118.3 1974.03 2111.8 1958.62C2105.31 1943.2 2115.39 1929.7 2128.03 1924.67C2140.66 1919.64 2161.45 1924.7 2158.76 1940.56Z" fill="#809599" fill-opacity="0.7"/>
<path d="M1729.81 1923.45C1704.75 1916.23 1714.69 1886.04 1714.69 1886.04C1714.69 1886.04 1717.4 1908.22 1733.2 1907.15C1748.99 1906.08 1752.95 1892.81 1750.3 1878.39C1747.65 1863.98 1733.79 1845.94 1715.82 1855.98C1697.86 1866.03 1687.29 1892.96 1693.6 1911.38C1699.91 1929.8 1733.1 1954.85 1764.3 1934.34C1795.49 1913.84 1778 1855.99 1778 1855.99C1778 1855.99 1815.16 1913.79 1770.42 1947.64C1725.69 1981.49 1682.2 1941.03 1675.6 1912.88C1669 1884.72 1685.56 1852.12 1711.76 1844.78C1737.97 1837.44 1758.11 1857.75 1762.95 1875.97C1767.78 1894.19 1754.88 1930.66 1729.81 1923.45Z" fill="#809599" fill-opacity="0.7"/>
<path d="M1635.42 1956.73C1621.16 1948.35 1633.29 1932.27 1633.29 1932.27C1633.29 1932.27 1631.08 1945.17 1639.91 1946.89C1648.74 1948.61 1655.06 1941.83 1655.77 1932.78C1656.49 1923.74 1650.48 1911.06 1637.78 1914.14C1625.09 1917.22 1614.23 1932.18 1615.12 1944.21C1616.01 1956.25 1631.15 1976.07 1654.7 1968.56C1678.25 1961.05 1676.73 1926.55 1676.73 1926.55C1676.73 1926.55 1687.52 1965.88 1655.58 1978.4C1623.63 1990.93 1603.24 1959.5 1603.76 1941.61C1604.28 1923.71 1619.78 1906.92 1637.11 1906.79C1654.44 1906.65 1665.2 1920.61 1664.58 1933.03C1663.96 1945.45 1649.68 1965.11 1635.42 1956.73Z" fill="#809599" fill-opacity="0.7"/>
<path d="M1757.92 2009.89C1743.15 2016.28 1735.81 1997.91 1735.81 1997.91C1735.81 1997.91 1746.83 2008.23 1753.11 2002.23C1759.38 1996.22 1756.32 1988.38 1749.21 1982.49C1742.1 1976.59 1727.77 1974.94 1723.37 1986.84C1718.97 1998.74 1726.11 2013.31 1736.58 2019.69C1747.05 2026.07 1774.72 2022.55 1781.13 2000.34C1787.55 1978.14 1758.42 1957.22 1758.42 1957.22C1758.42 1957.22 1797.46 1970.45 1790.34 2003.2C1783.22 2035.94 1744.21 2039.68 1727.8 2027.32C1711.4 2014.96 1707.81 1994.18 1717.2 1980.34C1726.59 1966.49 1743.41 1967.6 1754.51 1975.46C1765.61 1983.31 1772.69 2003.5 1757.92 2009.89Z" fill="#809599" fill-opacity="0.7"/>
<path d="M1303.21 1924.47C1278.4 1932.5 1269.76 1901.91 1269.76 1901.91C1269.76 1901.91 1284.41 1918.78 1296.91 1909.06C1309.4 1899.35 1305.26 1886.13 1295 1875.66C1284.74 1865.19 1263.16 1857.99 1253.88 1876.36C1244.61 1894.73 1250.9 1922.97 1266.44 1934.71C1281.97 1946.45 1323.5 1948.66 1337.89 1914.22C1352.28 1879.77 1305.44 1841.6 1305.44 1841.6C1305.44 1841.6 1368.56 1868.73 1350.4 1921.81C1332.25 1974.89 1273.57 1965.67 1252.36 1946.02C1231.14 1926.37 1226.64 1890.08 1244.26 1869.34C1261.87 1848.6 1289.93 1854.18 1304.13 1866.58C1318.33 1878.98 1328.02 1916.43 1303.21 1924.47Z" fill="#809599" fill-opacity="0.7"/>
<path d="M1243.57 2004.84C1227.06 2005.87 1228.13 1985.76 1228.13 1985.76C1228.13 1985.76 1233.51 1997.69 1241.79 1994.18C1250.07 1990.66 1251.51 1981.51 1247.05 1973.61C1242.59 1965.71 1230.51 1958.56 1221.71 1968.21C1212.91 1977.87 1212.27 1996.34 1219.74 2005.82C1227.21 2015.3 1250.84 2023.26 1266.16 2003.87C1281.49 1984.47 1260.94 1956.72 1260.94 1956.72C1260.94 1956.72 1291.88 1983.29 1272.4 2011.54C1252.92 2039.79 1218.44 2025.14 1208.86 2010.01C1199.29 1994.88 1202.75 1972.3 1217.04 1962.5C1231.33 1952.7 1248.05 1958.24 1254.49 1968.89C1260.92 1979.54 1260.08 2003.81 1243.57 2004.84Z" fill="#809599" fill-opacity="0.7"/>
<path d="M1374.85 1980.42C1366.18 1993.97 1349.82 1982.85 1349.82 1982.85C1349.82 1982.85 1364.73 1985.24 1366.57 1976.75C1368.42 1968.27 1361.5 1963.48 1352.31 1962.57C1343.12 1961.66 1330.31 1968.3 1333.32 1980.62C1336.32 1992.95 1350.39 2001.04 1362.64 2000.48C1374.88 1999.91 1395.85 1981.52 1388.76 1959.52C1381.66 1937.52 1345.81 1936.47 1345.81 1936.47C1345.81 1936.47 1385.58 1925.61 1397.99 1956.73C1410.4 1987.86 1380.14 2012.78 1359.63 2011.71C1339.12 2010.63 1324.52 1995.41 1324.57 1978.68C1324.61 1961.96 1339.17 1953.47 1352.77 1953.78C1366.36 1954.08 1383.52 1966.86 1374.85 1980.42Z" fill="#809599" fill-opacity="0.7"/>
<path d="M1305.8 1095.77C1281.17 1104.35 1271.86 1073.95 1271.86 1073.95C1271.86 1073.95 1286.88 1090.5 1299.16 1080.51C1311.44 1070.52 1307 1057.4 1296.52 1047.16C1286.04 1036.91 1264.3 1030.19 1255.43 1048.76C1246.56 1067.33 1253.47 1095.43 1269.26 1106.82C1285.05 1118.22 1326.61 1119.52 1340.25 1084.77C1353.88 1050.02 1306.21 1012.87 1306.21 1012.87C1306.21 1012.87 1369.91 1038.62 1352.92 1092.09C1335.93 1145.55 1277.07 1137.61 1255.43 1118.43C1233.79 1099.25 1228.49 1063.08 1245.65 1041.96C1262.81 1020.83 1290.99 1025.8 1305.45 1037.88C1319.92 1049.96 1330.43 1087.2 1305.8 1095.77Z" fill="#809599" fill-opacity="0.7"/>
<path d="M1247.93 1177.43C1231.45 1178.82 1232.07 1158.69 1232.07 1158.69C1232.07 1158.69 1237.72 1170.5 1245.92 1166.81C1254.12 1163.12 1255.36 1153.93 1250.73 1146.13C1246.09 1138.34 1233.86 1131.45 1225.28 1141.29C1216.69 1151.14 1216.46 1169.62 1224.13 1178.93C1231.8 1188.25 1255.6 1195.69 1270.5 1175.97C1285.4 1156.24 1264.24 1128.95 1264.24 1128.95C1264.24 1128.95 1295.76 1154.83 1276.9 1183.5C1258.05 1212.17 1223.25 1198.27 1213.35 1183.36C1203.44 1168.45 1206.41 1145.79 1220.48 1135.68C1234.55 1125.57 1251.4 1130.75 1258.06 1141.25C1264.73 1151.76 1264.41 1176.04 1247.93 1177.43Z" fill="#809599" fill-opacity="0.7"/>
<path d="M1378.64 1150.14C1370.27 1163.89 1353.68 1153.12 1353.68 1153.12C1353.68 1153.12 1368.64 1155.19 1370.29 1146.66C1371.95 1138.14 1364.93 1133.5 1355.72 1132.79C1346.51 1132.08 1333.85 1139 1337.13 1151.26C1340.4 1163.52 1354.65 1171.3 1366.88 1170.46C1379.1 1169.63 1399.67 1150.78 1392.09 1128.95C1384.51 1107.11 1348.65 1106.84 1348.65 1106.84C1348.65 1106.84 1388.17 1095.11 1401.26 1125.96C1414.35 1156.81 1384.65 1182.38 1364.12 1181.76C1343.58 1181.13 1328.66 1166.23 1328.34 1149.51C1328.01 1132.79 1342.39 1123.98 1355.99 1123.99C1369.58 1124 1387.01 1136.4 1378.64 1150.14Z" fill="#809599" fill-opacity="0.7"/>
</g>
<rect id="border" x="1070.69" y="955.411" width="1232.85" height="1155.3" rx="56" stroke="url(#paint4_linear_0_1)" stroke-width="35"/>
<circle id="btnEarLeftHole" cx="599.816" cy="657.865" r="383" fill="black" stroke="url(#paint5_linear_0_1)" stroke-width="20"/>
<circle id="btnEarLeft" cx="599.816" cy="657.865" r="352" fill="url(#paint6_linear_0_1)" stroke="url(#paint7_linear_0_1)" stroke-width="20"/>
<circle id="btnEarRightHole" cx="2780.27" cy="657.865" r="383" fill="black" stroke="url(#paint8_linear_0_1)" stroke-width="20"/>
<circle id="btnEarRight" cx="2780.27" cy="657.865" r="352" fill="url(#paint9_linear_0_1)" stroke="url(#paint10_linear_0_1)" stroke-width="20"/>
<circle id="btnLeftHole" cx="1443.05" cy="2408.58" r="95" fill="black" stroke="url(#paint11_linear_0_1)" stroke-width="2"/>
<circle id="btnLeft" cx="1443.05" cy="2408.58" r="88" fill="#FAFAFA" stroke="url(#paint12_linear_0_1)" stroke-width="8"/>
<circle id="btnRightHole" cx="1937.03" cy="2408.58" r="95" fill="black" stroke="url(#paint13_linear_0_1)" stroke-width="2"/>
<circle id="btnRight" cx="1937.03" cy="2408.58" r="88" fill="#FAFAFA" stroke="url(#paint14_linear_0_1)" stroke-width="8"/>
<circle id="btnReset" cx="961.816" cy="1247.12" r="40" fill="black" fill-opacity="0.01"/>
</g>
<g id="display">
<g id="c31">
<rect id="127_3" x="2161.53" y="1272.62" width="29" height="29" fill="black"/>
<rect id="127_2" x="2161.53" y="1304.96" width="29" height="29" fill="black"/>
<rect id="127_1" x="2161.53" y="1337.3" width="29" height="29" fill="black"/>
<rect id="127_0" x="2161.53" y="1369.63" width="29" height="29" fill="black"/>
<rect id="126_3" x="2161.53" y="1401.97" width="29" height="29" fill="black"/>
<rect id="126_2" x="2161.53" y="1434.31" width="29" height="29" fill="black"/>
<rect id="126_1" x="2161.53" y="1466.65" width="29" height="29" fill="black"/>
<rect id="126_0" x="2161.53" y="1498.99" width="29" height="29" fill="black"/>
<rect id="63_3" x="2161.53" y="1531.33" width="29" height="29" fill="black"/>
<rect id="63_2" x="2161.53" y="1563.67" width="29" height="29" fill="black"/>
<rect id="63_1" x="2161.53" y="1596.01" width="29" height="29" fill="black"/>
<rect id="63_0" x="2161.53" y="1628.35" width="29" height="29" fill="black"/>
<rect id="62_3" x="2161.53" y="1660.69" width="29" height="29" fill="black"/>
<rect id="62_2" x="2161.53" y="1693.03" width="29" height="29" fill="black"/>
<rect id="62_1" x="2161.53" y="1725.37" width="29" height="29" fill="black"/>
<rect id="62_0" x="2161.53" y="1757.71" width="29" height="29" fill="black"/>
</g>
<g id="c30">
<rect id="125_3" x="2128.23" y="1272.62" width="29" height="29" fill="black"/>
<rect id="125_2" x="2128.23" y="1304.96" width="29" height="29" fill="black"/>
<rect id="125_1" x="2128.23" y="1337.3" width="29" height="29" fill="black"/>
<rect id="125_0" x="2128.23" y="1369.63" width="29" height="29" fill="black"/>
<rect id="124_3" x="2128.23" y="1401.97" width="29" height="29" fill="black"/>
<rect id="124_2" x="2128.23" y="1434.31" width="29" height="29" fill="black"/>
<rect id="124_1" x="2128.23" y="1466.65" width="29" height="29" fill="black"/>
<rect id="124_0" x="2128.23" y="1498.99" width="29" height="29" fill="black"/>
<rect id="61_3" x="2128.23" y="1531.33" width="29" height="29" fill="black"/>
<rect id="61_2" x="2128.23" y="1563.67" width="29" height="29" fill="black"/>
<rect id="61_1" x="2128.23" y="1596.01" width="29" height="29" fill="black"/>
<rect id="61_0" x="2128.23" y="1628.35" width="29" height="29" fill="black"/>
<rect id="60_3" x="2128.23" y="1660.69" width="29" height="29" fill="black"/>
<rect id="60_2" x="2128.23" y="1693.03" width="29" height="29" fill="black"/>
<rect id="60_1" x="2128.23" y="1725.37" width="29" height="29" fill="black"/>
<rect id="60_0" x="2128.23" y="1757.71" width="29" height="29" fill="black"/>
</g>
<g id="c29">
<rect id="123_3" x="2094.93" y="1272.62" width="29" height="29" fill="black"/>
<rect id="123_2" x="2094.93" y="1304.96" width="29" height="29" fill="black"/>
<rect id="123_1" x="2094.93" y="1337.3" width="29" height="29" fill="black"/>
<rect id="123_0" x="2094.93" y="1369.63" width="29" height="29" fill="black"/>
<rect id="122_3" x="2094.93" y="1401.97" width="29" height="29" fill="black"/>
<rect id="122_2" x="2094.93" y="1434.31" width="29" height="29" fill="black"/>
<rect id="122_1" x="2094.93" y="1466.65" width="29" height="29" fill="black"/>
<rect id="122_0" x="2094.93" y="1498.99" width="29" height="29" fill="black"/>
<rect id="59_3" x="2094.93" y="1531.33" width="29" height="29" fill="black"/>
<rect id="59_2" x="2094.93" y="1563.67" width="29" height="29" fill="black"/>
<rect id="59_1" x="2094.93" y="1596.01" width="29" height="29" fill="black"/>
<rect id="59_0" x="2094.93" y="1628.35" width="29" height="29" fill="black"/>
<rect id="58_3" x="2094.93" y="1660.69" width="29" height="29" fill="black"/>
<rect id="58_2" x="2094.93" y="1693.03" width="29" height="29" fill="black"/>
<rect id="58_1" x="2094.93" y="1725.37" width="29" height="29" fill="black"/>
<rect id="58_0" x="2094.93" y="1757.71" width="29" height="29" fill="black"/>
</g>
<g id="c28">
<rect id="121_3" x="2061.63" y="1272.62" width="29" height="29" fill="black"/>
<rect id="121_2" x="2061.63" y="1304.96" width="29" height="29" fill="black"/>
<rect id="121_1" x="2061.63" y="1337.3" width="29" height="29" fill="black"/>
<rect id="121_0" x="2061.63" y="1369.63" width="29" height="29" fill="black"/>
<rect id="120_3" x="2061.63" y="1401.97" width="29" height="29" fill="black"/>
<rect id="120_2" x="2061.63" y="1434.31" width="29" height="29" fill="black"/>
<rect id="120_1" x="2061.63" y="1466.65" width="29" height="29" fill="black"/>
<rect id="120_0" x="2061.63" y="1498.99" width="29" height="29" fill="black"/>
<rect id="57_3" x="2061.63" y="1531.33" width="29" height="29" fill="black"/>
<rect id="57_2" x="2061.63" y="1563.67" width="29" height="29" fill="black"/>
<rect id="57_1" x="2061.63" y="1596.01" width="29" height="29" fill="black"/>
<rect id="57_0" x="2061.63" y="1628.35" width="29" height="29" fill="black"/>
<rect id="56_3" x="2061.63" y="1660.69" width="29" height="29" fill="black"/>
<rect id="56_2" x="2061.63" y="1693.03" width="29" height="29" fill="black"/>
<rect id="56_1" x="2061.63" y="1725.37" width="29" height="29" fill="black"/>
<rect id="56_0" x="2061.63" y="1757.71" width="29" height="29" fill="black"/>
</g>
<g id="c27">
<rect id="119_3" x="2028.33" y="1272.62" width="29" height="29" fill="black"/>
<rect id="119_2" x="2028.33" y="1304.96" width="29" height="29" fill="black"/>
<rect id="119_1" x="2028.33" y="1337.3" width="29" height="29" fill="black"/>
<rect id="119_0" x="2028.33" y="1369.63" width="29" height="29" fill="black"/>
<rect id="118_3" x="2028.33" y="1401.97" width="29" height="29" fill="black"/>
<rect id="118_2" x="2028.33" y="1434.31" width="29" height="29" fill="black"/>
<rect id="118_1" x="2028.33" y="1466.65" width="29" height="29" fill="black"/>
<rect id="118_0" x="2028.33" y="1498.99" width="29" height="29" fill="black"/>
<rect id="55_3" x="2028.33" y="1531.33" width="29" height="29" fill="black"/>
<rect id="55_2" x="2028.33" y="1563.67" width="29" height="29" fill="black"/>
<rect id="55_1" x="2028.33" y="1596.01" width="29" height="29" fill="black"/>
<rect id="55_0" x="2028.33" y="1628.35" width="29" height="29" fill="black"/>
<rect id="54_3" x="2028.33" y="1660.69" width="29" height="29" fill="black"/>
<rect id="54_2" x="2028.33" y="1693.03" width="29" height="29" fill="black"/>
<rect id="54_1" x="2028.33" y="1725.37" width="29" height="29" fill="black"/>
<rect id="54_0" x="2028.33" y="1757.71" width="29" height="29" fill="black"/>
</g>
<g id="c26">
<rect id="117_3" x="1995.03" y="1272.62" width="29" height="29" fill="black"/>
<rect id="117_2" x="1995.03" y="1304.96" width="29" height="29" fill="black"/>
<rect id="117_1" x="1995.03" y="1337.3" width="29" height="29" fill="black"/>
<rect id="117_0" x="1995.03" y="1369.63" width="29" height="29" fill="black"/>
<rect id="116_3" x="1995.03" y="1401.97" width="29" height="29" fill="black"/>
<rect id="116_2" x="1995.03" y="1434.31" width="29" height="29" fill="black"/>
<rect id="116_1" x="1995.03" y="1466.65" width="29" height="29" fill="black"/>
<rect id="116_0" x="1995.03" y="1498.99" width="29" height="29" fill="black"/>
<rect id="53_3" x="1995.03" y="1531.33" width="29" height="29" fill="black"/>
<rect id="53_2" x="1995.03" y="1563.67" width="29" height="29" fill="black"/>
<rect id="53_1" x="1995.03" y="1596.01" width="29" height="29" fill="black"/>
<rect id="53_0" x="1995.03" y="1628.35" width="29" height="29" fill="black"/>
<rect id="52_3" x="1995.03" y="1660.69" width="29" height="29" fill="black"/>
<rect id="52_2" x="1995.03" y="1693.03" width="29" height="29" fill="black"/>
<rect id="52_1" x="1995.03" y="1725.37" width="29" height="29" fill="black"/>
<rect id="52_0" x="1995.03" y="1757.71" width="29" height="29" fill="black"/>
</g>
<g id="c25">
<rect id="115_3" x="1961.73" y="1272.62" width="29" height="29" fill="black"/>
<rect id="115_2" x="1961.73" y="1304.96" width="29" height="29" fill="black"/>
<rect id="115_1" x="1961.73" y="1337.3" width="29" height="29" fill="black"/>
<rect id="115_0" x="1961.73" y="1369.63" width="29" height="29" fill="black"/>
<rect id="114_3" x="1961.73" y="1401.97" width="29" height="29" fill="black"/>
<rect id="114_2" x="1961.73" y="1434.31" width="29" height="29" fill="black"/>
<rect id="114_1" x="1961.73" y="1466.65" width="29" height="29" fill="black"/>
<rect id="114_0" x="1961.73" y="1498.99" width="29" height="29" fill="black"/>
<rect id="51_3" x="1961.73" y="1531.33" width="29" height="29" fill="black"/>
<rect id="51_2" x="1961.73" y="1563.67" width="29" height="29" fill="black"/>
<rect id="51_1" x="1961.73" y="1596.01" width="29" height="29" fill="black"/>
<rect id="51_0" x="1961.73" y="1628.35" width="29" height="29" fill="black"/>
<rect id="50_3" x="1961.73" y="1660.69" width="29" height="29" fill="black"/>
<rect id="50_2" x="1961.73" y="1693.03" width="29" height="29" fill="black"/>
<rect id="50_1" x="1961.73" y="1725.37" width="29" height="29" fill="black"/>
<rect id="50_0" x="1961.73" y="1757.71" width="29" height="29" fill="black"/>
</g>
<g id="c24">
<rect id="113_3" x="1928.43" y="1272.62" width="29" height="29" fill="black"/>
<rect id="113_2" x="1928.43" y="1304.96" width="29" height="29" fill="black"/>
<rect id="113_1" x="1928.43" y="1337.3" width="29" height="29" fill="black"/>
<rect id="113_0" x="1928.43" y="1369.63" width="29" height="29" fill="black"/>
<rect id="112_3" x="1928.43" y="1401.97" width="29" height="29" fill="black"/>
<rect id="112_2" x="1928.43" y="1434.31" width="29" height="29" fill="black"/>
<rect id="112_1" x="1928.43" y="1466.65" width="29" height="29" fill="black"/>
<rect id="112_0" x="1928.43" y="1498.99" width="29" height="29" fill="black"/>
<rect id="49_3" x="1928.43" y="1531.33" width="29" height="29" fill="black"/>
<rect id="49_2" x="1928.43" y="1563.67" width="29" height="29" fill="black"/>
<rect id="49_1" x="1928.43" y="1596.01" width="29" height="29" fill="black"/>
<rect id="49_0" x="1928.43" y="1628.35" width="29" height="29" fill="black"/>
<rect id="48_3" x="1928.43" y="1660.69" width="29" height="29" fill="black"/>
<rect id="48_2" x="1928.43" y="1693.03" width="29" height="29" fill="black"/>
<rect id="48_1" x="1928.43" y="1725.37" width="29" height="29" fill="black"/>
<rect id="48_0" x="1928.43" y="1757.71" width="29" height="29" fill="black"/>
</g>
<g id="c23">
<rect id="111_3" x="1895.13" y="1272.62" width="29" height="29" fill="black"/>
<rect id="111_2" x="1895.13" y="1304.96" width="29" height="29" fill="black"/>
<rect id="111_1" x="1895.13" y="1337.3" width="29" height="29" fill="black"/>
<rect id="111_0" x="1895.13" y="1369.63" width="29" height="29" fill="black"/>
<rect id="110_3" x="1895.13" y="1401.97" width="29" height="29" fill="black"/>
<rect id="110_2" x="1895.13" y="1434.31" width="29" height="29" fill="black"/>
<rect id="110_1" x="1895.13" y="1466.65" width="29" height="29" fill="black"/>
<rect id="110_0" x="1895.13" y="1498.99" width="29" height="29" fill="black"/>
<rect id="47_3" x="1895.13" y="1531.33" width="29" height="29" fill="black"/>
<rect id="47_2" x="1895.13" y="1563.67" width="29" height="29" fill="black"/>
<rect id="47_1" x="1895.13" y="1596.01" width="29" height="29" fill="black"/>
<rect id="47_0" x="1895.13" y="1628.35" width="29" height="29" fill="black"/>
<rect id="46_3" x="1895.13" y="1660.69" width="29" height="29" fill="black"/>
<rect id="46_2" x="1895.13" y="1693.03" width="29" height="29" fill="black"/>
<rect id="46_1" x="1895.13" y="1725.37" width="29" height="29" fill="black"/>
<rect id="46_0" x="1895.13" y="1757.71" width="29" height="29" fill="black"/>
</g>
<g id="c22">
<rect id="109_3" x="1861.83" y="1272.62" width="29" height="29" fill="black"/>
<rect id="109_2" x="1861.83" y="1304.96" width="29" height="29" fill="black"/>
<rect id="109_1" x="1861.83" y="1337.3" width="29" height="29" fill="black"/>
<rect id="109_0" x="1861.83" y="1369.63" width="29" height="29" fill="black"/>
<rect id="108_3" x="1861.83" y="1401.97" width="29" height="29" fill="black"/>
<rect id="108_2" x="1861.83" y="1434.31" width="29" height="29" fill="black"/>
<rect id="108_1" x="1861.83" y="1466.65" width="29" height="29" fill="black"/>
<rect id="108_0" x="1861.83" y="1498.99" width="29" height="29" fill="black"/>
<rect id="45_3" x="1861.83" y="1531.33" width="29" height="29" fill="black"/>
<rect id="45_2" x="1861.83" y="1563.67" width="29" height="29" fill="black"/>
<rect id="45_1" x="1861.83" y="1596.01" width="29" height="29" fill="black"/>
<rect id="45_0" x="1861.83" y="1628.35" width="29" height="29" fill="black"/>
<rect id="44_3" x="1861.83" y="1660.69" width="29" height="29" fill="black"/>
<rect id="44_2" x="1861.83" y="1693.03" width="29" height="29" fill="black"/>
<rect id="44_1" x="1861.83" y="1725.37" width="29" height="29" fill="black"/>
<rect id="44_0" x="1861.83" y="1757.71" width="29" height="29" fill="black"/>
</g>
<g id="c21">
<rect id="107_3" x="1829.53" y="1272.62" width="29" height="29" fill="black"/>
<rect id="107_2" x="1829.53" y="1304.96" width="29" height="29" fill="black"/>
<rect id="107_1" x="1829.53" y="1337.3" width="29" height="29" fill="black"/>
<rect id="107_0" x="1829.53" y="1369.63" width="29" height="29" fill="black"/>
<rect id="106_3" x="1829.53" y="1401.97" width="29" height="29" fill="black"/>
<rect id="106_2" x="1829.53" y="1434.31" width="29" height="29" fill="black"/>
<rect id="106_1" x="1829.53" y="1466.65" width="29" height="29" fill="black"/>
<rect id="106_0" x="1829.53" y="1498.99" width="29" height="29" fill="black"/>
<rect id="43_3" x="1829.53" y="1531.33" width="29" height="29" fill="black"/>
<rect id="43_2" x="1829.53" y="1563.67" width="29" height="29" fill="black"/>
<rect id="43_1" x="1829.53" y="1596.01" width="29" height="29" fill="black"/>
<rect id="43_0" x="1829.53" y="1628.35" width="29" height="29" fill="black"/>
<rect id="42_3" x="1829.53" y="1660.69" width="29" height="29" fill="black"/>
<rect id="42_2" x="1829.53" y="1693.03" width="29" height="29" fill="black"/>
<rect id="42_1" x="1829.53" y="1725.37" width="29" height="29" fill="black"/>
<rect id="42_0" x="1829.53" y="1757.71" width="29" height="29" fill="black"/>
</g>
<g id="c20">
<rect id="105_3" x="1797.23" y="1272.62" width="29" height="29" fill="black"/>
<rect id="105_2" x="1797.23" y="1304.96" width="29" height="29" fill="black"/>
<rect id="105_1" x="1797.23" y="1337.3" width="29" height="29" fill="black"/>
<rect id="105_0" x="1797.23" y="1369.63" width="29" height="29" fill="black"/>
<rect id="104_3" x="1797.23" y="1401.97" width="29" height="29" fill="black"/>
<rect id="104_2" x="1797.23" y="1434.31" width="29" height="29" fill="black"/>
<rect id="104_1" x="1797.23" y="1466.65" width="29" height="29" fill="black"/>
<rect id="104_0" x="1797.23" y="1498.99" width="29" height="29" fill="black"/>
<rect id="41_3" x="1797.23" y="1531.33" width="29" height="29" fill="black"/>
<rect id="41_2" x="1797.23" y="1563.67" width="29" height="29" fill="black"/>
<rect id="41_1" x="1797.23" y="1596.01" width="29" height="29" fill="black"/>
<rect id="41_0" x="1797.23" y="1628.35" width="29" height="29" fill="black"/>
<rect id="40_3" x="1797.23" y="1660.69" width="29" height="29" fill="black"/>
<rect id="40_2" x="1797.23" y="1693.03" width="29" height="29" fill="black"/>
<rect id="40_1" x="1797.23" y="1725.37" width="29" height="29" fill="black"/>
<rect id="40_0" x="1797.23" y="1757.71" width="29" height="29" fill="black"/>
</g>
<g id="c19">
<rect id="103_3" x="1764.93" y="1272.62" width="29" height="29" fill="black"/>
<rect id="103_2" x="1764.93" y="1304.96" width="29" height="29" fill="black"/>
<rect id="103_1" x="1764.93" y="1337.3" width="29" height="29" fill="black"/>
<rect id="103_0" x="1764.93" y="1369.63" width="29" height="29" fill="black"/>
<rect id="102_3" x="1764.93" y="1401.97" width="29" height="29" fill="black"/>
<rect id="102_2" x="1764.93" y="1434.31" width="29" height="29" fill="black"/>
<rect id="102_1" x="1764.93" y="1466.65" width="29" height="29" fill="black"/>
<rect id="102_0" x="1764.93" y="1498.99" width="29" height="29" fill="black"/>
<rect id="39_3" x="1764.93" y="1531.33" width="29" height="29" fill="black"/>
<rect id="39_2" x="1764.93" y="1563.67" width="29" height="29" fill="black"/>
<rect id="39_1" x="1764.93" y="1596.01" width="29" height="29" fill="black"/>
<rect id="39_0" x="1764.93" y="1628.35" width="29" height="29" fill="black"/>
<rect id="38_3" x="1764.93" y="1660.69" width="29" height="29" fill="black"/>
<rect id="38_2" x="1764.93" y="1693.03" width="29" height="29" fill="black"/>
<rect id="38_1" x="1764.93" y="1725.37" width="29" height="29" fill="black"/>
<rect id="38_0" x="1764.93" y="1757.71" width="29" height="29" fill="black"/>
</g>
<g id="c18">
<rect id="101_3" x="1732.63" y="1272.62" width="29" height="29" fill="black"/>
<rect id="101_2" x="1732.63" y="1304.96" width="29" height="29" fill="black"/>
<rect id="101_1" x="1732.63" y="1337.3" width="29" height="29" fill="black"/>
<rect id="101_0" x="1732.63" y="1369.63" width="29" height="29" fill="black"/>
<rect id="100_3" x="1732.63" y="1401.97" width="29" height="29" fill="black"/>
<rect id="100_2" x="1732.63" y="1434.31" width="29" height="29" fill="black"/>
<rect id="100_1" x="1732.63" y="1466.65" width="29" height="29" fill="black"/>
<rect id="100_0" x="1732.63" y="1498.99" width="29" height="29" fill="black"/>
<rect id="37_3" x="1732.63" y="1531.33" width="29" height="29" fill="black"/>
<rect id="37_2" x="1732.63" y="1563.67" width="29" height="29" fill="black"/>
<rect id="37_1" x="1732.63" y="1596.01" width="29" height="29" fill="black"/>
<rect id="37_0" x="1732.63" y="1628.35" width="29" height="29" fill="black"/>
<rect id="36_3" x="1732.63" y="1660.69" width="29" height="29" fill="black"/>
<rect id="36_2" x="1732.63" y="1693.03" width="29" height="29" fill="black"/>
<rect id="36_1" x="1732.63" y="1725.37" width="29" height="29" fill="black"/>
<rect id="36_0" x="1732.63" y="1757.71" width="29" height="29" fill="black"/>
</g>
<g id="c17">
<rect id="99_3" x="1700.33" y="1272.62" width="29" height="29" fill="black"/>
<rect id="99_2" x="1700.33" y="1304.96" width="29" height="29" fill="black"/>
<rect id="99_1" x="1700.33" y="1337.3" width="29" height="29" fill="black"/>
<rect id="99_0" x="1700.33" y="1369.63" width="29" height="29" fill="black"/>
<rect id="98_3" x="1700.33" y="1401.97" width="29" height="29" fill="black"/>
<rect id="98_2" x="1700.33" y="1434.31" width="29" height="29" fill="black"/>
<rect id="98_1" x="1700.33" y="1466.65" width="29" height="29" fill="black"/>
<rect id="98_0" x="1700.33" y="1498.99" width="29" height="29" fill="black"/>
<rect id="35_3" x="1700.33" y="1531.33" width="29" height="29" fill="black"/>
<rect id="35_2" x="1700.33" y="1563.67" width="29" height="29" fill="black"/>
<rect id="35_1" x="1700.33" y="1596.01" width="29" height="29" fill="black"/>
<rect id="35_0" x="1700.33" y="1628.35" width="29" height="29" fill="black"/>
<rect id="34_3" x="1700.33" y="1660.69" width="29" height="29" fill="black"/>
<rect id="34_2" x="1700.33" y="1693.03" width="29" height="29" fill="black"/>
<rect id="34_1" x="1700.33" y="1725.37" width="29" height="29" fill="black"/>
<rect id="34_0" x="1700.33" y="1757.71" width="29" height="29" fill="black"/>
</g>
<g id="c16">
<rect id="97_3" x="1668.03" y="1272.62" width="29" height="29" fill="black"/>
<rect id="97_2" x="1668.03" y="1304.96" width="29" height="29" fill="black"/>
<rect id="97_1" x="1668.03" y="1337.3" width="29" height="29" fill="black"/>
<rect id="97_0" x="1668.03" y="1369.63" width="29" height="29" fill="black"/>
<rect id="96_3" x="1668.03" y="1401.97" width="29" height="29" fill="black"/>
<rect id="96_2" x="1668.03" y="1434.31" width="29" height="29" fill="black"/>
<rect id="96_1" x="1668.03" y="1466.65" width="29" height="29" fill="black"/>
<rect id="96_0" x="1668.03" y="1498.99" width="29" height="29" fill="black"/>
<rect id="33_3" x="1668.03" y="1531.33" width="29" height="29" fill="black"/>
<rect id="33_2" x="1668.03" y="1563.67" width="29" height="29" fill="black"/>
<rect id="33_1" x="1668.03" y="1596.01" width="29" height="29" fill="black"/>
<rect id="33_0" x="1668.03" y="1628.35" width="29" height="29" fill="black"/>
<rect id="32_3" x="1668.03" y="1660.69" width="29" height="29" fill="black"/>
<rect id="32_2" x="1668.03" y="1693.03" width="29" height="29" fill="black"/>
<rect id="32_1" x="1668.03" y="1725.37" width="29" height="29" fill="black"/>
<rect id="32_0" x="1668.03" y="1757.71" width="29" height="29" fill="black"/>
</g>
<g id="c15">
<rect id="95_3" x="1635.73" y="1272.62" width="29" height="29" fill="black"/>
<rect id="95_2" x="1635.73" y="1304.96" width="29" height="29" fill="black"/>
<rect id="95_1" x="1635.73" y="1337.3" width="29" height="29" fill="black"/>
<rect id="95_0" x="1635.73" y="1369.63" width="29" height="29" fill="black"/>
<rect id="94_3" x="1635.73" y="1401.97" width="29" height="29" fill="black"/>
<rect id="94_2" x="1635.73" y="1434.31" width="29" height="29" fill="black"/>
<rect id="94_1" x="1635.73" y="1466.65" width="29" height="29" fill="black"/>
<rect id="94_0" x="1635.73" y="1498.99" width="29" height="29" fill="black"/>
<rect id="31_3" x="1635.73" y="1531.33" width="29" height="29" fill="black"/>
<rect id="31_2" x="1635.73" y="1563.67" width="29" height="29" fill="black"/>
<rect id="31_1" x="1635.73" y="1596.01" width="29" height="29" fill="black"/>
<rect id="31_0" x="1635.73" y="1628.35" width="29" height="29" fill="black"/>
<rect id="30_3" x="1635.73" y="1660.69" width="29" height="29" fill="black"/>
<rect id="30_2" x="1635.73" y="1693.03" width="29" height="29" fill="black"/>
<rect id="30_1" x="1635.73" y="1725.37" width="29" height="29" fill="black"/>
<rect id="30_0" x="1635.73" y="1757.71" width="29" height="29" fill="black"/>
</g>
<g id="c14">
<rect id="93_3" x="1603.43" y="1272.62" width="29" height="29" fill="black"/>
<rect id="93_2" x="1603.43" y="1304.96" width="29" height="29" fill="black"/>
<rect id="93_1" x="1603.43" y="1337.3" width="29" height="29" fill="black"/>
<rect id="93_0" x="1603.43" y="1369.63" width="29" height="29" fill="black"/>
<rect id="92_3" x="1603.43" y="1401.97" width="29" height="29" fill="black"/>
<rect id="92_2" x="1603.43" y="1434.31" width="29" height="29" fill="black"/>
<rect id="92_1" x="1603.43" y="1466.65" width="29" height="29" fill="black"/>
<rect id="92_0" x="1603.43" y="1498.99" width="29" height="29" fill="black"/>
<rect id="29_3" x="1603.43" y="1531.33" width="29" height="29" fill="black"/>
<rect id="29_2" x="1603.43" y="1563.67" width="29" height="29" fill="black"/>
<rect id="29_1" x="1603.43" y="1596.01" width="29" height="29" fill="black"/>
<rect id="29_0" x="1603.43" y="1628.35" width="29" height="29" fill="black"/>
<rect id="28_3" x="1603.43" y="1660.69" width="29" height="29" fill="black"/>
<rect id="28_2" x="1603.43" y="1693.03" width="29" height="29" fill="black"/>
<rect id="28_1" x="1603.43" y="1725.37" width="29" height="29" fill="black"/>
<rect id="28_0" x="1603.43" y="1757.71" width="29" height="29" fill="black"/>
</g>
<g id="c13">
<rect id="91_3" x="1571.13" y="1272.62" width="29" height="29" fill="black"/>
<rect id="91_2" x="1571.13" y="1304.96" width="29" height="29" fill="black"/>
<rect id="91_1" x="1571.13" y="1337.3" width="29" height="29" fill="black"/>
<rect id="91_0" x="1571.13" y="1369.63" width="29" height="29" fill="black"/>
<rect id="90_3" x="1571.13" y="1401.97" width="29" height="29" fill="black"/>
<rect id="90_2" x="1571.13" y="1434.31" width="29" height="29" fill="black"/>
<rect id="90_1" x="1571.13" y="1466.65" width="29" height="29" fill="black"/>
<rect id="90_0" x="1571.13" y="1498.99" width="29" height="29" fill="black"/>
<rect id="27_3" x="1571.13" y="1531.33" width="29" height="29" fill="black"/>
<rect id="27_2" x="1571.13" y="1563.67" width="29" height="29" fill="black"/>
<rect id="27_1" x="1571.13" y="1596.01" width="29" height="29" fill="black"/>
<rect id="27_0" x="1571.13" y="1628.35" width="29" height="29" fill="black"/>
<rect id="26_3" x="1571.13" y="1660.69" width="29" height="29" fill="black"/>
<rect id="26_2" x="1571.13" y="1693.03" width="29" height="29" fill="black"/>
<rect id="26_1" x="1571.13" y="1725.37" width="29" height="29" fill="black"/>
<rect id="26_0" x="1571.13" y="1757.71" width="29" height="29" fill="black"/>
</g>
<g id="c12">
<rect id="89_3" x="1538.83" y="1272.62" width="29" height="29" fill="black"/>
<rect id="89_2" x="1538.83" y="1304.96" width="29" height="29" fill="black"/>
<rect id="89_1" x="1538.83" y="1337.3" width="29" height="29" fill="black"/>
<rect id="89_0" x="1538.83" y="1369.63" width="29" height="29" fill="black"/>
<rect id="88_3" x="1538.83" y="1401.97" width="29" height="29" fill="black"/>
<rect id="88_2" x="1538.83" y="1434.31" width="29" height="29" fill="black"/>
<rect id="88_1" x="1538.83" y="1466.65" width="29" height="29" fill="black"/>
<rect id="88_0" x="1538.83" y="1498.99" width="29" height="29" fill="black"/>
<rect id="25_3" x="1538.83" y="1531.33" width="29" height="29" fill="black"/>
<rect id="25_2" x="1538.83" y="1563.67" width="29" height="29" fill="black"/>
<rect id="25_1" x="1538.83" y="1596.01" width="29" height="29" fill="black"/>
<rect id="25_0" x="1538.83" y="1628.35" width="29" height="29" fill="black"/>
<rect id="24_3" x="1538.83" y="1660.69" width="29" height="29" fill="black"/>
<rect id="24_2" x="1538.83" y="1693.03" width="29" height="29" fill="black"/>
<rect id="24_1" x="1538.83" y="1725.37" width="29" height="29" fill="black"/>
<rect id="24_0" x="1538.83" y="1757.71" width="29" height="29" fill="black"/>
</g>
<g id="c11">
<rect id="87_3" x="1506.53" y="1272.62" width="29" height="29" fill="black"/>
<rect id="87_2" x="1506.53" y="1304.96" width="29" height="29" fill="black"/>
<rect id="87_1" x="1506.53" y="1337.3" width="29" height="29" fill="black"/>
<rect id="87_0" x="1506.53" y="1369.63" width="29" height="29" fill="black"/>
<rect id="86_3" x="1506.53" y="1401.97" width="29" height="29" fill="black"/>
<rect id="86_2" x="1506.53" y="1434.31" width="29" height="29" fill="black"/>
<rect id="86_1" x="1506.53" y="1466.65" width="29" height="29" fill="black"/>
<rect id="86_0" x="1506.53" y="1498.99" width="29" height="29" fill="black"/>
<rect id="23_3" x="1506.53" y="1531.33" width="29" height="29" fill="black"/>
<rect id="23_2" x="1506.53" y="1563.67" width="29" height="29" fill="black"/>
<rect id="23_1" x="1506.53" y="1596.01" width="29" height="29" fill="black"/>
<rect id="23_0" x="1506.53" y="1628.35" width="29" height="29" fill="black"/>
<rect id="22_3" x="1506.53" y="1660.69" width="29" height="29" fill="black"/>
<rect id="22_2" x="1506.53" y="1693.03" width="29" height="29" fill="black"/>
<rect id="22_1" x="1506.53" y="1725.37" width="29" height="29" fill="black"/>
<rect id="22_0" x="1506.53" y="1757.71" width="29" height="29" fill="black"/>
</g>
<g id="c10">
<rect id="85_3" x="1474.23" y="1272.62" width="29" height="29" fill="black"/>
<rect id="85_2" x="1474.23" y="1304.96" width="29" height="29" fill="black"/>
<rect id="85_1" x="1474.23" y="1337.3" width="29" height="29" fill="black"/>
<rect id="85_0" x="1474.23" y="1369.63" width="29" height="29" fill="black"/>
<rect id="84_3" x="1474.23" y="1401.97" width="29" height="29" fill="black"/>
<rect id="84_2" x="1474.23" y="1434.31" width="29" height="29" fill="black"/>
<rect id="84_1" x="1474.23" y="1466.65" width="29" height="29" fill="black"/>
<rect id="84_0" x="1474.23" y="1498.99" width="29" height="29" fill="black"/>
<rect id="21_3" x="1474.23" y="1531.33" width="29" height="29" fill="black"/>
<rect id="21_2" x="1474.23" y="1563.67" width="29" height="29" fill="black"/>
<rect id="21_1" x="1474.23" y="1596.01" width="29" height="29" fill="black"/>
<rect id="21_0" x="1474.23" y="1628.35" width="29" height="29" fill="black"/>
<rect id="20_3" x="1474.23" y="1660.69" width="29" height="29" fill="black"/>
<rect id="20_2" x="1474.23" y="1693.03" width="29" height="29" fill="black"/>
<rect id="20_1" x="1474.23" y="1725.37" width="29" height="29" fill="black"/>
<rect id="20_0" x="1474.23" y="1757.71" width="29" height="29" fill="black"/>
</g>
<g id="c9">
<rect id="83_3" x="1441.93" y="1272.62" width="29" height="29" fill="black"/>
<rect id="83_2" x="1441.93" y="1304.96" width="29" height="29" fill="black"/>
<rect id="83_1" x="1441.93" y="1337.3" width="29" height="29" fill="black"/>
<rect id="83_0" x="1441.93" y="1369.63" width="29" height="29" fill="black"/>
<rect id="82_3" x="1441.93" y="1401.97" width="29" height="29" fill="black"/>
<rect id="82_2" x="1441.93" y="1434.31" width="29" height="29" fill="black"/>
<rect id="82_1" x="1441.93" y="1466.65" width="29" height="29" fill="black"/>
<rect id="82_0" x="1441.93" y="1498.99" width="29" height="29" fill="black"/>
<rect id="19_3" x="1441.93" y="1531.33" width="29" height="29" fill="black"/>
<rect id="19_2" x="1441.93" y="1563.67" width="29" height="29" fill="black"/>
<rect id="19_1" x="1441.93" y="1596.01" width="29" height="29" fill="black"/>
<rect id="19_0" x="1441.93" y="1628.35" width="29" height="29" fill="black"/>
<rect id="18_3" x="1441.93" y="1660.69" width="29" height="29" fill="black"/>
<rect id="18_2" x="1441.93" y="1693.03" width="29" height="29" fill="black"/>
<rect id="18_1" x="1441.93" y="1725.37" width="29" height="29" fill="black"/>
<rect id="18_0" x="1441.93" y="1757.71" width="29" height="29" fill="black"/>
</g>
<g id="c8">
<rect id="81_3" x="1409.63" y="1272.62" width="29" height="29" fill="black"/>
<rect id="81_2" x="1409.63" y="1304.96" width="29" height="29" fill="black"/>
<rect id="81_1" x="1409.63" y="1337.3" width="29" height="29" fill="black"/>
<rect id="81_0" x="1409.63" y="1369.63" width="29" height="29" fill="black"/>
<rect id="80_3" x="1409.63" y="1401.97" width="29" height="29" fill="black"/>
<rect id="80_2" x="1409.63" y="1434.31" width="29" height="29" fill="black"/>
<rect id="80_1" x="1409.63" y="1466.65" width="29" height="29" fill="black"/>
<rect id="80_0" x="1409.63" y="1498.99" width="29" height="29" fill="black"/>
<rect id="17_3" x="1409.63" y="1531.33" width="29" height="29" fill="black"/>
<rect id="17_2" x="1409.63" y="1563.67" width="29" height="29" fill="black"/>
<rect id="17_1" x="1409.63" y="1596.01" width="29" height="29" fill="black"/>
<rect id="17_0" x="1409.63" y="1628.35" width="29" height="29" fill="black"/>
<rect id="16_3" x="1409.63" y="1660.69" width="29" height="29" fill="black"/>
<rect id="16_2" x="1409.63" y="1693.03" width="29" height="29" fill="black"/>
<rect id="16_1" x="1409.63" y="1725.37" width="29" height="29" fill="black"/>
<rect id="16_0" x="1409.63" y="1757.71" width="29" height="29" fill="black"/>
</g>
<g id="c7">
<rect id="79_3" x="1377.33" y="1272.62" width="29" height="29" fill="black"/>
<rect id="79_2" x="1377.33" y="1304.96" width="29" height="29" fill="black"/>
<rect id="79_1" x="1377.33" y="1337.3" width="29" height="29" fill="black"/>
<rect id="79_0" x="1377.33" y="1369.63" width="29" height="29" fill="black"/>
<rect id="78_3" x="1377.33" y="1401.97" width="29" height="29" fill="black"/>
<rect id="78_2" x="1377.33" y="1434.31" width="29" height="29" fill="black"/>
<rect id="78_1" x="1377.33" y="1466.65" width="29" height="29" fill="black"/>
<rect id="78_0" x="1377.33" y="1498.99" width="29" height="29" fill="black"/>
<rect id="15_3" x="1377.33" y="1531.33" width="29" height="29" fill="black"/>
<rect id="15_2" x="1377.33" y="1563.67" width="29" height="29" fill="black"/>
<rect id="15_1" x="1377.33" y="1596.01" width="29" height="29" fill="black"/>
<rect id="15_0" x="1377.33" y="1628.35" width="29" height="29" fill="black"/>
<rect id="14_3" x="1377.33" y="1660.69" width="29" height="29" fill="black"/>
<rect id="14_2" x="1377.33" y="1693.03" width="29" height="29" fill="black"/>
<rect id="14_1" x="1377.33" y="1725.37" width="29" height="29" fill="black"/>
<rect id="14_0" x="1377.33" y="1757.71" width="29" height="29" fill="black"/>
</g>
<g id="c6">
<rect id="77_3" x="1345.03" y="1272.62" width="29" height="29" fill="black"/>
<rect id="77_2" x="1345.03" y="1304.96" width="29" height="29" fill="black"/>
<rect id="77_1" x="1345.03" y="1337.3" width="29" height="29" fill="black"/>
<rect id="77_0" x="1345.03" y="1369.63" width="29" height="29" fill="black"/>
<rect id="76_3" x="1345.03" y="1401.97" width="29" height="29" fill="black"/>
<rect id="76_2" x="1345.03" y="1434.31" width="29" height="29" fill="black"/>
<rect id="76_1" x="1345.03" y="1466.65" width="29" height="29" fill="black"/>
<rect id="76_0" x="1345.03" y="1498.99" width="29" height="29" fill="black"/>
<rect id="13_3" x="1345.03" y="1531.33" width="29" height="29" fill="black"/>
<rect id="13_2" x="1345.03" y="1563.67" width="29" height="29" fill="black"/>
<rect id="13_1" x="1345.03" y="1596.01" width="29" height="29" fill="black"/>
<rect id="13_0" x="1345.03" y="1628.35" width="29" height="29" fill="black"/>
<rect id="12_3" x="1345.03" y="1660.69" width="29" height="29" fill="black"/>
<rect id="12_2" x="1345.03" y="1693.03" width="29" height="29" fill="black"/>
<rect id="12_1" x="1345.03" y="1725.37" width="29" height="29" fill="black"/>
<rect id="12_0" x="1345.03" y="1757.71" width="29" height="29" fill="black"/>
</g>
<g id="c5">
<rect id="75_3" x="1312.73" y="1272.62" width="29" height="29" fill="black"/>
<rect id="75_2" x="1312.73" y="1304.96" width="29" height="29" fill="black"/>
<rect id="75_1" x="1312.73" y="1337.3" width="29" height="29" fill="black"/>
<rect id="75_0" x="1312.73" y="1369.63" width="29" height="29" fill="black"/>
<rect id="74_3" x="1312.73" y="1401.97" width="29" height="29" fill="black"/>
<rect id="74_2" x="1312.73" y="1434.31" width="29" height="29" fill="black"/>
<rect id="74_1" x="1312.73" y="1466.65" width="29" height="29" fill="black"/>
<rect id="74_0" x="1312.73" y="1498.99" width="29" height="29" fill="black"/>
<rect id="11_3" x="1312.73" y="1531.33" width="29" height="29" fill="black"/>
<rect id="11_2" x="1312.73" y="1563.67" width="29" height="29" fill="black"/>
<rect id="11_1" x="1312.73" y="1596.01" width="29" height="29" fill="black"/>
<rect id="11_0" x="1312.73" y="1628.35" width="29" height="29" fill="black"/>
<rect id="10_3" x="1312.73" y="1660.69" width="29" height="29" fill="black"/>
<rect id="10_2" x="1312.73" y="1693.03" width="29" height="29" fill="black"/>
<rect id="10_1" x="1312.73" y="1725.37" width="29" height="29" fill="black"/>
<rect id="10_0" x="1312.73" y="1757.71" width="29" height="29" fill="black"/>
</g>
<g id="c4">
<rect id="73_3" x="1280.43" y="1272.62" width="29" height="29" fill="black"/>
<rect id="73_2" x="1280.43" y="1304.96" width="29" height="29" fill="black"/>
<rect id="73_1" x="1280.43" y="1337.3" width="29" height="29" fill="black"/>
<rect id="73_0" x="1280.43" y="1369.63" width="29" height="29" fill="black"/>
<rect id="72_3" x="1280.43" y="1401.97" width="29" height="29" fill="black"/>
<rect id="72_2" x="1280.43" y="1434.31" width="29" height="29" fill="black"/>
<rect id="72_1" x="1280.43" y="1466.65" width="29" height="29" fill="black"/>
<rect id="72_0" x="1280.43" y="1498.99" width="29" height="29" fill="black"/>
<rect id="9_3" x="1280.43" y="1531.33" width="29" height="29" fill="black"/>
<rect id="9_2" x="1280.43" y="1563.67" width="29" height="29" fill="black"/>
<rect id="9_1" x="1280.43" y="1596.01" width="29" height="29" fill="black"/>
<rect id="9_0" x="1280.43" y="1628.35" width="29" height="29" fill="black"/>
<rect id="8_3" x="1280.43" y="1660.69" width="29" height="29" fill="black"/>
<rect id="8_2" x="1280.43" y="1693.03" width="29" height="29" fill="black"/>
<rect id="8_1" x="1280.43" y="1725.37" width="29" height="29" fill="black"/>
<rect id="8_0" x="1280.43" y="1757.71" width="29" height="29" fill="black"/>
</g>
<g id="c3">
<rect id="71_3" x="1248.13" y="1272.62" width="29" height="29" fill="black"/>
<rect id="71_2" x="1248.13" y="1304.96" width="29" height="29" fill="black"/>
<rect id="71_1" x="1248.13" y="1337.3" width="29" height="29" fill="black"/>
<rect id="71_0" x="1248.13" y="1369.63" width="29" height="29" fill="black"/>
<rect id="70_3" x="1248.13" y="1401.97" width="29" height="29" fill="black"/>
<rect id="70_2" x="1248.13" y="1434.31" width="29" height="29" fill="black"/>
<rect id="70_1" x="1248.13" y="1466.65" width="29" height="29" fill="black"/>
<rect id="70_0" x="1248.13" y="1498.99" width="29" height="29" fill="black"/>
<rect id="7_3" x="1248.13" y="1531.33" width="29" height="29" fill="black"/>
<rect id="7_2" x="1248.13" y="1563.67" width="29" height="29" fill="black"/>
<rect id="7_1" x="1248.13" y="1596.01" width="29" height="29" fill="black"/>
<rect id="7_0" x="1248.13" y="1628.35" width="29" height="29" fill="black"/>
<rect id="6_3" x="1248.13" y="1660.69" width="29" height="29" fill="black"/>
<rect id="6_2" x="1248.13" y="1693.03" width="29" height="29" fill="black"/>
<rect id="6_1" x="1248.13" y="1725.37" width="29" height="29" fill="black"/>
<rect id="6_0" x="1248.13" y="1757.71" width="29" height="29" fill="black"/>
</g>
<g id="c2">
<rect id="69_3" x="1215.83" y="1272.62" width="29" height="29" fill="black"/>
<rect id="69_2" x="1215.83" y="1304.96" width="29" height="29" fill="black"/>
<rect id="69_1" x="1215.83" y="1337.3" width="29" height="29" fill="black"/>
<rect id="69_0" x="1215.83" y="1369.63" width="29" height="29" fill="black"/>
<rect id="68_3" x="1215.83" y="1401.97" width="29" height="29" fill="black"/>
<rect id="68_2" x="1215.83" y="1434.31" width="29" height="29" fill="black"/>
<rect id="68_1" x="1215.83" y="1466.65" width="29" height="29" fill="black"/>
<rect id="68_0" x="1215.83" y="1498.99" width="29" height="29" fill="black"/>
<rect id="5_3" x="1215.83" y="1531.33" width="29" height="29" fill="black"/>
<rect id="5_2" x="1215.83" y="1563.67" width="29" height="29" fill="black"/>
<rect id="5_1" x="1215.83" y="1596.01" width="29" height="29" fill="black"/>
<rect id="5_0" x="1215.83" y="1628.35" width="29" height="29" fill="black"/>
<rect id="4_3" x="1215.83" y="1660.69" width="29" height="29" fill="black"/>
<rect id="4_2" x="1215.83" y="1693.03" width="29" height="29" fill="black"/>
<rect id="4_1" x="1215.83" y="1725.37" width="29" height="29" fill="black"/>
<rect id="4_0" x="1215.83" y="1757.71" width="29" height="29" fill="black"/>
</g>
<g id="c1">
<rect id="67_3" x="1183.53" y="1272.62" width="29" height="29" fill="black"/>
<rect id="67_2" x="1183.53" y="1304.96" width="29" height="29" fill="black"/>
<rect id="67_1" x="1183.53" y="1337.3" width="29" height="29" fill="black"/>
<rect id="67_0" x="1183.53" y="1369.63" width="29" height="29" fill="black"/>
<rect id="66_3" x="1183.53" y="1401.97" width="29" height="29" fill="black"/>
<rect id="66_2" x="1183.53" y="1434.31" width="29" height="29" fill="black"/>
<rect id="66_1" x="1183.53" y="1466.65" width="29" height="29" fill="black"/>
<rect id="66_0" x="1183.53" y="1498.99" width="29" height="29" fill="black"/>
<rect id="3_3" x="1183.53" y="1531.33" width="29" height="29" fill="black"/>
<rect id="3_2" x="1183.53" y="1563.67" width="29" height="29" fill="black"/>
<rect id="3_1" x="1183.53" y="1596.01" width="29" height="29" fill="black"/>
<rect id="3_0" x="1183.53" y="1628.35" width="29" height="29" fill="black"/>
<rect id="2_3" x="1183.53" y="1660.69" width="29" height="29" fill="black"/>
<rect id="2_2" x="1183.53" y="1693.03" width="29" height="29" fill="black"/>
<rect id="2_1" x="1183.53" y="1725.37" width="29" height="29" fill="black"/>
<rect id="2_0" x="1183.53" y="1757.71" width="29" height="29" fill="black"/>
</g>
<g id="1_3">
<path fill-rule="evenodd" clip-rule="evenodd" d="M1231.76 1854.47H1244.84V1881.97L1299.87 1937.45C1301.12 1938.71 1300.23 1940.86 1298.45 1940.86H1275.17C1275.17 1940.86 1270.01 1971.98 1238.3 1971.9C1206.6 1971.82 1201.13 1940.86 1201.13 1940.86H1178.74C1176.97 1940.86 1176.07 1938.72 1177.32 1937.46L1231.76 1882.19V1854.47ZM1210.31 1942.07C1211.86 1946.81 1218.76 1963.81 1238.3 1963.58C1257.83 1963.35 1264.33 1946.7 1265.76 1942.05C1265.95 1941.44 1265.49 1940.86 1264.84 1940.86H1224.62C1223.67 1940.86 1223.02 1941.72 1223.44 1942.57C1224.01 1943.72 1225.04 1945.34 1226.87 1947.08C1229.19 1949.29 1231.5 1950.66 1232.8 1951.34C1233.35 1951.62 1233.57 1952.33 1233.24 1952.86L1231.63 1955.41C1231.09 1956.27 1229.99 1956.58 1229.11 1956.07C1227.26 1954.99 1224.12 1952.94 1221.59 1950.16C1217.75 1945.94 1216.23 1940.86 1216.23 1940.86H1211.23C1210.58 1940.86 1210.11 1941.45 1210.31 1942.07Z" fill="black"/>
<path d="M1194.18 1953.08L1176.7 1957.61L1175.11 1951.48L1192.59 1946.94C1193.12 1946.81 1193.67 1947.13 1193.81 1947.66L1194.89 1951.86C1195.03 1952.4 1194.71 1952.94 1194.18 1953.08Z" fill="black"/>
<path d="M1282.37 1953.13L1299.85 1957.66L1301.44 1951.52L1283.96 1946.99C1283.42 1946.85 1282.88 1947.17 1282.74 1947.71L1281.65 1951.91C1281.51 1952.44 1281.83 1952.99 1282.37 1953.13Z" fill="black"/>
<path d="M1290.51 1974.36L1275.82 1963.86C1275.37 1963.54 1275.27 1962.91 1275.59 1962.46L1278.11 1958.93C1278.43 1958.48 1279.06 1958.38 1279.51 1958.7L1294.19 1969.21L1290.51 1974.36Z" fill="black"/>
<path d="M1266.22 1974.09L1277.97 1987.8L1282.78 1983.68L1271.03 1969.97C1270.68 1969.55 1270.04 1969.5 1269.62 1969.86L1266.33 1972.68C1265.91 1973.04 1265.86 1973.67 1266.22 1974.09Z" fill="black"/>
<path d="M1250.87 1981.52L1258.32 1997.96L1264.09 1995.35L1256.64 1978.9C1256.41 1978.4 1255.82 1978.17 1255.32 1978.4L1251.36 1980.19C1250.86 1980.42 1250.64 1981.01 1250.87 1981.52Z" fill="black"/>
<path d="M1218.6 1997.25L1226.05 1980.81C1226.28 1980.3 1226.06 1979.71 1225.55 1979.48L1221.6 1977.69C1221.1 1977.46 1220.51 1977.69 1220.28 1978.19L1212.82 1994.64L1218.6 1997.25Z" fill="black"/>
<path d="M1211.82 1974.2L1200.07 1987.91L1195.26 1983.79L1207 1970.07C1207.36 1969.65 1207.99 1969.61 1208.41 1969.97L1211.71 1972.79C1212.13 1973.15 1212.18 1973.78 1211.82 1974.2Z" fill="black"/>
<path d="M1185.66 1974.3L1200.34 1963.79C1200.79 1963.47 1200.9 1962.85 1200.58 1962.4L1198.05 1958.87C1197.73 1958.42 1197.11 1958.32 1196.66 1958.64L1181.97 1969.14L1185.66 1974.3Z" fill="black"/>
<path d="M1235.19 2000.38V1982.32C1235.19 1981.77 1235.63 1981.32 1236.19 1981.32H1240.52C1241.08 1981.32 1241.52 1981.77 1241.52 1982.32V2000.38H1235.19Z" fill="black"/>
</g>
<g id="1_2">
<path d="M1369.65 1932.3H1391.68C1391.68 1932.3 1391.54 1929.9 1391.54 1927.5C1391.54 1925.09 1391.68 1922.7 1391.68 1922.7H1369.65C1368.82 1922.7 1368.15 1923.37 1368.15 1924.2V1930.8C1368.15 1931.63 1368.82 1932.3 1369.65 1932.3Z" fill="black"/>
<path d="M1378.01 1895.72L1397.15 1906.63C1397.15 1906.63 1398.21 1904.48 1399.4 1902.39C1400.59 1900.3 1401.91 1898.3 1401.91 1898.3L1382.77 1887.38C1382.05 1886.97 1381.13 1887.22 1380.72 1887.94L1377.45 1893.67C1377.04 1894.39 1377.29 1895.31 1378.01 1895.72Z" fill="black"/>
<path d="M1376.93 1963.4L1396.27 1952.85C1396.27 1952.85 1397.29 1955.03 1398.44 1957.14C1399.59 1959.25 1400.87 1961.28 1400.87 1961.28L1381.52 1971.83C1380.79 1972.23 1379.88 1971.96 1379.49 1971.23L1376.33 1965.44C1375.93 1964.71 1376.2 1963.8 1376.93 1963.4Z" fill="black"/>
<path d="M1404.01 1995.41L1414.24 1975.9C1414.24 1975.9 1416.29 1977.14 1418.42 1978.25C1420.55 1979.37 1422.74 1980.35 1422.74 1980.35L1412.51 1999.87C1412.12 2000.6 1411.22 2000.88 1410.48 2000.5L1404.64 1997.44C1403.9 1997.05 1403.62 1996.14 1404.01 1995.41Z" fill="black"/>
<path d="M1403.76 1866.73L1414.25 1886.11C1414.25 1886.11 1416.29 1884.84 1418.4 1883.7C1420.51 1882.56 1422.69 1881.54 1422.69 1881.54L1412.21 1862.16C1411.81 1861.44 1410.9 1861.16 1410.17 1861.56L1404.37 1864.7C1403.64 1865.09 1403.37 1866 1403.76 1866.73Z" fill="black"/>
<path d="M1514.89 1894.15L1495.5 1904.61C1495.5 1904.61 1494.49 1902.43 1493.35 1900.32C1492.2 1898.21 1490.94 1896.17 1490.94 1896.17L1510.33 1885.7C1511.06 1885.31 1511.97 1885.58 1512.36 1886.31L1515.49 1892.12C1515.89 1892.85 1515.62 1893.76 1514.89 1894.15Z" fill="black"/>
<path d="M1486.33 1864.36L1476.37 1884.01C1476.37 1884.01 1474.3 1882.79 1472.15 1881.71C1470.01 1880.62 1467.81 1879.67 1467.81 1879.67L1477.77 1860.02C1478.14 1859.28 1479.05 1858.98 1479.78 1859.36L1485.67 1862.34C1486.41 1862.71 1486.71 1863.62 1486.33 1864.36Z" fill="black"/>
<path d="M1439.03 1854V1876.04C1439.03 1876.04 1441.43 1875.89 1443.83 1875.89C1446.23 1875.89 1448.63 1876.04 1448.63 1876.04V1854C1448.63 1853.17 1447.96 1852.5 1447.13 1852.5H1440.53C1439.7 1852.5 1439.03 1853.17 1439.03 1854Z" fill="black"/>
<path d="M1476.76 1927.67C1464.6 1928.55 1460.79 1937.78 1460.79 1937.78C1460.79 1937.78 1454.76 1932.08 1446.7 1933.46C1438.64 1934.83 1433.22 1941.1 1432.67 1948.26C1432.12 1955.42 1434.56 1963.56 1444.51 1968.39C1454.45 1973.23 1460.84 1967.52 1460.84 1967.52C1460.84 1967.52 1463.14 1975.39 1469.23 1979.09C1475.32 1982.78 1483.07 1982.44 1487.18 1981.22C1491.28 1979.99 1493.7 1976.08 1495.75 1976.34C1497.8 1976.6 1499.67 1979.8 1502.77 1981.22C1505.88 1982.64 1511.11 1981.63 1513.54 1980.57C1515.96 1979.51 1520.43 1975.78 1521.5 1975.44C1522.57 1975.1 1529.52 1975.01 1530.73 1975.14C1531.94 1975.27 1537.43 1980.02 1546.56 1976.53C1555.68 1973.05 1554.36 1962.54 1552.34 1957.28C1550.31 1952.02 1544.15 1950.51 1543.76 1949.24C1543.37 1947.98 1545.76 1944.11 1545.03 1939.1C1544.29 1934.1 1540.76 1925.75 1527.03 1923.81C1513.3 1921.88 1509.21 1924.04 1503.88 1927.39C1498.54 1930.74 1495.42 1938.01 1495.42 1938.01C1495.42 1938.01 1488.92 1926.79 1476.76 1927.67Z" fill="black"/>
<path d="M1447 1886.21C1422.34 1886.21 1402.35 1906.2 1402.35 1930.86C1402.35 1952.55 1418.57 1970.64 1439.17 1974.67C1440.02 1974.84 1440.45 1973.68 1439.74 1973.18C1437.77 1971.81 1435.24 1969.87 1433.19 1967.68C1429.83 1964.09 1428.16 1960.91 1427.71 1960C1427.63 1959.83 1427.5 1959.69 1427.35 1959.58C1418.2 1953.31 1412.2 1942.78 1412.2 1930.86C1412.2 1911.64 1427.78 1896.06 1447 1896.06C1462.24 1896.06 1475.27 1906.09 1479.98 1919.74C1480.11 1920.11 1480.43 1920.38 1480.82 1920.44C1481.82 1920.58 1483.83 1920.93 1485.66 1921.52C1487.34 1922.07 1489.16 1922.93 1490.22 1923.47C1490.59 1923.65 1491.02 1923.34 1490.95 1922.93C1487.21 1902.05 1468.96 1886.21 1447 1886.21Z" fill="black"/>
</g>
<g id="1_1">
<path fill-rule="evenodd" clip-rule="evenodd" d="M1658 1954.66H1703.54C1704.14 1954.66 1704.7 1954.97 1705.03 1955.48C1705.35 1955.98 1705.91 1956.29 1706.51 1956.29H1754.4C1754.4 1956.29 1764.66 1964.66 1764.68 1978.47C1764.7 1992.28 1754.4 1999 1754.4 1999H1706.35C1705.84 1999 1705.35 1999.22 1705.03 1999.62C1704.7 2000.01 1704.21 2000.24 1703.7 2000.24H1655.47C1655.47 2000.24 1646.85 1992.21 1646.85 1976.74C1646.85 1961.28 1658 1954.66 1658 1954.66ZM1705.55 1966.56V1988.53C1705.55 1989.08 1706 1989.53 1706.55 1989.53H1749.71C1749.71 1989.53 1754.56 1987.97 1754.56 1978.08C1754.56 1968.2 1749.71 1965.56 1749.71 1965.56H1706.55C1706 1965.56 1705.55 1966.01 1705.55 1966.56Z" fill="black"/>
<path fill-rule="evenodd" clip-rule="evenodd" d="M1602.33 1921.28L1634.29 1888.96C1634.72 1888.53 1635.33 1888.35 1635.93 1888.49C1636.52 1888.62 1637.14 1888.45 1637.56 1888.02L1671.17 1854.03C1671.17 1854.03 1684.45 1852.76 1694.51 1862.68C1704.58 1872.6 1702.23 1884.74 1702.23 1884.74L1668.51 1918.84C1668.15 1919.2 1667.97 1919.71 1668.03 1920.23C1668.08 1920.75 1667.91 1921.25 1667.55 1921.62L1633.7 1955.85C1633.7 1955.85 1621.81 1956.19 1610.57 1945.07C1599.32 1933.95 1602.33 1921.28 1602.33 1921.28ZM1644.36 1896.08L1660.33 1911.88C1660.73 1912.28 1661.37 1912.28 1661.76 1911.89L1692.05 1881.26C1692.05 1881.26 1694.32 1876.69 1687.13 1869.59C1679.94 1862.48 1674.62 1864.03 1674.62 1864.03L1644.33 1894.66C1643.94 1895.05 1643.96 1895.69 1644.36 1896.08Z" fill="black"/>
</g>
<g id="1_0">
<path fill-rule="evenodd" clip-rule="evenodd" d="M1860.08 1867.55L1856.54 1871.34C1854.68 1873.33 1852.08 1874.46 1849.36 1874.46C1843.94 1874.46 1839.54 1878.85 1839.54 1884.28V1990.4C1839.54 1996.48 1844.47 2001.4 1850.54 2001.4H1959.72C1965.8 2001.4 1970.72 1996.48 1970.72 1990.4V1883C1970.72 1878.28 1966.9 1874.46 1962.18 1874.46C1960.13 1874.46 1958.14 1873.72 1956.59 1872.37L1950.58 1867.18C1949.68 1866.39 1948.51 1865.96 1947.31 1865.96H1931.06C1929.58 1865.96 1928.18 1865.3 1927.23 1864.17L1919.11 1854.47C1918.16 1853.33 1916.75 1852.68 1915.27 1852.68H1894.79C1893.24 1852.68 1891.77 1853.4 1890.82 1854.64L1883.67 1864C1882.72 1865.23 1881.25 1865.96 1879.7 1865.96H1863.73C1862.35 1865.96 1861.02 1866.53 1860.08 1867.55ZM1877.04 1873.61H1866.37C1864.03 1873.61 1862.13 1875.51 1862.13 1877.85C1862.13 1880.19 1864.03 1882.08 1866.37 1882.08H1944.37C1946.71 1882.08 1948.61 1880.19 1948.61 1877.85C1948.61 1875.51 1946.71 1873.61 1944.37 1873.61H1934.04C1928.99 1873.61 1924.18 1871.49 1920.77 1867.77L1914.81 1861.28C1913.87 1860.24 1912.53 1859.65 1911.13 1859.65H1898.9C1897.3 1859.65 1895.79 1860.42 1894.85 1861.72L1891.6 1866.19C1888.21 1870.85 1882.8 1873.61 1877.04 1873.61ZM1856.12 1990.93H1954.6C1957.91 1990.93 1960.6 1988.24 1960.6 1984.93V1883.72C1960.6 1882.09 1959.27 1880.77 1957.64 1880.77C1956.44 1880.77 1955.35 1881.5 1954.9 1882.62L1952.55 1888.51C1952.24 1889.27 1951.51 1889.77 1950.69 1889.77H1860.34C1859.63 1889.77 1858.97 1889.39 1858.62 1888.78L1854.65 1881.97C1854.21 1881.23 1853.41 1880.77 1852.55 1880.77C1851.21 1880.77 1850.12 1881.85 1850.12 1883.19V1984.93C1850.12 1988.24 1852.81 1990.93 1856.12 1990.93Z" fill="black"/>
<path d="M1908.17 1868.53C1908.17 1870.08 1906.78 1871.33 1905.05 1871.33C1903.33 1871.33 1901.94 1870.08 1901.94 1868.53C1901.94 1866.99 1903.33 1865.73 1905.05 1865.73C1906.78 1865.73 1908.17 1866.99 1908.17 1868.53Z" fill="black"/>
<path d="M1944.63 1902.51H1866.79C1866.24 1902.51 1865.79 1902.96 1865.79 1903.51V1909.08C1865.79 1909.63 1866.24 1910.08 1866.79 1910.08H1944.63V1902.51Z" fill="black"/>
<path d="M1944.86 1924.26H1867.02C1866.47 1924.26 1866.02 1924.71 1866.02 1925.26V1930.83C1866.02 1931.38 1866.47 1931.83 1867.02 1931.83H1944.86V1924.26Z" fill="black"/>
<path d="M1944.92 1946.02H1867.08C1866.53 1946.02 1866.08 1946.46 1866.08 1947.02V1952.58C1866.08 1953.13 1866.53 1953.58 1867.08 1953.58H1944.92V1946.02Z" fill="black"/>
<path d="M1944.83 1967.77H1866.99C1866.44 1967.77 1865.99 1968.21 1865.99 1968.77V1974.33C1865.99 1974.88 1866.44 1975.33 1866.99 1975.33H1944.83V1967.77Z" fill="black"/>
</g>
<path id="0_3" fill-rule="evenodd" clip-rule="evenodd" d="M2199.85 1884.66C2199.85 1901.78 2185.76 1915.67 2168.38 1915.67C2165.65 1915.67 2163 1915.33 2160.47 1914.68C2159.42 1914.41 2158.45 1915.69 2159.02 1916.61C2164.26 1925.08 2167.27 1935.03 2167.27 1945.69C2167.27 1976.41 2142.21 2001.31 2111.28 2001.31C2080.36 2001.31 2055.29 1976.41 2055.29 1945.69C2055.29 1936.38 2057.6 1927.61 2061.67 1919.89C2062.12 1919.04 2061.35 1917.99 2060.39 1918.13C2058.8 1918.38 2057.16 1918.51 2055.49 1918.51C2038.11 1918.51 2024.02 1904.62 2024.02 1887.5C2024.02 1870.37 2038.11 1856.49 2055.49 1856.49C2072.88 1856.49 2086.97 1870.37 2086.97 1887.5C2086.97 1888.91 2086.87 1890.29 2086.69 1891.65C2086.45 1893.39 2088.32 1894.93 2089.94 1894.26C2096.52 1891.57 2103.73 1890.08 2111.28 1890.08C2119.39 1890.08 2127.1 1891.79 2134.05 1894.87C2135.86 1895.67 2138.17 1893.61 2137.72 1891.68C2137.19 1889.43 2136.91 1887.07 2136.91 1884.66C2136.91 1867.53 2151 1853.65 2168.38 1853.65C2185.76 1853.65 2199.85 1867.53 2199.85 1884.66ZM2103.69 1911.93C2103.69 1907.71 2107.11 1904.3 2111.33 1904.3C2115.55 1904.3 2118.96 1907.71 2118.96 1911.93V1953.51C2118.96 1957.73 2115.55 1961.15 2111.33 1961.15C2107.11 1961.15 2103.69 1957.73 2103.69 1953.51V1911.93ZM2111.33 1986.45C2115.55 1986.45 2118.96 1983.03 2118.96 1978.81C2118.96 1974.6 2115.55 1971.18 2111.33 1971.18C2107.11 1971.18 2103.69 1974.6 2103.69 1978.81C2103.69 1983.03 2107.11 1986.45 2111.33 1986.45Z" fill="black"/>
<g id="65_3">
<path d="M1335.63 1108.36L1188.42 1108.36V1087.18C1188.42 1071.17 1201.4 1058.18 1217.42 1058.18L1306.63 1058.18C1322.64 1058.18 1335.63 1071.17 1335.63 1087.18V1108.36Z" fill="black"/>
<path d="M1335.63 1169.11L1188.42 1169.11V1177.3C1188.42 1193.32 1201.4 1206.3 1217.42 1206.3L1306.63 1206.3C1322.64 1206.3 1335.63 1193.32 1335.63 1177.3V1169.11Z" fill="black"/>
<path d="M1174.1 1141.04C1174.1 1131.1 1182.15 1123.04 1192.1 1123.04H1333.77C1342.55 1123.04 1349.68 1130.16 1349.68 1138.95C1349.68 1147.74 1342.55 1154.86 1333.77 1154.86H1185.1C1179.02 1154.86 1174.1 1149.94 1174.1 1143.86V1141.04Z" fill="black"/>
</g>
<g id="65_2">
<path d="M1545.93 1086.04L1520 1058.86C1518.52 1057.31 1516.07 1057.2 1514.46 1058.62L1502.06 1069.55C1501.41 1070.12 1500.59 1070.47 1499.72 1070.54C1496.75 1070.78 1489.38 1071.44 1483.22 1072.35C1475.32 1073.53 1467.41 1077.04 1466.11 1077.75C1464.81 1078.45 1455.43 1082.81 1455.43 1093.3C1455.43 1100.55 1459.87 1104.57 1462.6 1106.35C1463.65 1107.03 1464.12 1108.49 1463.64 1109.64C1462.32 1112.86 1460.8 1119.07 1465.81 1124.09C1471.36 1129.63 1477.36 1127.57 1479.71 1126.41C1480.06 1126.24 1480.53 1126.6 1480.45 1126.97C1479.86 1129.79 1479.1 1137.12 1486.02 1140.9C1492.94 1144.66 1498.59 1139.5 1500.61 1137.23C1500.82 1136.99 1501.32 1137.2 1501.31 1137.52C1501.22 1139.88 1501.56 1145.08 1505.6 1148.59C1510.92 1153.19 1516.72 1150.41 1517.84 1149.87L1517.88 1149.85C1518.9 1149.36 1531.02 1139.62 1533.49 1137.36C1535.96 1135.1 1540.3 1130.38 1539.85 1121.03C1539.59 1115.71 1537.83 1110.59 1536.36 1107.18C1535.27 1104.65 1535.68 1101.63 1537.64 1099.7L1545.84 1091.65C1547.4 1090.12 1547.44 1087.62 1545.93 1086.04Z" fill="black"/>
<path d="M1425.35 1212.84L1398.89 1184.52C1397.07 1182.57 1397.1 1179.54 1398.95 1177.63L1409.55 1166.69C1410.91 1165.29 1411.06 1163.09 1410.17 1161.36C1408.69 1158.49 1406.84 1153.78 1407.12 1148.51C1407.59 1139.89 1412.36 1131.77 1412.98 1131.03C1413.6 1130.3 1423.29 1117.49 1432.85 1120.12C1439.81 1122.03 1441.28 1127.52 1441.56 1130.36C1441.64 1131.13 1442.5 1131.71 1443.23 1131.45C1446.58 1130.24 1454.35 1128.26 1459.37 1133.52C1464.45 1138.83 1464.24 1143.38 1463.89 1145.15C1463.83 1145.47 1464.15 1145.81 1464.48 1145.75C1467.12 1145.2 1475.67 1144.07 1479.44 1151.38C1482.88 1158.06 1478.86 1162.74 1476.81 1164.56C1476.57 1164.77 1476.78 1165.39 1477.1 1165.43C1478.82 1165.66 1481.84 1166.7 1484.12 1170.92C1487.5 1177.15 1484.17 1182.17 1483.39 1183.08C1482.6 1183.99 1470.76 1193.89 1468.36 1195.73C1465.95 1197.58 1460.15 1201.33 1451.99 1202.64C1447.44 1203.37 1444.19 1203.41 1442.2 1203.31C1440.74 1203.23 1439.24 1203.73 1438.27 1204.82L1431.27 1212.76C1429.71 1214.53 1426.96 1214.57 1425.35 1212.84Z" fill="black"/>
</g>
<g id="65_1">
<path fill-rule="evenodd" clip-rule="evenodd" d="M1628.82 1057.73C1611.14 1057.73 1596.82 1072.05 1596.82 1089.73V1174.84C1596.82 1192.51 1611.14 1206.84 1628.82 1206.84H1738.26C1755.93 1206.84 1770.26 1192.51 1770.26 1174.84V1089.73C1770.26 1072.05 1755.93 1057.73 1738.26 1057.73H1628.82ZM1634.98 1070.92C1624.21 1070.92 1615.48 1079.65 1615.48 1090.42V1155.38C1615.48 1166.15 1624.21 1174.88 1634.98 1174.88H1732.09C1742.86 1174.88 1751.59 1166.15 1751.59 1155.38V1090.42C1751.59 1079.65 1742.86 1070.92 1732.09 1070.92H1634.98ZM1641.48 1190.89C1641.48 1195.72 1637.56 1199.64 1632.73 1199.64C1627.89 1199.64 1623.98 1195.72 1623.98 1190.89C1623.98 1186.05 1627.89 1182.14 1632.73 1182.14C1637.56 1182.14 1641.48 1186.05 1641.48 1190.89ZM1665.42 1199.64C1670.26 1199.64 1674.17 1195.72 1674.17 1190.89C1674.17 1186.05 1670.26 1182.14 1665.42 1182.14C1660.59 1182.14 1656.67 1186.05 1656.67 1190.89C1656.67 1195.72 1660.59 1199.64 1665.42 1199.64ZM1721.05 1190.89C1721.05 1195.72 1717.13 1199.64 1712.3 1199.64C1707.47 1199.64 1703.55 1195.72 1703.55 1190.89C1703.55 1186.05 1707.47 1182.14 1712.3 1182.14C1717.13 1182.14 1721.05 1186.05 1721.05 1190.89ZM1742.68 1199.64C1747.51 1199.64 1751.43 1195.72 1751.43 1190.89C1751.43 1186.05 1747.51 1182.14 1742.68 1182.14C1737.85 1182.14 1733.93 1186.05 1733.93 1190.89C1733.93 1195.72 1737.85 1199.64 1742.68 1199.64Z" fill="black"/>
<path d="M1725.78 1105.19C1725.78 1113.59 1718.97 1120.39 1710.56 1120.39C1710.53 1120.39 1710.49 1120.39 1710.45 1120.39C1708.88 1120.38 1706.38 1123.63 1706.99 1125.07C1708.45 1128.5 1709.26 1132.32 1709.26 1136.35C1709.26 1151.17 1698.25 1163.19 1684.67 1163.19C1671.09 1163.19 1660.08 1151.17 1660.08 1136.35C1660.08 1132.45 1660.83 1128.75 1662.2 1125.41C1662.82 1123.9 1660.49 1120.99 1658.86 1121.05C1658.66 1121.06 1658.47 1121.06 1658.27 1121.06C1649.75 1121.06 1642.84 1114.19 1642.84 1105.7C1642.84 1097.22 1649.75 1090.35 1658.27 1090.35C1666.79 1090.35 1673.7 1097.22 1673.7 1105.7C1673.7 1106.28 1673.67 1106.84 1673.6 1107.4C1673.44 1108.91 1675.98 1111.17 1677.42 1110.68C1679.71 1109.91 1682.15 1109.5 1684.67 1109.5C1687.05 1109.5 1689.34 1109.87 1691.52 1110.55C1692.9 1110.99 1695.63 1108.48 1695.46 1107.04C1695.38 1106.44 1695.35 1105.82 1695.35 1105.19C1695.35 1096.79 1702.16 1089.99 1710.56 1089.99C1718.97 1089.99 1725.78 1096.79 1725.78 1105.19Z" fill="black"/>
</g>
<g id="65_0">
<path fill-rule="evenodd" clip-rule="evenodd" d="M1822.7 1069.82V1201.57C1822.7 1202.32 1823.5 1202.81 1824.18 1202.51C1829.38 1200.17 1847.91 1192.69 1871.98 1192.69C1897.71 1192.69 1915.52 1200.99 1918.77 1202.62C1919.1 1202.79 1919.48 1202.77 1919.8 1202.58C1922.63 1200.85 1937.22 1192.69 1960.63 1192.69C1981.79 1192.69 1995.96 1200.59 2000.62 1203.62C2001.32 1204.08 2002.3 1203.57 2002.3 1202.74V1071.19C2002.3 1070.84 2002.13 1070.52 2001.82 1070.34C1998.6 1068.48 1979.41 1057.97 1957.55 1057.98C1936.86 1057.99 1923.02 1064.27 1919.61 1066C1919.08 1066.27 1918.48 1066.32 1917.92 1066.12C1913.56 1064.59 1893.43 1057.98 1871.7 1057.98C1849.34 1057.98 1827.12 1067.25 1823.28 1068.93C1822.93 1069.08 1822.7 1069.43 1822.7 1069.82ZM1832.42 1077.35V1187.38C1832.42 1188.11 1833.18 1188.61 1833.86 1188.35C1838.05 1186.78 1851.32 1182.5 1872.01 1182.5C1895.29 1182.5 1915.88 1190.15 1919.14 1191.42C1919.43 1191.53 1919.74 1191.51 1920.01 1191.36C1922.66 1189.92 1937.3 1182.5 1958.34 1182.5C1976.4 1182.51 1986.81 1186.72 1990.58 1188.61C1991.29 1188.97 1992.2 1188.45 1992.2 1187.65V1077.33C1992.2 1077.01 1992.06 1076.72 1991.8 1076.55C1989.54 1075.06 1977.79 1068.12 1955.19 1068.12C1934.74 1068.12 1923.37 1074.87 1919.76 1077.47C1918.99 1078.02 1917.93 1078.08 1917.11 1077.59C1912.92 1075.1 1899 1068.12 1874.62 1068.12C1848.1 1068.12 1835.28 1075.07 1832.86 1076.55C1832.58 1076.72 1832.42 1077.02 1832.42 1077.35Z" fill="black"/>
<path d="M1879.87 1088.82C1858.81 1087.67 1844.88 1093.74 1842.06 1095.1C1841.73 1095.26 1841.53 1095.59 1841.53 1095.96V1104.46C1841.53 1105.22 1842.35 1105.73 1843.04 1105.4C1847.6 1103.24 1862.09 1097.24 1879.87 1098.63C1899.1 1100.13 1915.42 1109.95 1918.77 1112.09C1919.15 1112.33 1919.63 1112.3 1919.99 1112.03C1922.57 1110.06 1933.54 1102.46 1951.72 1100.31C1967.36 1098.46 1977.64 1100.7 1981.84 1101.95C1982.87 1102.26 1983.99 1101.49 1983.99 1100.41V1092.95C1983.99 1092.27 1983.53 1091.68 1982.87 1091.53C1979.15 1090.72 1966.55 1088.43 1950.23 1090.31C1933.2 1092.26 1922.44 1098.4 1919.95 1099.95C1919.61 1100.17 1919.19 1100.18 1918.84 1099.97C1915.84 1098.19 1900.96 1089.97 1879.87 1088.82Z" fill="black"/>
<path d="M1879.92 1117.49C1858.82 1116.35 1844.86 1122.42 1842.04 1123.77C1841.71 1123.93 1841.51 1124.26 1841.51 1124.63V1133.14C1841.51 1133.9 1842.33 1134.4 1843.01 1134.08C1847.58 1131.91 1862.11 1125.91 1879.92 1127.3C1899.17 1128.8 1915.5 1138.6 1918.89 1140.75C1919.27 1141 1919.76 1140.96 1920.12 1140.68C1922.69 1138.64 1933.57 1130.83 1951.76 1128.68C1967.44 1126.84 1977.82 1129.24 1982.06 1130.58C1983.1 1130.9 1984.24 1130.13 1984.24 1129.04V1121.6C1984.24 1120.93 1983.8 1120.34 1983.14 1120.19C1979.43 1119.32 1966.67 1116.8 1950.27 1118.68C1933.23 1120.63 1922.57 1126.98 1920.09 1128.6C1919.74 1128.83 1919.31 1128.84 1918.95 1128.63C1915.92 1126.84 1901.02 1118.64 1879.92 1117.49Z" fill="black"/>
<path d="M1879.89 1145.83C1858.8 1144.68 1844.86 1150.75 1842.04 1152.1C1841.71 1152.26 1841.51 1152.6 1841.51 1152.97V1161.47C1841.51 1162.23 1842.33 1162.74 1843.01 1162.41C1847.58 1160.25 1862.09 1154.25 1879.89 1155.63C1899.14 1157.13 1915.48 1166.96 1918.82 1169.09C1919.2 1169.34 1919.68 1169.31 1920.04 1169.03C1922.63 1167.06 1933.61 1159.47 1951.81 1157.32C1967.47 1155.47 1977.75 1157.71 1981.95 1158.96C1982.99 1159.27 1984.1 1158.5 1984.1 1157.42V1149.96C1984.1 1149.27 1983.65 1148.68 1982.98 1148.54C1979.27 1147.73 1966.65 1145.44 1950.31 1147.32C1933.27 1149.27 1922.5 1155.41 1920.01 1156.96C1919.66 1157.17 1919.24 1157.18 1918.89 1156.98C1915.89 1155.2 1901 1146.97 1879.89 1145.83Z" fill="black"/>
</g>
<g id="64_3">
<path d="M2200.37 1062.56L2194.99 1058.19C2194.58 1057.85 2193.98 1057.9 2193.62 1058.29L2177.82 1075.6C2177.25 1076.22 2176.44 1076.58 2175.6 1076.58H2110.71C2110.14 1076.58 2109.6 1076.83 2109.22 1077.25L2106.63 1080.18C2105.92 1080.98 2105.97 1082.2 2106.74 1082.95L2182.48 1155.63C2183.27 1156.39 2184.52 1156.37 2185.29 1155.59L2188.73 1152.1C2189.14 1151.69 2189.35 1151.13 2189.3 1150.56L2184.56 1084.06C2184.51 1083.28 2184.76 1082.5 2185.27 1081.9L2200.5 1063.98C2200.87 1063.55 2200.81 1062.91 2200.37 1062.56Z" fill="black"/>
<path d="M2163.21 1149.5L2155.67 1142.59L2137.88 1162.16L2145.33 1169.09L2163.21 1149.5Z" fill="black"/>
<path d="M2178.1 1163.04L2170.55 1156.13L2152.77 1175.7L2160.21 1182.63L2178.1 1163.04Z" fill="black"/>
<path d="M2147.99 1135.09L2140.44 1128.18L2122.66 1147.74L2130.1 1154.68L2147.99 1135.09Z" fill="black"/>
<path d="M2134.21 1121.37L2126.66 1114.46L2108.88 1134.02L2116.32 1140.95L2134.21 1121.37Z" fill="black"/>
<path d="M2120.2 1107.99L2112.66 1101.08L2094.87 1120.65L2102.32 1127.58L2120.2 1107.99Z" fill="black"/>
<path d="M2104.99 1093.69L2097.44 1086.79L2079.66 1106.35L2087.1 1113.28L2104.99 1093.69Z" fill="black"/>
<path d="M2138.54 1175.66L2130.99 1168.75L2113.21 1188.32L2120.65 1195.25L2138.54 1175.66Z" fill="black"/>
<path d="M2153.42 1189.2L2145.87 1182.29L2128.09 1201.86L2135.53 1208.79L2153.42 1189.2Z" fill="black"/>
<path d="M2123.32 1161.25L2115.77 1154.34L2097.99 1173.91L2105.43 1180.84L2123.32 1161.25Z" fill="black"/>
<path d="M2109.54 1147.53L2101.99 1140.62L2084.21 1160.19L2091.65 1167.12L2109.54 1147.53Z" fill="black"/>
<path d="M2095.53 1134.15L2087.98 1127.24L2070.2 1146.81L2077.64 1153.74L2095.53 1134.15Z" fill="black"/>
<path d="M2080.32 1119.86L2072.77 1112.95L2054.99 1132.52L2062.43 1139.45L2080.32 1119.86Z" fill="black"/>
</g>
</g>
<defs>
<linearGradient id="paint0_linear_0_1" x1="1690.83" y1="519.159" x2="1690.83" y2="710.406" gradientUnits="userSpaceOnUse">
<stop stop-color="#004A93"/>
<stop offset="0.234269" stop-color="#003C76"/>
</linearGradient>
<linearGradient id="paint1_linear_0_1" x1="1690.05" y1="0.157471" x2="1690.05" y2="2773.58" gradientUnits="userSpaceOnUse">
<stop offset="0.211522" stop-color="#004384"/>
<stop offset="0.4697" stop-color="#003568"/>
<stop offset="0.602548" stop-color="#004384"/>
<stop offset="0.684708" stop-color="#004384"/>
<stop offset="0.797258" stop-color="#003568"/>
</linearGradient>
<linearGradient id="paint2_linear_0_1" x1="1686.94" y1="973.123" x2="1686.94" y2="2092.49" gradientUnits="userSpaceOnUse">
<stop offset="0.238317" stop-color="#827F8C"/>
<stop offset="0.23887" stop-color="#B9BEB5"/>
<stop offset="0.76" stop-color="#B9BEB5"/>
<stop offset="0.760213" stop-color="#827F8C"/>
</linearGradient>
<linearGradient id="paint3_linear_0_1" x1="1686.94" y1="973.123" x2="1686.94" y2="2092.49" gradientUnits="userSpaceOnUse">
<stop stop-opacity="0.1"/>
<stop offset="0.0418531" stop-opacity="0.07"/>
<stop offset="0.964028" stop-opacity="0.07"/>
<stop offset="1" stop-opacity="0.03"/>
</linearGradient>
<linearGradient id="paint4_linear_0_1" x1="1687.11" y1="955.411" x2="1687.11" y2="2110.71" gradientUnits="userSpaceOnUse">
<stop offset="0.0216316" stop-color="#003262"/>
<stop offset="0.0580083" stop-color="#003F7C"/>
<stop offset="0.960969" stop-color="#003F7C"/>
<stop offset="1" stop-color="#00478C"/>
</linearGradient>
<linearGradient id="paint5_linear_0_1" x1="599.816" y1="264.865" x2="599.816" y2="1050.86" gradientUnits="userSpaceOnUse">
<stop stop-color="#003467"/>
<stop offset="1" stop-color="#00407E"/>
</linearGradient>
<linearGradient id="paint6_linear_0_1" x1="599.816" y1="295.865" x2="599.816" y2="1019.86" gradientUnits="userSpaceOnUse">
<stop stop-color="#FAFAFA"/>
<stop offset="0.515" stop-color="#F7F7F7"/>
<stop offset="1" stop-color="#FAFAFA"/>
</linearGradient>
<linearGradient id="paint7_linear_0_1" x1="599.816" y1="295.865" x2="599.816" y2="1019.86" gradientUnits="userSpaceOnUse">
<stop stop-color="white"/>
<stop offset="1" stop-color="#F2F2F2"/>
</linearGradient>
<linearGradient id="paint8_linear_0_1" x1="2780.27" y1="264.865" x2="2780.27" y2="1050.86" gradientUnits="userSpaceOnUse">
<stop stop-color="#003467"/>
<stop offset="1" stop-color="#00407E"/>
</linearGradient>
<linearGradient id="paint9_linear_0_1" x1="2780.27" y1="295.865" x2="2780.27" y2="1019.86" gradientUnits="userSpaceOnUse">
<stop stop-color="#FAFAFA"/>
<stop offset="0.515" stop-color="#F7F7F7"/>
<stop offset="1" stop-color="#FAFAFA"/>
</linearGradient>
<linearGradient id="paint10_linear_0_1" x1="2780.27" y1="295.865" x2="2780.27" y2="1019.86" gradientUnits="userSpaceOnUse">
<stop stop-color="white"/>
<stop offset="1" stop-color="#F2F2F2"/>
</linearGradient>
<linearGradient id="paint11_linear_0_1" x1="1443.05" y1="2312.58" x2="1443.05" y2="2504.58" gradientUnits="userSpaceOnUse">
<stop stop-color="#00366A"/>
<stop offset="1" stop-color="#004282"/>
</linearGradient>
<linearGradient id="paint12_linear_0_1" x1="1443.05" y1="2316.58" x2="1443.05" y2="2500.58" gradientUnits="userSpaceOnUse">
<stop stop-color="white"/>
<stop offset="1" stop-color="#F1F1F1"/>
</linearGradient>
<linearGradient id="paint13_linear_0_1" x1="1937.03" y1="2312.58" x2="1937.03" y2="2504.58" gradientUnits="userSpaceOnUse">
<stop stop-color="#00366A"/>
<stop offset="1" stop-color="#004282"/>
</linearGradient>
<linearGradient id="paint14_linear_0_1" x1="1937.03" y1="2316.58" x2="1937.03" y2="2500.58" gradientUnits="userSpaceOnUse">
<stop stop-color="white"/>
<stop offset="1" stop-color="#F1F1F1"/>
</linearGradient>
</defs>
</svg>
