<svg width="696" height="858" viewBox="0 0 696 858" fill="none" xmlns="http://www.w3.org/2000/svg">
<rect width="696" height="858" fill="#F5F5F5"/>
<g id="body">
<g id="housing">
<path id="Subtract" fill-rule="evenodd" clip-rule="evenodd" d="M346.542 96.3049C373.052 96.3049 396.819 74.8146 396.819 48.3049C396.819 21.7953 373.052 0.304932 346.542 0.304932C320.033 0.304932 297.323 21.7953 297.323 48.3049C297.323 74.8146 320.033 96.3049 346.542 96.3049ZM346.542 69.2741C357.036 69.2741 365.542 60.7676 365.542 50.2741C365.542 39.7807 357.036 31.2741 346.542 31.2741C336.049 31.2741 327.542 39.7807 327.542 50.2741C327.542 60.7676 336.049 69.2741 346.542 69.2741Z" fill="url(#paint0_linear_0_1)"/>
<path id="Subtract_2" d="M346.439 69.2872C356.933 69.2872 365.439 60.7806 365.439 50.2872C365.439 39.7938 356.933 31.2872 346.439 31.2872C335.946 31.2872 327.439 39.7938 327.439 50.2872C327.439 60.7806 335.946 69.2872 346.439 69.2872Z" stroke="url(#paint1_linear_0_1)" stroke-width="3"/>
<g id="Subtract_3">
<path d="M346.86 80.7863C363.981 80.7863 377.86 66.9072 377.86 49.7863C377.86 44.0357 376.294 38.6508 373.566 34.0347C558.673 51.9228 695.681 261.654 695.681 495.389C695.681 589.592 634.732 857.62 347.89 857.62C61.0479 857.62 0.0986328 593.598 0.0986328 495.389C0.0986328 262.576 136.028 53.5785 320.025 34.2554C317.376 38.8221 315.86 44.1271 315.86 49.7863C315.86 66.9072 329.739 80.7863 346.86 80.7863Z" fill="url(#paint2_linear_0_1)"/>
<path d="M346.86 80.7863C363.981 80.7863 377.86 66.9072 377.86 49.7863C377.86 44.0357 376.294 38.6508 373.566 34.0347C558.673 51.9228 695.681 261.654 695.681 495.389C695.681 589.592 634.732 857.62 347.89 857.62C61.0479 857.62 0.0986328 593.598 0.0986328 495.389C0.0986328 262.576 136.028 53.5785 320.025 34.2554C317.376 38.8221 315.86 44.1271 315.86 49.7863C315.86 66.9072 329.739 80.7863 346.86 80.7863Z" fill="url(#paint3_linear_0_1)"/>
</g>
</g>
<g id="buttons">
<path id="btnLeftHole" d="M208.403 754.041C208.403 736.639 222.513 722.541 239.903 722.541C257.293 722.541 271.403 736.639 271.403 754.041C271.403 771.444 257.293 785.541 239.903 785.541C222.513 785.541 208.403 771.444 208.403 754.041Z" fill="#73736C" stroke="url(#paint4_linear_0_1)" stroke-width="2"/>
<path id="btnLeft" d="M266.829 752.718C266.829 767.094 255.173 778.718 240.829 778.718C226.486 778.718 214.829 767.094 214.829 752.718C214.829 738.342 226.486 726.718 240.829 726.718C255.173 726.718 266.829 738.342 266.829 752.718Z" fill="url(#paint5_linear_0_1)" stroke="url(#paint6_linear_0_1)" stroke-width="2.5"/>
<path id="btnCenterHole" d="M316.355 780.628C316.355 763.226 330.465 749.128 347.855 749.128C365.245 749.128 379.355 763.226 379.355 780.628C379.355 798.031 365.245 812.128 347.855 812.128C330.465 812.128 316.355 798.031 316.355 780.628Z" fill="#73736C" stroke="url(#paint7_linear_0_1)" stroke-width="2"/>
<path id="btnCenter" d="M374.781 779.306C374.781 793.682 363.124 805.306 348.781 805.306C334.437 805.306 322.781 793.682 322.781 779.306C322.781 764.93 334.437 753.306 348.781 753.306C363.124 753.306 374.781 764.93 374.781 779.306Z" fill="url(#paint8_linear_0_1)" stroke="url(#paint9_linear_0_1)" stroke-width="2.5"/>
<path id="btnRightHole" d="M422.455 754.041C422.455 736.639 436.565 722.541 453.955 722.541C471.345 722.541 485.455 736.639 485.455 754.041C485.455 771.444 471.345 785.541 453.955 785.541C436.565 785.541 422.455 771.444 422.455 754.041Z" fill="#73736C" stroke="url(#paint10_linear_0_1)" stroke-width="2"/>
<path id="btnRight" d="M480.881 752.718C480.881 767.094 469.224 778.718 454.881 778.718C440.537 778.718 428.881 767.094 428.881 752.718C428.881 738.342 440.537 726.718 454.881 726.718C469.224 726.718 480.881 738.342 480.881 752.718Z" fill="url(#paint11_linear_0_1)" stroke="url(#paint12_linear_0_1)" stroke-width="2.5"/>
</g>
<path id="screenFrame" d="M168.349 316.075C168.788 300.302 181.422 287.678 197.196 287.257C231.23 286.349 291.299 285.005 349.004 285.005C406.712 285.005 466.784 286.349 500.818 287.257C516.589 287.679 529.221 300.296 529.662 316.067C530.572 348.611 531.879 404.771 531.879 458.679C531.879 512.6 530.571 568.776 529.661 601.316C529.221 617.076 516.589 629.689 500.828 630.115C467.251 631.023 408.055 632.352 349.004 632.352C289.956 632.352 230.763 631.023 197.185 630.115C181.422 629.689 168.789 617.07 168.349 601.307C167.44 568.674 166.129 512.331 166.129 458.679C166.129 405.04 167.439 348.712 168.349 316.075Z" fill="#595844" stroke="url(#paint13_linear_0_1)" stroke-width="3"/>
<path id="reflector" d="M175.004 318.179C175.004 304.924 185.749 294.179 199.004 294.179H499.004C512.259 294.179 523.004 304.924 523.004 318.179V599.179C523.004 612.433 512.259 623.179 499.004 623.179H199.004C185.749 623.179 175.004 612.433 175.004 599.179V318.179Z" fill="#FFFBC6" stroke="url(#paint14_linear_0_1)" stroke-width="6"/>
<g id="layout" opacity="0.5">
<rect id="Rectangle 1" x="173.004" y="368.261" width="352" height="178.799" fill="#B9E3F9"/>
<g id="Vector">
<path d="M359.102 445.388C345.249 441.747 332.008 438.672 318.758 435.897C326.294 428.827 333.737 420.021 341.563 410.176C353.1 411.964 364.643 413.447 376.615 415.293C370.959 424.998 365.281 435.655 359.102 445.388Z" fill="#F7C8DC"/>
<path d="M173.004 398.835V368.274C179.213 382.398 189.006 392.846 201.588 400.961C217.65 394.312 229.084 389.307 244.346 378.458C239.681 375.389 235.102 372.009 230.613 368.274H257.674C252.844 372.19 248.456 375.536 244.346 378.458C257.587 387.168 271.52 393.365 286.033 398.042C289.876 391.564 292.835 385.43 295.689 380.033C289.567 376.695 283.821 372.813 278.513 368.274L303.085 368.27C300.389 371.523 298.076 375.521 295.689 380.033C311.944 388.895 330.857 393.925 351.285 397.239C357.424 388.616 363.649 379.002 369.959 368.261C379.128 373.719 388.862 377.504 399.165 380.276C394.316 386.787 389.708 393.922 385.157 401.405C373.55 400.291 362.201 399.01 351.285 397.239C348.02 401.824 344.779 406.13 341.563 410.176C322.321 407.193 303.745 403.749 286.033 398.042C281.04 406.46 274.555 415.458 264.867 424.174C240.078 418.453 218.356 411.778 201.588 400.961C196.406 403.106 190.744 405.422 184.316 408.16C180.56 405.209 176.79 402.105 173.004 398.835Z" fill="#F7C8DC"/>
<path d="M301.361 503.779C306.977 500.873 312.215 497.517 317.13 493.796C327.062 497.98 336.641 502.804 346.5 508.175C333.745 515.382 322.67 519.945 311.467 524.687C324.15 531.427 336.127 538.798 346.762 547.06H269.144H261.952H204.007C200.146 542.315 194.523 537.709 189.122 533.868C201.93 525.419 212.739 521.595 222.907 519.709C231.899 529.101 242.985 538.659 261.952 547.06H269.144C284.218 536.418 297.659 530.532 311.467 524.687C302.544 519.945 293.271 515.516 283.872 511.311C289.307 509.459 295.101 507.019 301.361 503.779Z" fill="#F7C8DC"/>
<path d="M173.004 481.602V512.127C180.739 504.167 189.052 498.693 197.48 494.222C191.146 489.463 183.271 484.984 173.004 481.602Z" fill="#F7C8DC"/>
<path d="M173.004 479.671V462.201C177.623 465.063 182.681 467.84 188.093 470.565C197.779 465 205.959 460.839 213.73 456.85C227.41 462.556 242.412 467.095 257.873 472.158C244.556 476.979 231.647 480.623 219.538 484.685C208.269 480.012 197.632 475.368 188.093 470.565C183.45 473.232 178.46 476.223 173.004 479.671Z" fill="#F7C8DC"/>
<path d="M525.004 541.618V526.218C525.004 526.218 520.397 526.727 513.924 529.558C517.667 533.409 521.362 537.427 525.004 541.618Z" fill="#F7C8DC"/>
<path d="M459.268 537.135C456.435 540.011 452.785 543.444 449.544 547.06H400.691C396.954 543.48 393.166 540.084 389.337 536.858C397.898 524.148 406.461 515.964 415.73 510.177C429.664 517.703 444.569 526.373 459.268 537.135Z" fill="#F7C8DC"/>
<path d="M335.335 477.013C329.76 483.133 323.737 488.795 317.13 493.796C296.935 485.289 277.002 478.422 257.873 472.158C266.493 469.037 275.374 465.444 284.502 460.583C269.498 455.421 254.579 449.694 239.603 442.513C230.481 448.204 222.357 452.421 213.73 456.85C198.534 450.511 184.737 443.195 173.004 433.608V413.088C177.036 411.291 180.791 409.662 184.316 408.16C203.001 422.844 221.344 433.759 239.603 442.513C244.733 439.312 250.18 435.645 256.209 431.212C259.355 428.898 262.23 426.546 264.867 424.174C281.552 428.024 299.867 431.94 318.758 435.897C306.991 446.935 295.565 454.691 284.502 460.583C301.274 466.353 318.153 471.416 335.335 477.013Z" fill="#F7C8DC"/>
<path d="M283.872 511.311C259.532 519.604 242.398 516.095 222.907 519.709C214.15 510.563 207.608 501.833 197.48 494.222C204.66 490.413 211.862 487.26 219.538 484.685C239.84 493.102 262.193 501.612 283.872 511.311Z" fill="#F7C8DC"/>
<path d="M525.004 368.274V382.213C510.195 380.819 493.428 381.674 477.536 378.633C473.538 382.351 469.715 386.093 466.038 389.845C441.566 387.239 419.282 385.689 399.165 380.276C402.37 375.974 406.175 372.136 409.885 368.267L451.415 368.274C459.466 373.818 468.355 376.876 477.536 378.633C481.346 375.09 485.156 371.46 489.279 368.274L525.004 368.274Z" fill="#F7C8DC"/>
<path d="M173.004 523.845C173.004 523.845 180.799 527.948 189.122 533.868C183.576 537.527 177.77 541.522 173.004 546.156V523.845Z" fill="#F7C8DC"/>
<path d="M525.004 399.614V416.081C521.818 418.56 518.638 420.908 515.457 423.15C518.673 424.386 521.857 425.707 525.004 427.121V471.512V505.377C512.902 509.422 503.712 510.55 495.438 512.799C501.515 518.051 508.064 523.528 513.924 529.558C507.397 532.412 498.972 537.626 491.456 547.06H471.363C467.085 543.659 463.474 540.215 459.268 537.135C475.724 520.425 484.688 515.721 495.438 512.799C486.599 505.158 477.381 498.206 468.188 492.032C483.943 487.804 502.992 482.093 525.004 471.512C510.193 460.392 494.646 452.034 479.972 444.982C465.096 453.327 450.434 461.258 434.226 471.671C424.935 467.124 415.359 462.926 405.994 459.341C415.296 448.961 423.956 438.226 433.274 426.933C448.92 431.26 464 437.308 479.972 444.982C491.745 438.378 503.991 431.233 515.457 423.15C494.463 415.082 472.1 410.655 449.536 407.708C454.751 401.759 460.212 395.789 466.038 389.845C484.452 391.806 504.104 394.364 525.004 399.614Z" fill="#F7C8DC"/>
<path d="M347.831 547.06H383.027C385.137 543.366 387.237 539.976 389.337 536.858C383.244 531.724 377.082 527.354 370.805 523.02C363.417 530.352 355.743 538.098 347.831 547.06Z" fill="#F7C8DC"/>
<path d="M385.157 401.405C382.38 405.972 379.391 410.528 376.615 415.293C395.012 418.129 414.106 421.633 433.274 426.933C438.507 420.592 443.877 414.163 449.536 407.708C427.919 404.883 406.117 403.416 385.157 401.405Z" fill="#F7C8DC"/>
<path d="M373.223 490.485C360.384 485.401 347.78 481.067 335.335 477.013C344.282 467.194 351.904 456.727 359.102 445.388C374.443 449.42 390.424 453.38 405.994 459.341C395.986 470.508 385.272 481.22 373.223 490.485C380.56 493.391 387.974 496.542 395.479 500.026C409.1 488.552 422.188 479.405 434.226 471.671C446.088 477.476 456.663 484.292 468.188 492.032C446.671 497.806 430.657 500.858 415.73 510.177C408.901 506.488 402.154 503.126 395.479 500.026C387.54 506.714 379.357 514.533 370.805 523.02C362.94 517.589 354.546 512.558 346.5 508.175C355.702 502.976 364.856 496.919 373.223 490.485Z" fill="#F7C8DC"/>
</g>
<path id="Vector 1" d="M183.375 338.303C181.906 333.429 189.428 326.651 193.722 325.377C198.017 324.103 205.598 327.303 206.539 324.888C207.479 322.473 198.845 321.139 196.17 317.145C193.496 313.151 193.307 308.087 195.604 305.525C197.901 302.962 203.929 303.36 206.539 305.525C209.148 307.69 210.485 312.58 214.261 312.58C218.036 312.58 217.356 303.333 220.884 297.361C224.411 291.388 229.993 288.745 237.227 290.491C244.462 292.238 245.014 300.914 244.07 305.525C243.126 310.135 236.981 318.504 238.874 320.025C240.767 321.546 245.376 317.134 253.689 317.588C262.003 318.041 266.525 319.688 266.623 325.63C266.722 331.572 262.79 334.751 256.041 335.256C249.292 335.762 240.536 331.466 239.43 333.61C238.323 335.753 244.155 336.768 248.045 343.177C251.936 349.585 245.722 354.231 243.225 355.606C240.727 356.98 231.643 358.062 228.997 350.488C226.351 342.913 227.16 341.19 224.411 340.983C221.663 340.777 220.238 347.629 218.193 354.231C216.148 360.833 208.126 362.79 204.187 360.358C200.249 357.926 199.952 350.998 201.483 348.294C203.013 345.591 208.047 340.983 206.539 339.034C205.031 337.084 197.665 342.25 193.722 342.567C189.78 342.885 184.844 343.177 183.375 338.303Z" fill="#F7C8DC"/>
<path id="Vector 6" d="M370.602 328.626C370.039 332.952 354.297 329.848 351.205 333.77C348.112 337.691 356.718 354.962 363.66 350.541C370.602 346.12 377.067 337.279 379.972 338.972C382.877 340.665 377.036 343.513 378.43 354.518C379.825 365.523 398.656 361.357 398.432 355.244C398.207 349.131 384.282 342.17 391.31 340.665C398.338 339.16 408.212 352.41 414.847 352.98C421.483 353.551 423.544 341.135 417.581 335.142C411.619 329.149 399.181 328.626 399.275 327.121C399.369 325.616 413.237 327.497 418.203 319.502C423.169 311.507 414.268 300.032 406.303 302.196C398.338 304.359 395.714 318.844 392.975 317.608C390.236 316.373 394.799 306.606 393.465 298.904C392.132 291.201 376.411 288.651 373.988 293.519C371.566 298.387 383.626 316.868 379.305 318.371C374.983 319.873 373.413 302.196 365.448 302.196C357.483 302.196 354.315 310.713 356.977 316.236C359.638 321.759 371.164 324.299 370.602 328.626Z" fill="#F7C8DC"/>
<path id="Vector 7" d="M273.998 583.711C267.403 584.067 269.475 605.947 276.281 605.188C283.087 604.428 291.551 598.258 295.099 600.483C298.648 602.708 289.248 605.277 286.814 615.389C284.38 625.502 302.399 629.64 304.197 622.615C305.995 615.591 299.24 606.269 304.197 606.568C309.154 606.868 315.32 624.314 320.696 628.1C326.072 631.887 333.157 619.034 330.346 610.48C327.534 601.927 318.452 599.851 318.663 597.981C318.874 596.112 335.612 601.861 340.952 595.446C346.292 589.032 346.015 576.715 336.497 576.426C326.979 576.138 319.31 588.743 317.677 586.012C316.043 583.28 327.349 572.77 327.441 566.13C327.534 559.49 316.815 551.022 311.917 556.122C307.02 561.222 310.624 578.543 305.172 580.372C299.72 582.2 310.401 562.881 300.459 559.202C290.517 555.522 286.814 567.958 286.814 570.845C286.814 573.732 294.259 582.318 292.697 586.53C291.134 590.742 280.592 583.355 273.998 583.711Z" fill="#F7C8DC"/>
<path id="Vector 8" d="M460.714 575.168C458.675 575.146 454.351 561.241 444.183 558.468C434.015 555.696 428.195 567.012 433.106 572.638C438.017 578.263 449.365 581.551 448.972 584.195C448.578 586.838 435.524 582.712 430.511 586.439C425.498 590.167 425.169 603.779 435.853 604.142C446.537 604.505 449.138 596.283 453.253 599.491C457.368 602.7 450.881 605.783 446.537 614.493C442.193 623.204 455.827 630.496 462.485 623.204C469.143 615.911 464.661 609.745 468.821 610.593C472.982 611.441 474.489 623.784 481.443 625.138C488.396 626.492 491.657 622.663 491.217 613.532C490.777 604.401 478.011 600.709 481.443 599.491C484.875 598.273 489.577 603.603 498.564 601.088C507.551 598.573 506.698 587.612 499.745 586.967C492.791 586.323 485.744 588.291 485.116 584.711C484.488 581.131 493.906 576.393 494.169 565.11C494.431 553.826 479.868 552.601 473.095 556.735C466.321 560.87 462.752 575.19 460.714 575.168Z" fill="#F7C8DC"/>
<path id="Vector 2" d="M272.972 312.143C272.972 339.608 298.187 324.507 300.932 352.277C304.481 335.688 341.578 356.476 344.488 323.492C345.632 310.521 332.238 307.457 325.394 307.31C314.832 307.085 308.677 315.176 308.677 315.176C308.677 315.176 307.76 316.853 306.256 316.585C304.752 316.318 304.481 314.205 304.481 314.205C302.608 289.483 272.972 284.677 272.972 312.143Z" fill="#B9E3F9"/>
<path id="Vector 5" d="M354.306 597.123C363.646 630.132 381.64 595.372 395.376 624.069C394.689 602.378 425.728 606.958 425.728 574.57C425.728 556.165 411.309 556.704 404.853 558.995C394.192 562.777 388.078 581.018 388.078 581.018C388.078 581.018 387.568 582.94 385.789 582.94C384.01 582.94 383.499 581.018 383.499 581.018C378.877 563.594 344.965 564.114 354.306 597.123Z" fill="#B9E3F9"/>
<path id="Vector 3" d="M427.107 312.015C427.107 330.764 442.603 329.754 440.812 353.224C455.739 339.091 496.339 357.978 499.427 322.243C500.642 308.191 488.097 301.252 480.831 301.094C469.982 300.857 463.686 309.153 463.686 309.153C463.686 309.153 461.733 310.97 460.137 310.68C458.54 310.39 458.253 308.101 458.253 308.101C456.264 281.318 427.107 293.266 427.107 312.015Z" fill="#B9E3F9"/>
<path id="Vector 4" d="M263.858 586.787C263.858 607.205 232.56 607.308 230.851 624.069C224.979 605.56 190.108 606.994 190.108 583.877C190.108 560.76 209.444 562.191 216.538 565.842C223.632 569.493 228.14 575.876 228.14 575.876C228.14 575.876 230.099 577.855 231.701 577.539C233.303 577.223 233.93 575.004 233.93 575.004C240.793 558.749 263.857 566.368 263.858 586.787Z" fill="#B9E3F9"/>
</g>
<path id="Vector 9" d="M4.17963 514.462L46.1221 510.517L109.084 500.702L157.734 375.05L167.384 272.118L240.83 280.984L299.483 249.753L422.706 280.984L468.953 256.198L550.971 309.46L536.656 388.266L583.381 485.053L652.991 493.182L692.389 495.988" stroke="url(#paint15_linear_0_1)" stroke-width="6" stroke-linecap="round"/>
<path id="Vector 10" d="M4.80254 522.768L46.745 519.03L109.192 509.063L153.504 577.318L147.072 624.49L215.327 668.802L280.009 654.865L338.973 693.102L415.075 654.555L512.649 668.802L557.676 529.79L583.405 493.339L649.517 501.201L692.212 504.191" stroke="white" stroke-opacity="0.98" stroke-width="6" stroke-linecap="round"/>
</g>
<g id="display">
<g id="col_0">
<path id="0_0" d="M183.504 369.974H173.504V379.974H183.504V369.974Z" fill="black"/>
<path id="0_1" d="M183.504 380.974H173.504V390.974H183.504V380.974Z" fill="black"/>
<path id="0_2" d="M183.504 391.974H173.504V401.974H183.504V391.974Z" fill="black"/>
<path id="0_3" d="M183.504 402.974H173.504V412.974H183.504V402.974Z" fill="black"/>
<path id="1_0" d="M183.504 413.974H173.504V423.974H183.504V413.974Z" fill="black"/>
<path id="1_1" d="M183.504 424.974H173.504V434.974H183.504V424.974Z" fill="black"/>
<path id="1_2" d="M183.504 435.974H173.504V445.974H183.504V435.974Z" fill="black"/>
<path id="1_3" d="M183.504 446.974H173.504V456.974H183.504V446.974Z" fill="black"/>
<path id="80_0" d="M183.504 457.974H173.504V467.974H183.504V457.974Z" fill="black"/>
<path id="80_1" d="M183.504 468.974H173.504V478.974H183.504V468.974Z" fill="black"/>
<path id="80_2" d="M183.504 479.974H173.504V489.974H183.504V479.974Z" fill="black"/>
<path id="80_3" d="M183.504 490.974H173.504V500.974H183.504V490.974Z" fill="black"/>
<path id="81_0" d="M183.504 501.974H173.504V511.974H183.504V501.974Z" fill="black"/>
<path id="81_1" d="M183.504 512.974H173.504V522.974H183.504V512.974Z" fill="black"/>
<path id="81_2" d="M183.504 523.974H173.504V533.974H183.504V523.974Z" fill="black"/>
<path id="81_3" d="M183.504 534.974H173.504V544.974H183.504V534.974Z" fill="black"/>
</g>
<g id="col_1">
<path id="2_0" d="M194.504 369.974H184.504V379.974H194.504V369.974Z" fill="black"/>
<path id="2_1" d="M194.504 380.974H184.504V390.974H194.504V380.974Z" fill="black"/>
<path id="2_2" d="M194.504 391.974H184.504V401.974H194.504V391.974Z" fill="black"/>
<path id="2_3" d="M194.504 402.974H184.504V412.974H194.504V402.974Z" fill="black"/>
<path id="3_0" d="M194.504 413.974H184.504V423.974H194.504V413.974Z" fill="black"/>
<path id="3_1" d="M194.504 424.974H184.504V434.974H194.504V424.974Z" fill="black"/>
<path id="3_2" d="M194.504 435.974H184.504V445.974H194.504V435.974Z" fill="black"/>
<path id="3_3" d="M194.504 446.974H184.504V456.974H194.504V446.974Z" fill="black"/>
<path id="82_0" d="M194.504 457.974H184.504V467.974H194.504V457.974Z" fill="black"/>
<path id="82_1" d="M194.504 468.974H184.504V478.974H194.504V468.974Z" fill="black"/>
<path id="82_2" d="M194.504 479.974H184.504V489.974H194.504V479.974Z" fill="black"/>
<path id="82_3" d="M194.504 490.974H184.504V500.974H194.504V490.974Z" fill="black"/>
<path id="83_0" d="M194.504 501.974H184.504V511.974H194.504V501.974Z" fill="black"/>
<path id="83_1" d="M194.504 512.974H184.504V522.974H194.504V512.974Z" fill="black"/>
<path id="83_2" d="M194.504 523.974H184.504V533.974H194.504V523.974Z" fill="black"/>
<path id="83_3" d="M194.504 534.974H184.504V544.974H194.504V534.974Z" fill="black"/>
</g>
<g id="col_2">
<path id="4_0" d="M205.504 369.974H195.504V379.974H205.504V369.974Z" fill="black"/>
<path id="4_1" d="M205.504 380.974H195.504V390.974H205.504V380.974Z" fill="black"/>
<path id="4_2" d="M205.504 391.974H195.504V401.974H205.504V391.974Z" fill="black"/>
<path id="4_3" d="M205.504 402.974H195.504V412.974H205.504V402.974Z" fill="black"/>
<path id="5_0" d="M205.504 413.974H195.504V423.974H205.504V413.974Z" fill="black"/>
<path id="5_1" d="M205.504 424.974H195.504V434.974H205.504V424.974Z" fill="black"/>
<path id="5_2" d="M205.504 435.974H195.504V445.974H205.504V435.974Z" fill="black"/>
<path id="5_3" d="M205.504 446.974H195.504V456.974H205.504V446.974Z" fill="black"/>
<path id="84_0" d="M205.504 457.974H195.504V467.974H205.504V457.974Z" fill="black"/>
<path id="84_1" d="M205.504 468.974H195.504V478.974H205.504V468.974Z" fill="black"/>
<path id="84_2" d="M205.504 479.974H195.504V489.974H205.504V479.974Z" fill="black"/>
<path id="84_3" d="M205.504 490.974H195.504V500.974H205.504V490.974Z" fill="black"/>
<path id="85_0" d="M205.504 501.974H195.504V511.974H205.504V501.974Z" fill="black"/>
<path id="85_1" d="M205.504 512.974H195.504V522.974H205.504V512.974Z" fill="black"/>
<path id="85_2" d="M205.504 523.974H195.504V533.974H205.504V523.974Z" fill="black"/>
<path id="85_3" d="M205.504 534.974H195.504V544.974H205.504V534.974Z" fill="black"/>
</g>
<g id="col_3">
<path id="6_0" d="M216.504 369.974H206.504V379.974H216.504V369.974Z" fill="black"/>
<path id="6_1" d="M216.504 380.974H206.504V390.974H216.504V380.974Z" fill="black"/>
<path id="6_2" d="M216.504 391.974H206.504V401.974H216.504V391.974Z" fill="black"/>
<path id="6_3" d="M216.504 402.974H206.504V412.974H216.504V402.974Z" fill="black"/>
<path id="7_0" d="M216.504 413.974H206.504V423.974H216.504V413.974Z" fill="black"/>
<path id="7_1" d="M216.504 424.974H206.504V434.974H216.504V424.974Z" fill="black"/>
<path id="7_2" d="M216.504 435.974H206.504V445.974H216.504V435.974Z" fill="black"/>
<path id="7_3" d="M216.504 446.974H206.504V456.974H216.504V446.974Z" fill="black"/>
<path id="86_0" d="M216.504 457.974H206.504V467.974H216.504V457.974Z" fill="black"/>
<path id="86_1" d="M216.504 468.974H206.504V478.974H216.504V468.974Z" fill="black"/>
<path id="86_2" d="M216.504 479.974H206.504V489.974H216.504V479.974Z" fill="black"/>
<path id="86_3" d="M216.504 490.974H206.504V500.974H216.504V490.974Z" fill="black"/>
<path id="87_0" d="M216.504 501.974H206.504V511.974H216.504V501.974Z" fill="black"/>
<path id="87_1" d="M216.504 512.974H206.504V522.974H216.504V512.974Z" fill="black"/>
<path id="87_2" d="M216.504 523.974H206.504V533.974H216.504V523.974Z" fill="black"/>
<path id="87_3" d="M216.504 534.974H206.504V544.974H216.504V534.974Z" fill="black"/>
</g>
<g id="col_4">
<path id="8_0" d="M227.504 369.974H217.504V379.974H227.504V369.974Z" fill="black"/>
<path id="8_1" d="M227.504 380.974H217.504V390.974H227.504V380.974Z" fill="black"/>
<path id="8_2" d="M227.504 391.974H217.504V401.974H227.504V391.974Z" fill="black"/>
<path id="8_3" d="M227.504 402.974H217.504V412.974H227.504V402.974Z" fill="black"/>
<path id="9_0" d="M227.504 413.974H217.504V423.974H227.504V413.974Z" fill="black"/>
<path id="9_1" d="M227.504 424.974H217.504V434.974H227.504V424.974Z" fill="black"/>
<path id="9_2" d="M227.504 435.974H217.504V445.974H227.504V435.974Z" fill="black"/>
<path id="9_3" d="M227.504 446.974H217.504V456.974H227.504V446.974Z" fill="black"/>
<path id="88_0" d="M227.504 457.974H217.504V467.974H227.504V457.974Z" fill="black"/>
<path id="88_1" d="M227.504 468.974H217.504V478.974H227.504V468.974Z" fill="black"/>
<path id="88_2" d="M227.504 479.974H217.504V489.974H227.504V479.974Z" fill="black"/>
<path id="88_3" d="M227.504 490.974H217.504V500.974H227.504V490.974Z" fill="black"/>
<path id="89_0" d="M227.504 501.974H217.504V511.974H227.504V501.974Z" fill="black"/>
<path id="89_1" d="M227.504 512.974H217.504V522.974H227.504V512.974Z" fill="black"/>
<path id="89_2" d="M227.504 523.974H217.504V533.974H227.504V523.974Z" fill="black"/>
<path id="89_3" d="M227.504 534.974H217.504V544.974H227.504V534.974Z" fill="black"/>
</g>
<g id="col_5">
<path id="10_0" d="M238.504 369.974H228.504V379.974H238.504V369.974Z" fill="black"/>
<path id="10_1" d="M238.504 380.974H228.504V390.974H238.504V380.974Z" fill="black"/>
<path id="10_2" d="M238.504 391.974H228.504V401.974H238.504V391.974Z" fill="black"/>
<path id="10_3" d="M238.504 402.974H228.504V412.974H238.504V402.974Z" fill="black"/>
<path id="11_0" d="M238.504 413.974H228.504V423.974H238.504V413.974Z" fill="black"/>
<path id="11_1" d="M238.504 424.974H228.504V434.974H238.504V424.974Z" fill="black"/>
<path id="11_2" d="M238.504 435.974H228.504V445.974H238.504V435.974Z" fill="black"/>
<path id="11_3" d="M238.504 446.974H228.504V456.974H238.504V446.974Z" fill="black"/>
<path id="90_0" d="M238.504 457.974H228.504V467.974H238.504V457.974Z" fill="black"/>
<path id="90_1" d="M238.504 468.974H228.504V478.974H238.504V468.974Z" fill="black"/>
<path id="90_2" d="M238.504 479.974H228.504V489.974H238.504V479.974Z" fill="black"/>
<path id="90_3" d="M238.504 490.974H228.504V500.974H238.504V490.974Z" fill="black"/>
<path id="91_0" d="M238.504 501.974H228.504V511.974H238.504V501.974Z" fill="black"/>
<path id="91_1" d="M238.504 512.974H228.504V522.974H238.504V512.974Z" fill="black"/>
<path id="91_2" d="M238.504 523.974H228.504V533.974H238.504V523.974Z" fill="black"/>
<path id="91_3" d="M238.504 534.974H228.504V544.974H238.504V534.974Z" fill="black"/>
</g>
<g id="col_6">
<path id="12_0" d="M249.504 369.974H239.504V379.974H249.504V369.974Z" fill="black"/>
<path id="12_1" d="M249.504 380.974H239.504V390.974H249.504V380.974Z" fill="black"/>
<path id="12_2" d="M249.504 391.974H239.504V401.974H249.504V391.974Z" fill="black"/>
<path id="12_3" d="M249.504 402.974H239.504V412.974H249.504V402.974Z" fill="black"/>
<path id="13_0" d="M249.504 413.974H239.504V423.974H249.504V413.974Z" fill="black"/>
<path id="13_1" d="M249.504 424.974H239.504V434.974H249.504V424.974Z" fill="black"/>
<path id="13_2" d="M249.504 435.974H239.504V445.974H249.504V435.974Z" fill="black"/>
<path id="13_3" d="M249.504 446.974H239.504V456.974H249.504V446.974Z" fill="black"/>
<path id="92_0" d="M249.504 457.974H239.504V467.974H249.504V457.974Z" fill="black"/>
<path id="92_1" d="M249.504 468.974H239.504V478.974H249.504V468.974Z" fill="black"/>
<path id="92_2" d="M249.504 479.974H239.504V489.974H249.504V479.974Z" fill="black"/>
<path id="92_3" d="M249.504 490.974H239.504V500.974H249.504V490.974Z" fill="black"/>
<path id="93_0" d="M249.504 501.974H239.504V511.974H249.504V501.974Z" fill="black"/>
<path id="93_1" d="M249.504 512.974H239.504V522.974H249.504V512.974Z" fill="black"/>
<path id="93_2" d="M249.504 523.974H239.504V533.974H249.504V523.974Z" fill="black"/>
<path id="93_3" d="M249.504 534.974H239.504V544.974H249.504V534.974Z" fill="black"/>
</g>
<g id="col_7">
<path id="14_0" d="M260.504 369.974H250.504V379.974H260.504V369.974Z" fill="black"/>
<path id="14_1" d="M260.504 380.974H250.504V390.974H260.504V380.974Z" fill="black"/>
<path id="14_2" d="M260.504 391.974H250.504V401.974H260.504V391.974Z" fill="black"/>
<path id="14_3" d="M260.504 402.974H250.504V412.974H260.504V402.974Z" fill="black"/>
<path id="15_0" d="M260.504 413.974H250.504V423.974H260.504V413.974Z" fill="black"/>
<path id="15_1" d="M260.504 424.974H250.504V434.974H260.504V424.974Z" fill="black"/>
<path id="15_2" d="M260.504 435.974H250.504V445.974H260.504V435.974Z" fill="black"/>
<path id="15_3" d="M260.504 446.974H250.504V456.974H260.504V446.974Z" fill="black"/>
<path id="94_0" d="M260.504 457.974H250.504V467.974H260.504V457.974Z" fill="black"/>
<path id="94_1" d="M260.504 468.974H250.504V478.974H260.504V468.974Z" fill="black"/>
<path id="94_2" d="M260.504 479.974H250.504V489.974H260.504V479.974Z" fill="black"/>
<path id="94_3" d="M260.504 490.974H250.504V500.974H260.504V490.974Z" fill="black"/>
<path id="95_0" d="M260.504 501.974H250.504V511.974H260.504V501.974Z" fill="black"/>
<path id="95_1" d="M260.504 512.974H250.504V522.974H260.504V512.974Z" fill="black"/>
<path id="95_2" d="M260.504 523.974H250.504V533.974H260.504V523.974Z" fill="black"/>
<path id="95_3" d="M260.504 534.974H250.504V544.974H260.504V534.974Z" fill="black"/>
</g>
<g id="col_8">
<path id="18_0" d="M271.504 369.974H261.504V379.974H271.504V369.974Z" fill="black"/>
<path id="18_1" d="M271.504 380.974H261.504V390.974H271.504V380.974Z" fill="black"/>
<path id="18_2" d="M271.504 391.974H261.504V401.974H271.504V391.974Z" fill="black"/>
<path id="18_3" d="M271.504 402.974H261.504V412.974H271.504V402.974Z" fill="black"/>
<path id="19_0" d="M271.504 413.974H261.504V423.974H271.504V413.974Z" fill="black"/>
<path id="19_1" d="M271.504 424.974H261.504V434.974H271.504V424.974Z" fill="black"/>
<path id="19_2" d="M271.504 435.974H261.504V445.974H271.504V435.974Z" fill="black"/>
<path id="19_3" d="M271.504 446.974H261.504V456.974H271.504V446.974Z" fill="black"/>
<path id="98_0" d="M271.504 457.974H261.504V467.974H271.504V457.974Z" fill="black"/>
<path id="98_1" d="M271.504 468.974H261.504V478.974H271.504V468.974Z" fill="black"/>
<path id="98_2" d="M271.504 479.974H261.504V489.974H271.504V479.974Z" fill="black"/>
<path id="98_3" d="M271.504 490.974H261.504V500.974H271.504V490.974Z" fill="black"/>
<path id="99_0" d="M271.504 501.974H261.504V511.974H271.504V501.974Z" fill="black"/>
<path id="99_1" d="M271.504 512.974H261.504V522.974H271.504V512.974Z" fill="black"/>
<path id="99_2" d="M271.504 523.974H261.504V533.974H271.504V523.974Z" fill="black"/>
<path id="99_3" d="M271.504 534.974H261.504V544.974H271.504V534.974Z" fill="black"/>
</g>
<g id="col_9">
<path id="20_0" d="M282.504 369.974H272.504V379.974H282.504V369.974Z" fill="black"/>
<path id="20_1" d="M282.504 380.974H272.504V390.974H282.504V380.974Z" fill="black"/>
<path id="20_2" d="M282.504 391.974H272.504V401.974H282.504V391.974Z" fill="black"/>
<path id="20_3" d="M282.504 402.974H272.504V412.974H282.504V402.974Z" fill="black"/>
<path id="21_0" d="M282.504 413.974H272.504V423.974H282.504V413.974Z" fill="black"/>
<path id="21_1" d="M282.504 424.974H272.504V434.974H282.504V424.974Z" fill="black"/>
<path id="21_2" d="M282.504 435.974H272.504V445.974H282.504V435.974Z" fill="black"/>
<path id="21_3" d="M282.504 446.974H272.504V456.974H282.504V446.974Z" fill="black"/>
<path id="100_0" d="M282.504 457.974H272.504V467.974H282.504V457.974Z" fill="black"/>
<path id="100_1" d="M282.504 468.974H272.504V478.974H282.504V468.974Z" fill="black"/>
<path id="100_2" d="M282.504 479.974H272.504V489.974H282.504V479.974Z" fill="black"/>
<path id="100_3" d="M282.504 490.974H272.504V500.974H282.504V490.974Z" fill="black"/>
<path id="101_0" d="M282.504 501.974H272.504V511.974H282.504V501.974Z" fill="black"/>
<path id="101_1" d="M282.504 512.974H272.504V522.974H282.504V512.974Z" fill="black"/>
<path id="101_2" d="M282.504 523.974H272.504V533.974H282.504V523.974Z" fill="black"/>
<path id="101_3" d="M282.504 534.974H272.504V544.974H282.504V534.974Z" fill="black"/>
</g>
<g id="col_10">
<path id="22_0" d="M293.504 369.974H283.504V379.974H293.504V369.974Z" fill="black"/>
<path id="22_1" d="M293.504 380.974H283.504V390.974H293.504V380.974Z" fill="black"/>
<path id="22_2" d="M293.504 391.974H283.504V401.974H293.504V391.974Z" fill="black"/>
<path id="22_3" d="M293.504 402.974H283.504V412.974H293.504V402.974Z" fill="black"/>
<path id="23_0" d="M293.504 413.974H283.504V423.974H293.504V413.974Z" fill="black"/>
<path id="23_1" d="M293.504 424.974H283.504V434.974H293.504V424.974Z" fill="black"/>
<path id="23_2" d="M293.504 435.974H283.504V445.974H293.504V435.974Z" fill="black"/>
<path id="23_3" d="M293.504 446.974H283.504V456.974H293.504V446.974Z" fill="black"/>
<path id="102_0" d="M293.504 457.974H283.504V467.974H293.504V457.974Z" fill="black"/>
<path id="102_1" d="M293.504 468.974H283.504V478.974H293.504V468.974Z" fill="black"/>
<path id="102_2" d="M293.504 479.974H283.504V489.974H293.504V479.974Z" fill="black"/>
<path id="102_3" d="M293.504 490.974H283.504V500.974H293.504V490.974Z" fill="black"/>
<path id="103_0" d="M293.504 501.974H283.504V511.974H293.504V501.974Z" fill="black"/>
<path id="103_1" d="M293.504 512.974H283.504V522.974H293.504V512.974Z" fill="black"/>
<path id="103_2" d="M293.504 523.974H283.504V533.974H293.504V523.974Z" fill="black"/>
<path id="103_3" d="M293.504 534.974H283.504V544.974H293.504V534.974Z" fill="black"/>
</g>
<g id="col_11">
<path id="24_0" d="M304.504 369.974H294.504V379.974H304.504V369.974Z" fill="black"/>
<path id="24_1" d="M304.504 380.974H294.504V390.974H304.504V380.974Z" fill="black"/>
<path id="24_2" d="M304.504 391.974H294.504V401.974H304.504V391.974Z" fill="black"/>
<path id="24_3" d="M304.504 402.974H294.504V412.974H304.504V402.974Z" fill="black"/>
<path id="25_0" d="M304.504 413.974H294.504V423.974H304.504V413.974Z" fill="black"/>
<path id="25_1" d="M304.504 424.974H294.504V434.974H304.504V424.974Z" fill="black"/>
<path id="25_2" d="M304.504 435.974H294.504V445.974H304.504V435.974Z" fill="black"/>
<path id="25_3" d="M304.504 446.974H294.504V456.974H304.504V446.974Z" fill="black"/>
<path id="104_0" d="M304.504 457.974H294.504V467.974H304.504V457.974Z" fill="black"/>
<path id="104_1" d="M304.504 468.974H294.504V478.974H304.504V468.974Z" fill="black"/>
<path id="104_2" d="M304.504 479.974H294.504V489.974H304.504V479.974Z" fill="black"/>
<path id="104_3" d="M304.504 490.974H294.504V500.974H304.504V490.974Z" fill="black"/>
<path id="105_0" d="M304.504 501.974H294.504V511.974H304.504V501.974Z" fill="black"/>
<path id="105_1" d="M304.504 512.974H294.504V522.974H304.504V512.974Z" fill="black"/>
<path id="105_2" d="M304.504 523.974H294.504V533.974H304.504V523.974Z" fill="black"/>
<path id="105_3" d="M304.504 534.974H294.504V544.974H304.504V534.974Z" fill="black"/>
</g>
<g id="col_12">
<path id="26_0" d="M315.504 369.974H305.504V379.974H315.504V369.974Z" fill="black"/>
<path id="26_1" d="M315.504 380.974H305.504V390.974H315.504V380.974Z" fill="black"/>
<path id="26_2" d="M315.504 391.974H305.504V401.974H315.504V391.974Z" fill="black"/>
<path id="26_3" d="M315.504 402.974H305.504V412.974H315.504V402.974Z" fill="black"/>
<path id="27_0" d="M315.504 413.974H305.504V423.974H315.504V413.974Z" fill="black"/>
<path id="27_1" d="M315.504 424.974H305.504V434.974H315.504V424.974Z" fill="black"/>
<path id="27_2" d="M315.504 435.974H305.504V445.974H315.504V435.974Z" fill="black"/>
<path id="27_3" d="M315.504 446.974H305.504V456.974H315.504V446.974Z" fill="black"/>
<path id="106_0" d="M315.504 457.974H305.504V467.974H315.504V457.974Z" fill="black"/>
<path id="106_1" d="M315.504 468.974H305.504V478.974H315.504V468.974Z" fill="black"/>
<path id="106_2" d="M315.504 479.974H305.504V489.974H315.504V479.974Z" fill="black"/>
<path id="106_3" d="M315.504 490.974H305.504V500.974H315.504V490.974Z" fill="black"/>
<path id="107_0" d="M315.504 501.974H305.504V511.974H315.504V501.974Z" fill="black"/>
<path id="107_1" d="M315.504 512.974H305.504V522.974H315.504V512.974Z" fill="black"/>
<path id="107_2" d="M315.504 523.974H305.504V533.974H315.504V523.974Z" fill="black"/>
<path id="107_3" d="M315.504 534.974H305.504V544.974H315.504V534.974Z" fill="black"/>
</g>
<g id="col_13">
<path id="28_0" d="M326.504 369.974H316.504V379.974H326.504V369.974Z" fill="black"/>
<path id="28_1" d="M326.504 380.974H316.504V390.974H326.504V380.974Z" fill="black"/>
<path id="28_2" d="M326.504 391.974H316.504V401.974H326.504V391.974Z" fill="black"/>
<path id="28_3" d="M326.504 402.974H316.504V412.974H326.504V402.974Z" fill="black"/>
<path id="29_0" d="M326.504 413.974H316.504V423.974H326.504V413.974Z" fill="black"/>
<path id="29_1" d="M326.504 424.974H316.504V434.974H326.504V424.974Z" fill="black"/>
<path id="29_2" d="M326.504 435.974H316.504V445.974H326.504V435.974Z" fill="black"/>
<path id="29_3" d="M326.504 446.974H316.504V456.974H326.504V446.974Z" fill="black"/>
<path id="108_0" d="M326.504 457.974H316.504V467.974H326.504V457.974Z" fill="black"/>
<path id="108_1" d="M326.504 468.974H316.504V478.974H326.504V468.974Z" fill="black"/>
<path id="108_2" d="M326.504 479.974H316.504V489.974H326.504V479.974Z" fill="black"/>
<path id="108_3" d="M326.504 490.974H316.504V500.974H326.504V490.974Z" fill="black"/>
<path id="109_0" d="M326.504 501.974H316.504V511.974H326.504V501.974Z" fill="black"/>
<path id="109_1" d="M326.504 512.974H316.504V522.974H326.504V512.974Z" fill="black"/>
<path id="109_2" d="M326.504 523.974H316.504V533.974H326.504V523.974Z" fill="black"/>
<path id="109_3" d="M326.504 534.974H316.504V544.974H326.504V534.974Z" fill="black"/>
</g>
<g id="col_14">
<path id="30_0" d="M337.504 369.974H327.504V379.974H337.504V369.974Z" fill="black"/>
<path id="30_1" d="M337.504 380.974H327.504V390.974H337.504V380.974Z" fill="black"/>
<path id="30_2" d="M337.504 391.974H327.504V401.974H337.504V391.974Z" fill="black"/>
<path id="30_3" d="M337.504 402.974H327.504V412.974H337.504V402.974Z" fill="black"/>
<path id="31_0" d="M337.504 413.974H327.504V423.974H337.504V413.974Z" fill="black"/>
<path id="31_1" d="M337.504 424.974H327.504V434.974H337.504V424.974Z" fill="black"/>
<path id="31_2" d="M337.504 435.974H327.504V445.974H337.504V435.974Z" fill="black"/>
<path id="31_3" d="M337.504 446.974H327.504V456.974H337.504V446.974Z" fill="black"/>
<path id="110_0" d="M337.504 457.974H327.504V467.974H337.504V457.974Z" fill="black"/>
<path id="110_1" d="M337.504 468.974H327.504V478.974H337.504V468.974Z" fill="black"/>
<path id="110_2" d="M337.504 479.974H327.504V489.974H337.504V479.974Z" fill="black"/>
<path id="110_3" d="M337.504 490.974H327.504V500.974H337.504V490.974Z" fill="black"/>
<path id="111_0" d="M337.504 501.974H327.504V511.974H337.504V501.974Z" fill="black"/>
<path id="111_1" d="M337.504 512.974H327.504V522.974H337.504V512.974Z" fill="black"/>
<path id="111_2" d="M337.504 523.974H327.504V533.974H337.504V523.974Z" fill="black"/>
<path id="111_3" d="M337.504 534.974H327.504V544.974H337.504V534.974Z" fill="black"/>
</g>
<g id="col_15">
<path id="32_0" d="M348.504 369.974H338.504V379.974H348.504V369.974Z" fill="black"/>
<path id="32_1" d="M348.504 380.974H338.504V390.974H348.504V380.974Z" fill="black"/>
<path id="32_2" d="M348.504 391.974H338.504V401.974H348.504V391.974Z" fill="black"/>
<path id="32_3" d="M348.504 402.974H338.504V412.974H348.504V402.974Z" fill="black"/>
<path id="33_0" d="M348.504 413.974H338.504V423.974H348.504V413.974Z" fill="black"/>
<path id="33_1" d="M348.504 424.974H338.504V434.974H348.504V424.974Z" fill="black"/>
<path id="33_2" d="M348.504 435.974H338.504V445.974H348.504V435.974Z" fill="black"/>
<path id="33_3" d="M348.504 446.974H338.504V456.974H348.504V446.974Z" fill="black"/>
<path id="112_0" d="M348.504 457.974H338.504V467.974H348.504V457.974Z" fill="black"/>
<path id="112_1" d="M348.504 468.974H338.504V478.974H348.504V468.974Z" fill="black"/>
<path id="112_2" d="M348.504 479.974H338.504V489.974H348.504V479.974Z" fill="black"/>
<path id="112_3" d="M348.504 490.974H338.504V500.974H348.504V490.974Z" fill="black"/>
<path id="113_0" d="M348.504 501.974H338.504V511.974H348.504V501.974Z" fill="black"/>
<path id="113_1" d="M348.504 512.974H338.504V522.974H348.504V512.974Z" fill="black"/>
<path id="113_2" d="M348.504 523.974H338.504V533.974H348.504V523.974Z" fill="black"/>
<path id="113_3" d="M348.504 534.974H338.504V544.974H348.504V534.974Z" fill="black"/>
</g>
<g id="col_31">
<path id="40_0" d="M524.504 369.974H514.504V379.974H524.504V369.974Z" fill="black"/>
<path id="40_1" d="M524.504 380.974H514.504V390.974H524.504V380.974Z" fill="black"/>
<path id="40_2" d="M524.504 391.974H514.504V401.974H524.504V391.974Z" fill="black"/>
<path id="40_3" d="M524.504 402.974H514.504V412.974H524.504V402.974Z" fill="black"/>
<path id="41_0" d="M524.504 413.974H514.504V423.974H524.504V413.974Z" fill="black"/>
<path id="41_1" d="M524.504 424.974H514.504V434.974H524.504V424.974Z" fill="black"/>
<path id="41_2" d="M524.504 435.974H514.504V445.974H524.504V435.974Z" fill="black"/>
<path id="41_3" d="M524.504 446.974H514.504V456.974H524.504V446.974Z" fill="black"/>
<path id="120_0" d="M524.504 457.974H514.504V467.974H524.504V457.974Z" fill="black"/>
<path id="120_1" d="M524.504 468.974H514.504V478.974H524.504V468.974Z" fill="black"/>
<path id="120_2" d="M524.504 479.974H514.504V489.974H524.504V479.974Z" fill="black"/>
<path id="120_3" d="M524.504 490.974H514.504V500.974H524.504V490.974Z" fill="black"/>
<path id="121_0" d="M524.504 501.974H514.504V511.974H524.504V501.974Z" fill="black"/>
<path id="121_1" d="M524.504 512.974H514.504V522.974H524.504V512.974Z" fill="black"/>
<path id="121_2" d="M524.504 523.974H514.504V533.974H524.504V523.974Z" fill="black"/>
<path id="121_3" d="M524.504 534.974H514.504V544.974H524.504V534.974Z" fill="black"/>
</g>
<g id="col_30">
<path id="42_0" d="M513.504 369.974H503.504V379.974H513.504V369.974Z" fill="black"/>
<path id="42_1" d="M513.504 380.974H503.504V390.974H513.504V380.974Z" fill="black"/>
<path id="42_2" d="M513.504 391.974H503.504V401.974H513.504V391.974Z" fill="black"/>
<path id="42_3" d="M513.504 402.974H503.504V412.974H513.504V402.974Z" fill="black"/>
<path id="43_0" d="M513.504 413.974H503.504V423.974H513.504V413.974Z" fill="black"/>
<path id="43_1" d="M513.504 424.974H503.504V434.974H513.504V424.974Z" fill="black"/>
<path id="43_2" d="M513.504 435.974H503.504V445.974H513.504V435.974Z" fill="black"/>
<path id="43_3" d="M513.504 446.974H503.504V456.974H513.504V446.974Z" fill="black"/>
<path id="122_0" d="M513.504 457.974H503.504V467.974H513.504V457.974Z" fill="black"/>
<path id="122_1" d="M513.504 468.974H503.504V478.974H513.504V468.974Z" fill="black"/>
<path id="122_2" d="M513.504 479.974H503.504V489.974H513.504V479.974Z" fill="black"/>
<path id="122_3" d="M513.504 490.974H503.504V500.974H513.504V490.974Z" fill="black"/>
<path id="123_0" d="M513.504 501.974H503.504V511.974H513.504V501.974Z" fill="black"/>
<path id="123_1" d="M513.504 512.974H503.504V522.974H513.504V512.974Z" fill="black"/>
<path id="123_2" d="M513.504 523.974H503.504V533.974H513.504V523.974Z" fill="black"/>
<path id="123_3" d="M513.504 534.974H503.504V544.974H513.504V534.974Z" fill="black"/>
</g>
<g id="col_29">
<path id="44_0" d="M502.504 369.974H492.504V379.974H502.504V369.974Z" fill="black"/>
<path id="44_1" d="M502.504 380.974H492.504V390.974H502.504V380.974Z" fill="black"/>
<path id="44_2" d="M502.504 391.974H492.504V401.974H502.504V391.974Z" fill="black"/>
<path id="44_3" d="M502.504 402.974H492.504V412.974H502.504V402.974Z" fill="black"/>
<path id="45_0" d="M502.504 413.974H492.504V423.974H502.504V413.974Z" fill="black"/>
<path id="45_1" d="M502.504 424.974H492.504V434.974H502.504V424.974Z" fill="black"/>
<path id="45_2" d="M502.504 435.974H492.504V445.974H502.504V435.974Z" fill="black"/>
<path id="45_3" d="M502.504 446.974H492.504V456.974H502.504V446.974Z" fill="black"/>
<path id="124_0" d="M502.504 457.974H492.504V467.974H502.504V457.974Z" fill="black"/>
<path id="124_1" d="M502.504 468.974H492.504V478.974H502.504V468.974Z" fill="black"/>
<path id="124_2" d="M502.504 479.974H492.504V489.974H502.504V479.974Z" fill="black"/>
<path id="124_3" d="M502.504 490.974H492.504V500.974H502.504V490.974Z" fill="black"/>
<path id="125_0" d="M502.504 501.974H492.504V511.974H502.504V501.974Z" fill="black"/>
<path id="125_1" d="M502.504 512.974H492.504V522.974H502.504V512.974Z" fill="black"/>
<path id="125_2" d="M502.504 523.974H492.504V533.974H502.504V523.974Z" fill="black"/>
<path id="125_3" d="M502.504 534.974H492.504V544.974H502.504V534.974Z" fill="black"/>
</g>
<g id="col_28">
<path id="46_0" d="M491.504 369.974H481.504V379.974H491.504V369.974Z" fill="black"/>
<path id="46_1" d="M491.504 380.974H481.504V390.974H491.504V380.974Z" fill="black"/>
<path id="46_2" d="M491.504 391.974H481.504V401.974H491.504V391.974Z" fill="black"/>
<path id="46_3" d="M491.504 402.974H481.504V412.974H491.504V402.974Z" fill="black"/>
<path id="47_0" d="M491.504 413.974H481.504V423.974H491.504V413.974Z" fill="black"/>
<path id="47_1" d="M491.504 424.974H481.504V434.974H491.504V424.974Z" fill="black"/>
<path id="47_2" d="M491.504 435.974H481.504V445.974H491.504V435.974Z" fill="black"/>
<path id="47_3" d="M491.504 446.974H481.504V456.974H491.504V446.974Z" fill="black"/>
<path id="126_0" d="M491.504 457.974H481.504V467.974H491.504V457.974Z" fill="black"/>
<path id="126_1" d="M491.504 468.974H481.504V478.974H491.504V468.974Z" fill="black"/>
<path id="126_2" d="M491.504 479.974H481.504V489.974H491.504V479.974Z" fill="black"/>
<path id="126_3" d="M491.504 490.974H481.504V500.974H491.504V490.974Z" fill="black"/>
<path id="127_0" d="M491.504 501.974H481.504V511.974H491.504V501.974Z" fill="black"/>
<path id="127_1" d="M491.504 512.974H481.504V522.974H491.504V512.974Z" fill="black"/>
<path id="127_2" d="M491.504 523.974H481.504V533.974H491.504V523.974Z" fill="black"/>
<path id="127_3" d="M491.504 534.974H481.504V544.974H491.504V534.974Z" fill="black"/>
</g>
<g id="col_27">
<path id="48_0" d="M480.504 369.974H470.504V379.974H480.504V369.974Z" fill="black"/>
<path id="48_1" d="M480.504 380.974H470.504V390.974H480.504V380.974Z" fill="black"/>
<path id="48_2" d="M480.504 391.974H470.504V401.974H480.504V391.974Z" fill="black"/>
<path id="48_3" d="M480.504 402.974H470.504V412.974H480.504V402.974Z" fill="black"/>
<path id="49_0" d="M480.504 413.974H470.504V423.974H480.504V413.974Z" fill="black"/>
<path id="49_1" d="M480.504 424.974H470.504V434.974H480.504V424.974Z" fill="black"/>
<path id="49_2" d="M480.504 435.974H470.504V445.974H480.504V435.974Z" fill="black"/>
<path id="49_3" d="M480.504 446.974H470.504V456.974H480.504V446.974Z" fill="black"/>
<path id="128_0" d="M480.504 457.974H470.504V467.974H480.504V457.974Z" fill="black"/>
<path id="128_1" d="M480.504 468.974H470.504V478.974H480.504V468.974Z" fill="black"/>
<path id="128_2" d="M480.504 479.974H470.504V489.974H480.504V479.974Z" fill="black"/>
<path id="128_3" d="M480.504 490.974H470.504V500.974H480.504V490.974Z" fill="black"/>
<path id="129_0" d="M480.504 501.974H470.504V511.974H480.504V501.974Z" fill="black"/>
<path id="129_1" d="M480.504 512.974H470.504V522.974H480.504V512.974Z" fill="black"/>
<path id="129_2" d="M480.504 523.974H470.504V533.974H480.504V523.974Z" fill="black"/>
<path id="129_3" d="M480.504 534.974H470.504V544.974H480.504V534.974Z" fill="black"/>
</g>
<g id="col_26">
<path id="50_0" d="M469.504 369.974H459.504V379.974H469.504V369.974Z" fill="black"/>
<path id="50_1" d="M469.504 380.974H459.504V390.974H469.504V380.974Z" fill="black"/>
<path id="50_2" d="M469.504 391.974H459.504V401.974H469.504V391.974Z" fill="black"/>
<path id="50_3" d="M469.504 402.974H459.504V412.974H469.504V402.974Z" fill="black"/>
<path id="51_0" d="M469.504 413.974H459.504V423.974H469.504V413.974Z" fill="black"/>
<path id="51_1" d="M469.504 424.974H459.504V434.974H469.504V424.974Z" fill="black"/>
<path id="51_2" d="M469.504 435.974H459.504V445.974H469.504V435.974Z" fill="black"/>
<path id="51_3" d="M469.504 446.974H459.504V456.974H469.504V446.974Z" fill="black"/>
<path id="130_0" d="M469.504 457.974H459.504V467.974H469.504V457.974Z" fill="black"/>
<path id="130_1" d="M469.504 468.974H459.504V478.974H469.504V468.974Z" fill="black"/>
<path id="130_2" d="M469.504 479.974H459.504V489.974H469.504V479.974Z" fill="black"/>
<path id="130_3" d="M469.504 490.974H459.504V500.974H469.504V490.974Z" fill="black"/>
<path id="131_0" d="M469.504 501.974H459.504V511.974H469.504V501.974Z" fill="black"/>
<path id="131_1" d="M469.504 512.974H459.504V522.974H469.504V512.974Z" fill="black"/>
<path id="131_2" d="M469.504 523.974H459.504V533.974H469.504V523.974Z" fill="black"/>
<path id="131_3" d="M469.504 534.974H459.504V544.974H469.504V534.974Z" fill="black"/>
</g>
<g id="col_25">
<path id="52_0" d="M458.504 369.974H448.504V379.974H458.504V369.974Z" fill="black"/>
<path id="52_1" d="M458.504 380.974H448.504V390.974H458.504V380.974Z" fill="black"/>
<path id="52_2" d="M458.504 391.974H448.504V401.974H458.504V391.974Z" fill="black"/>
<path id="52_3" d="M458.504 402.974H448.504V412.974H458.504V402.974Z" fill="black"/>
<path id="53_0" d="M458.504 413.974H448.504V423.974H458.504V413.974Z" fill="black"/>
<path id="53_1" d="M458.504 424.974H448.504V434.974H458.504V424.974Z" fill="black"/>
<path id="53_2" d="M458.504 435.974H448.504V445.974H458.504V435.974Z" fill="black"/>
<path id="53_3" d="M458.504 446.974H448.504V456.974H458.504V446.974Z" fill="black"/>
<path id="132_0" d="M458.504 457.974H448.504V467.974H458.504V457.974Z" fill="black"/>
<path id="132_1" d="M458.504 468.974H448.504V478.974H458.504V468.974Z" fill="black"/>
<path id="132_2" d="M458.504 479.974H448.504V489.974H458.504V479.974Z" fill="black"/>
<path id="132_3" d="M458.504 490.974H448.504V500.974H458.504V490.974Z" fill="black"/>
<path id="133_0" d="M458.504 501.974H448.504V511.974H458.504V501.974Z" fill="black"/>
<path id="133_1" d="M458.504 512.974H448.504V522.974H458.504V512.974Z" fill="black"/>
<path id="133_2" d="M458.504 523.974H448.504V533.974H458.504V523.974Z" fill="black"/>
<path id="133_3" d="M458.504 534.974H448.504V544.974H458.504V534.974Z" fill="black"/>
</g>
<g id="col_24">
<path id="54_0" d="M447.504 369.974H437.504V379.974H447.504V369.974Z" fill="black"/>
<path id="54_1" d="M447.504 380.974H437.504V390.974H447.504V380.974Z" fill="black"/>
<path id="54_2" d="M447.504 391.974H437.504V401.974H447.504V391.974Z" fill="black"/>
<path id="54_3" d="M447.504 402.974H437.504V412.974H447.504V402.974Z" fill="black"/>
<path id="55_0" d="M447.504 413.974H437.504V423.974H447.504V413.974Z" fill="black"/>
<path id="55_1" d="M447.504 424.974H437.504V434.974H447.504V424.974Z" fill="black"/>
<path id="55_2" d="M447.504 435.974H437.504V445.974H447.504V435.974Z" fill="black"/>
<path id="55_3" d="M447.504 446.974H437.504V456.974H447.504V446.974Z" fill="black"/>
<path id="134_0" d="M447.504 457.974H437.504V467.974H447.504V457.974Z" fill="black"/>
<path id="134_1" d="M447.504 468.974H437.504V478.974H447.504V468.974Z" fill="black"/>
<path id="134_2" d="M447.504 479.974H437.504V489.974H447.504V479.974Z" fill="black"/>
<path id="134_3" d="M447.504 490.974H437.504V500.974H447.504V490.974Z" fill="black"/>
<path id="135_0" d="M447.504 501.974H437.504V511.974H447.504V501.974Z" fill="black"/>
<path id="135_1" d="M447.504 512.974H437.504V522.974H447.504V512.974Z" fill="black"/>
<path id="135_2" d="M447.504 523.974H437.504V533.974H447.504V523.974Z" fill="black"/>
<path id="135_3" d="M447.504 534.974H437.504V544.974H447.504V534.974Z" fill="black"/>
</g>
<g id="col_23">
<path id="58_0" d="M436.504 369.974H426.504V379.974H436.504V369.974Z" fill="black"/>
<path id="58_1" d="M436.504 380.974H426.504V390.974H436.504V380.974Z" fill="black"/>
<path id="58_2" d="M436.504 391.974H426.504V401.974H436.504V391.974Z" fill="black"/>
<path id="58_3" d="M436.504 402.974H426.504V412.974H436.504V402.974Z" fill="black"/>
<path id="59_0" d="M436.504 413.974H426.504V423.974H436.504V413.974Z" fill="black"/>
<path id="59_1" d="M436.504 424.974H426.504V434.974H436.504V424.974Z" fill="black"/>
<path id="59_2" d="M436.504 435.974H426.504V445.974H436.504V435.974Z" fill="black"/>
<path id="59_3" d="M436.504 446.974H426.504V456.974H436.504V446.974Z" fill="black"/>
<path id="138_0" d="M436.504 457.974H426.504V467.974H436.504V457.974Z" fill="black"/>
<path id="138_1" d="M436.504 468.974H426.504V478.974H436.504V468.974Z" fill="black"/>
<path id="138_2" d="M436.504 479.974H426.504V489.974H436.504V479.974Z" fill="black"/>
<path id="138_3" d="M436.504 490.974H426.504V500.974H436.504V490.974Z" fill="black"/>
<path id="139_0" d="M436.504 501.974H426.504V511.974H436.504V501.974Z" fill="black"/>
<path id="139_1" d="M436.504 512.974H426.504V522.974H436.504V512.974Z" fill="black"/>
<path id="139_2" d="M436.504 523.974H426.504V533.974H436.504V523.974Z" fill="black"/>
<path id="139_3" d="M436.504 534.974H426.504V544.974H436.504V534.974Z" fill="black"/>
</g>
<g id="col_22">
<path id="60_0" d="M425.504 369.974H415.504V379.974H425.504V369.974Z" fill="black"/>
<path id="60_1" d="M425.504 380.974H415.504V390.974H425.504V380.974Z" fill="black"/>
<path id="60_2" d="M425.504 391.974H415.504V401.974H425.504V391.974Z" fill="black"/>
<path id="60_3" d="M425.504 402.974H415.504V412.974H425.504V402.974Z" fill="black"/>
<path id="61_0" d="M425.504 413.974H415.504V423.974H425.504V413.974Z" fill="black"/>
<path id="61_1" d="M425.504 424.974H415.504V434.974H425.504V424.974Z" fill="black"/>
<path id="61_2" d="M425.504 435.974H415.504V445.974H425.504V435.974Z" fill="black"/>
<path id="61_3" d="M425.504 446.974H415.504V456.974H425.504V446.974Z" fill="black"/>
<path id="140_0" d="M425.504 457.974H415.504V467.974H425.504V457.974Z" fill="black"/>
<path id="140_1" d="M425.504 468.974H415.504V478.974H425.504V468.974Z" fill="black"/>
<path id="140_2" d="M425.504 479.974H415.504V489.974H425.504V479.974Z" fill="black"/>
<path id="140_3" d="M425.504 490.974H415.504V500.974H425.504V490.974Z" fill="black"/>
<path id="141_0" d="M425.504 501.974H415.504V511.974H425.504V501.974Z" fill="black"/>
<path id="141_1" d="M425.504 512.974H415.504V522.974H425.504V512.974Z" fill="black"/>
<path id="141_2" d="M425.504 523.974H415.504V533.974H425.504V523.974Z" fill="black"/>
<path id="141_3" d="M425.504 534.974H415.504V544.974H425.504V534.974Z" fill="black"/>
</g>
<g id="col_21">
<path id="62_0" d="M414.504 369.974H404.504V379.974H414.504V369.974Z" fill="black"/>
<path id="62_1" d="M414.504 380.974H404.504V390.974H414.504V380.974Z" fill="black"/>
<path id="62_2" d="M414.504 391.974H404.504V401.974H414.504V391.974Z" fill="black"/>
<path id="62_3" d="M414.504 402.974H404.504V412.974H414.504V402.974Z" fill="black"/>
<path id="63_0" d="M414.504 413.974H404.504V423.974H414.504V413.974Z" fill="black"/>
<path id="63_1" d="M414.504 424.974H404.504V434.974H414.504V424.974Z" fill="black"/>
<path id="63_2" d="M414.504 435.974H404.504V445.974H414.504V435.974Z" fill="black"/>
<path id="63_3" d="M414.504 446.974H404.504V456.974H414.504V446.974Z" fill="black"/>
<path id="142_0" d="M414.504 457.974H404.504V467.974H414.504V457.974Z" fill="black"/>
<path id="142_1" d="M414.504 468.974H404.504V478.974H414.504V468.974Z" fill="black"/>
<path id="142_2" d="M414.504 479.974H404.504V489.974H414.504V479.974Z" fill="black"/>
<path id="142_3" d="M414.504 490.974H404.504V500.974H414.504V490.974Z" fill="black"/>
<path id="143_0" d="M414.504 501.974H404.504V511.974H414.504V501.974Z" fill="black"/>
<path id="143_1" d="M414.504 512.974H404.504V522.974H414.504V512.974Z" fill="black"/>
<path id="143_2" d="M414.504 523.974H404.504V533.974H414.504V523.974Z" fill="black"/>
<path id="143_3" d="M414.504 534.974H404.504V544.974H414.504V534.974Z" fill="black"/>
</g>
<g id="col_20">
<path id="64_0" d="M403.504 369.974H393.504V379.974H403.504V369.974Z" fill="black"/>
<path id="64_1" d="M403.504 380.974H393.504V390.974H403.504V380.974Z" fill="black"/>
<path id="64_2" d="M403.504 391.974H393.504V401.974H403.504V391.974Z" fill="black"/>
<path id="64_3" d="M403.504 402.974H393.504V412.974H403.504V402.974Z" fill="black"/>
<path id="65_0" d="M403.504 413.974H393.504V423.974H403.504V413.974Z" fill="black"/>
<path id="65_1" d="M403.504 424.974H393.504V434.974H403.504V424.974Z" fill="black"/>
<path id="65_2" d="M403.504 435.974H393.504V445.974H403.504V435.974Z" fill="black"/>
<path id="65_3" d="M403.504 446.974H393.504V456.974H403.504V446.974Z" fill="black"/>
<path id="144_0" d="M403.504 457.974H393.504V467.974H403.504V457.974Z" fill="black"/>
<path id="144_1" d="M403.504 468.974H393.504V478.974H403.504V468.974Z" fill="black"/>
<path id="144_2" d="M403.504 479.974H393.504V489.974H403.504V479.974Z" fill="black"/>
<path id="144_3" d="M403.504 490.974H393.504V500.974H403.504V490.974Z" fill="black"/>
<path id="145_0" d="M403.504 501.974H393.504V511.974H403.504V501.974Z" fill="black"/>
<path id="145_1" d="M403.504 512.974H393.504V522.974H403.504V512.974Z" fill="black"/>
<path id="145_2" d="M403.504 523.974H393.504V533.974H403.504V523.974Z" fill="black"/>
<path id="145_3" d="M403.504 534.974H393.504V544.974H403.504V534.974Z" fill="black"/>
</g>
<g id="col_19">
<path id="66_0" d="M392.504 369.974H382.504V379.974H392.504V369.974Z" fill="black"/>
<path id="66_1" d="M392.504 380.974H382.504V390.974H392.504V380.974Z" fill="black"/>
<path id="66_2" d="M392.504 391.974H382.504V401.974H392.504V391.974Z" fill="black"/>
<path id="66_3" d="M392.504 402.974H382.504V412.974H392.504V402.974Z" fill="black"/>
<path id="67_0" d="M392.504 413.974H382.504V423.974H392.504V413.974Z" fill="black"/>
<path id="67_1" d="M392.504 424.974H382.504V434.974H392.504V424.974Z" fill="black"/>
<path id="67_2" d="M392.504 435.974H382.504V445.974H392.504V435.974Z" fill="black"/>
<path id="67_3" d="M392.504 446.974H382.504V456.974H392.504V446.974Z" fill="black"/>
<path id="146_0" d="M392.504 457.974H382.504V467.974H392.504V457.974Z" fill="black"/>
<path id="146_1" d="M392.504 468.974H382.504V478.974H392.504V468.974Z" fill="black"/>
<path id="146_2" d="M392.504 479.974H382.504V489.974H392.504V479.974Z" fill="black"/>
<path id="146_3" d="M392.504 490.974H382.504V500.974H392.504V490.974Z" fill="black"/>
<path id="147_0" d="M392.504 501.974H382.504V511.974H392.504V501.974Z" fill="black"/>
<path id="147_1" d="M392.504 512.974H382.504V522.974H392.504V512.974Z" fill="black"/>
<path id="147_2" d="M392.504 523.974H382.504V533.974H392.504V523.974Z" fill="black"/>
<path id="147_3" d="M392.504 534.974H382.504V544.974H392.504V534.974Z" fill="black"/>
</g>
<g id="col_18">
<path id="68_0" d="M381.504 369.974H371.504V379.974H381.504V369.974Z" fill="black"/>
<path id="68_1" d="M381.504 380.974H371.504V390.974H381.504V380.974Z" fill="black"/>
<path id="68_2" d="M381.504 391.974H371.504V401.974H381.504V391.974Z" fill="black"/>
<path id="68_3" d="M381.504 402.974H371.504V412.974H381.504V402.974Z" fill="black"/>
<path id="69_0" d="M381.504 413.974H371.504V423.974H381.504V413.974Z" fill="black"/>
<path id="69_1" d="M381.504 424.974H371.504V434.974H381.504V424.974Z" fill="black"/>
<path id="69_2" d="M381.504 435.974H371.504V445.974H381.504V435.974Z" fill="black"/>
<path id="69_3" d="M381.504 446.974H371.504V456.974H381.504V446.974Z" fill="black"/>
<path id="148_0" d="M381.504 457.974H371.504V467.974H381.504V457.974Z" fill="black"/>
<path id="148_1" d="M381.504 468.974H371.504V478.974H381.504V468.974Z" fill="black"/>
<path id="148_2" d="M381.504 479.974H371.504V489.974H381.504V479.974Z" fill="black"/>
<path id="148_3" d="M381.504 490.974H371.504V500.974H381.504V490.974Z" fill="black"/>
<path id="149_0" d="M381.504 501.974H371.504V511.974H381.504V501.974Z" fill="black"/>
<path id="149_1" d="M381.504 512.974H371.504V522.974H381.504V512.974Z" fill="black"/>
<path id="149_2" d="M381.504 523.974H371.504V533.974H381.504V523.974Z" fill="black"/>
<path id="149_3" d="M381.504 534.974H371.504V544.974H381.504V534.974Z" fill="black"/>
</g>
<g id="col_17">
<path id="70_0" d="M370.504 369.974H360.504V379.974H370.504V369.974Z" fill="black"/>
<path id="70_1" d="M370.504 380.974H360.504V390.974H370.504V380.974Z" fill="black"/>
<path id="70_2" d="M370.504 391.974H360.504V401.974H370.504V391.974Z" fill="black"/>
<path id="70_3" d="M370.504 402.974H360.504V412.974H370.504V402.974Z" fill="black"/>
<path id="71_0" d="M370.504 413.974H360.504V423.974H370.504V413.974Z" fill="black"/>
<path id="71_1" d="M370.504 424.974H360.504V434.974H370.504V424.974Z" fill="black"/>
<path id="71_2" d="M370.504 435.974H360.504V445.974H370.504V435.974Z" fill="black"/>
<path id="71_3" d="M370.504 446.974H360.504V456.974H370.504V446.974Z" fill="black"/>
<path id="150_0" d="M370.504 457.974H360.504V467.974H370.504V457.974Z" fill="black"/>
<path id="150_1" d="M370.504 468.974H360.504V478.974H370.504V468.974Z" fill="black"/>
<path id="150_2" d="M370.504 479.974H360.504V489.974H370.504V479.974Z" fill="black"/>
<path id="150_3" d="M370.504 490.974H360.504V500.974H370.504V490.974Z" fill="black"/>
<path id="151_0" d="M370.504 501.974H360.504V511.974H370.504V501.974Z" fill="black"/>
<path id="151_1" d="M370.504 512.974H360.504V522.974H370.504V512.974Z" fill="black"/>
<path id="151_2" d="M370.504 523.974H360.504V533.974H370.504V523.974Z" fill="black"/>
<path id="151_3" d="M370.504 534.974H360.504V544.974H370.504V534.974Z" fill="black"/>
</g>
<g id="col_16">
<path id="72_0" d="M359.504 369.974H349.504V379.974H359.504V369.974Z" fill="black"/>
<path id="72_1" d="M359.504 380.974H349.504V390.974H359.504V380.974Z" fill="black"/>
<path id="72_2" d="M359.504 391.974H349.504V401.974H359.504V391.974Z" fill="black"/>
<path id="72_3" d="M359.504 402.974H349.504V412.974H359.504V402.974Z" fill="black"/>
<path id="73_0" d="M359.504 413.974H349.504V423.974H359.504V413.974Z" fill="black"/>
<path id="73_1" d="M359.504 424.974H349.504V434.974H359.504V424.974Z" fill="black"/>
<path id="73_2" d="M359.504 435.974H349.504V445.974H359.504V435.974Z" fill="black"/>
<path id="73_3" d="M359.504 446.974H349.504V456.974H359.504V446.974Z" fill="black"/>
<path id="152_0" d="M359.504 457.974H349.504V467.974H359.504V457.974Z" fill="black"/>
<path id="152_1" d="M359.504 468.974H349.504V478.974H359.504V468.974Z" fill="black"/>
<path id="152_2" d="M359.504 479.974H349.504V489.974H359.504V479.974Z" fill="black"/>
<path id="152_3" d="M359.504 490.974H349.504V500.974H359.504V490.974Z" fill="black"/>
<path id="153_0" d="M359.504 501.974H349.504V511.974H359.504V501.974Z" fill="black"/>
<path id="153_1" d="M359.504 512.974H349.504V522.974H359.504V512.974Z" fill="black"/>
<path id="153_2" d="M359.504 523.974H349.504V533.974H359.504V523.974Z" fill="black"/>
<path id="153_3" d="M359.504 534.974H349.504V544.974H359.504V534.974Z" fill="black"/>
</g>
<g id="16_0">
<path d="M220.651 314.26C218.65 314.215 218.468 303.297 215.5 303.974C212.533 304.651 215.553 318.351 216.346 320.721C217.139 323.091 221.704 325.345 221.929 328.333C222.153 331.321 214.2 347.332 225.542 347.816C236.885 348.3 227.41 332.497 227.133 328.333C226.856 324.17 232.648 322.198 232.77 318.976C232.891 315.754 232.706 308.574 232.586 307.696C232.465 306.817 231.91 302.865 229.964 302.959C228.017 303.054 228.674 305.336 228.779 309.218C228.885 313.1 229.323 315.587 227.098 315.587C224.874 315.587 225.291 311.918 225.143 309.218C224.994 306.519 224.938 303.729 223.199 303.974C221.459 304.219 221.97 307.087 222.061 309.218C222.152 311.349 222.653 314.306 220.651 314.26Z" fill="black"/>
<path d="M240.894 307.696C240.894 307.696 237.548 328.59 238.054 330.242C238.561 331.895 244.1 333.064 244.429 335.199C245.109 339.619 238.803 347.707 247.78 347.816C252.275 347.871 252.154 343.125 252.154 343.125L250.615 307.696C250.615 307.696 250.163 302.674 246.16 302.959C242.157 303.245 240.894 307.696 240.894 307.696Z" fill="black"/>
</g>
<g id="16_1">
<path d="M298.724 329.872C300.009 334.749 306.551 338.023 306.551 338.023C307.895 338.023 309.537 338.36 308.951 337.206C308.951 337.206 300.711 329.872 302.963 323.377C305.216 316.882 310.591 320.739 310.591 320.739C310.591 320.739 316.751 314.108 320.723 321.258C324.696 328.409 318.076 336.619 318.076 336.619C317.531 338.141 318.798 338.502 320.072 338.282C320.072 338.282 325.981 332.581 325.888 324.172C325.795 315.763 323.813 309.136 311.454 310.135C299.095 311.134 296.178 320.214 298.724 329.872Z" fill="black"/>
<path d="M306.051 327.785C307.035 332.05 313.814 336.897 313.814 336.897C313.814 336.897 318.88 331.576 318.479 327.567C318.078 323.558 316.438 321.735 315.563 321.48C314.689 321.225 313.632 321.407 313.632 322.136C313.632 322.865 315.782 323.12 315.563 326.874C315.345 330.628 309.534 330.956 308.951 327.567C308.368 324.177 309.769 322.902 309.331 322.136C308.894 321.371 305.067 323.521 306.051 327.785Z" fill="black"/>
<path d="M310.591 324.922C310.591 323.576 311.472 323.394 311.813 323.377C312.154 323.36 313.014 323.753 313.146 324.922C313.279 326.091 312.624 327.209 311.977 327.184C311.331 327.159 310.591 326.268 310.591 324.922Z" fill="black"/>
<path d="M321.045 343.057L306.073 343.267C306.073 343.267 305.124 343.267 305.124 342.172C305.124 341.076 306.423 340.295 306.922 340.28L319.989 340.129C320.631 340.146 321.709 341.01 321.709 342.033C321.709 343.057 321.045 343.057 321.045 343.057Z" fill="black"/>
<path d="M321.045 347.504L306.073 347.714C306.073 347.714 305.124 347.714 305.124 346.618C305.124 345.523 306.423 344.742 306.922 344.727L319.989 344.575C320.631 344.592 321.709 345.456 321.709 346.48C321.709 347.504 321.045 347.504 321.045 347.504Z" fill="black"/>
<path d="M330.444 341.418L326.264 334.022L334.504 337.206L330.444 341.418Z" fill="black"/>
<path d="M327.992 326.874L336.434 329.48V323.973L327.992 326.874Z" fill="black"/>
<path d="M331.891 310.387L334.665 315.211L327.309 316.014L331.891 310.387Z" fill="black"/>
<path d="M323.49 310.95L328.796 305.644L323.49 303.393V310.95Z" fill="black"/>
<path d="M311.454 307.654L314.245 302.71H308.015L311.454 307.654Z" fill="black"/>
<path d="M301.664 310.467L300.016 303.634L295.634 307.252L301.664 310.467Z" fill="black"/>
<path d="M295.835 316.014L291.374 311.271L288.359 315.532L295.835 316.014Z" fill="black"/>
<path d="M295.634 324.922L288.922 323.893L289.605 329.641L295.634 324.922Z" fill="black"/>
<path d="M296.237 341.418L291.977 338.023L298.724 334.264L296.237 341.418Z" fill="black"/>
</g>
<g id="16_2">
<path d="M380.035 314.898C380.453 315.464 380.423 316.196 379.966 316.534C379.51 316.871 378.801 316.687 378.382 316.122C377.964 315.557 377.995 314.825 378.451 314.487C378.907 314.149 379.617 314.333 380.035 314.898Z" fill="black"/>
<path d="M380.118 311.517C379.664 312.153 378.971 312.437 378.57 312.151C378.169 311.865 378.212 311.118 378.666 310.481C379.12 309.845 379.813 309.561 380.214 309.847C380.615 310.133 380.572 310.881 380.118 311.517Z" fill="black"/>
<path d="M375.975 312.408C375.598 312.802 374.877 312.724 374.363 312.233C373.85 311.743 373.739 311.026 374.115 310.632C374.491 310.237 375.213 310.316 375.726 310.806C376.24 311.297 376.351 312.014 375.975 312.408Z" fill="black"/>
<path d="M375.448 316.422C374.95 317.08 374.145 317.311 373.651 316.937C373.157 316.563 373.161 315.726 373.66 315.068C374.159 314.409 374.963 314.178 375.457 314.552C375.951 314.926 375.947 315.763 375.448 316.422Z" fill="black"/>
<path fill-rule="evenodd" clip-rule="evenodd" d="M387.377 313.592C387.477 299.469 366.39 300.409 366.497 314.166C366.602 327.622 387.277 327.715 387.377 313.592ZM368.952 314.246C368.829 310.724 371.127 308.399 371.127 308.399L372.624 309.632L373.61 308.769L372.624 307.228C372.624 307.228 373.957 305.762 377.1 305.613C380.244 305.465 381.613 306.62 381.613 306.62L380.575 308.399L381.438 309.2L383.138 308.048C383.138 308.048 385.097 309.576 385.021 313.672C384.946 317.768 382.424 319.863 382.424 319.863L380.905 318.507L379.971 319.053L380.575 321.034C380.575 321.034 379.409 321.843 376.816 321.808C374.222 321.773 372.932 320.514 372.932 320.514L373.61 318.507L372.932 317.957L371.127 319.053C371.127 319.053 369.075 317.768 368.952 314.246Z" fill="black"/>
<path d="M375.853 336.702C371.815 334.327 366.875 337.902 372.035 344.352C377.194 350.802 380.367 344.538 379.124 341.191C404.618 328.998 420.852 317.27 414.788 310.229C408.723 303.188 395.646 316.672 375.853 336.702Z" fill="black"/>
</g>
<g id="16_3">
<path d="M476.759 303.787C476.486 304.662 489.816 327.213 491.646 327.369C493.476 327.526 495.114 325.092 495.219 323.367C495.324 321.641 484.556 303.224 481.955 302.391C479.355 301.558 477.033 302.912 476.759 303.787Z" fill="black"/>
<path fill-rule="evenodd" clip-rule="evenodd" d="M446.649 338.315C444.913 340.119 442.129 343.012 442.987 344.271C443.845 345.529 446.961 343.664 448.943 342.478C449.71 342.019 450.307 341.661 450.538 341.626C450.912 341.568 451.768 342.631 452.729 343.824C453.891 345.267 455.207 346.9 456.008 346.969C457.472 347.097 471.276 339.272 476.492 334.692C476.492 334.692 478.457 337.596 479.16 337.448C479.864 337.3 482.09 335.773 481.955 335.064C481.221 333.789 480.166 331.865 478.935 329.62C474.849 322.167 468.827 311.182 466.187 308.738C465.296 308.483 462.827 310.332 462.815 311.282C462.804 312.232 464.28 314.264 464.28 314.264C455.309 320.315 445.172 328.618 444.96 329.556C444.856 330.018 445.655 331.615 446.451 333.208C447.27 334.844 448.086 336.477 447.92 336.872C447.829 337.089 447.316 337.622 446.649 338.315ZM457.118 324.432C457.514 322.937 465.192 317.606 466.975 317.755C468.758 317.903 474.999 330.187 474.9 331.376C474.801 332.565 468.164 337.914 466.034 337.815C463.904 337.716 456.722 325.927 457.118 324.432Z" fill="black"/>
<path d="M472.891 312.386C472.944 311.492 474.522 309.598 475.732 309.756C476.942 309.914 485.096 323.591 485.201 324.432C485.306 325.274 483.255 326.886 482.061 326.623C480.867 326.36 472.839 313.28 472.891 312.386Z" fill="black"/>
</g>
<g id="137_0">
<path d="M228.803 587.752C227.617 587.555 228.074 583.89 229.547 584.285C231.019 584.68 229.988 587.95 228.803 587.752Z" fill="black"/>
<path d="M224.457 585.623C223.272 585.426 223.729 581.761 225.201 582.156C226.674 582.551 225.642 585.821 224.457 585.623Z" fill="black"/>
<path d="M242.581 586.639C242.171 585.545 236.018 583.522 235.007 583.668C233.995 583.815 233.241 585.737 233.557 586.639C233.874 587.541 239.6 589.783 240.721 589.565C241.842 589.346 242.991 587.733 242.581 586.639Z" fill="black"/>
<path fill-rule="evenodd" clip-rule="evenodd" d="M212.31 596.45C212.183 593.502 217.926 587.447 217.926 587.447C217.926 587.447 215.558 573.696 228.201 572.797C240.844 571.898 241.025 580.354 241.025 580.354C246.544 580.354 249.697 578.944 252.273 577.793C254.053 576.997 255.557 576.325 257.376 576.325C261.829 576.325 264.916 579.206 265.109 580.903C265.207 581.761 264.657 582.514 264.041 583.357C263.438 584.184 262.772 585.096 262.589 586.278C266.501 605.631 260.7 614.217 239.366 615.188C226.145 615.79 213.566 609.309 219.459 598.588C219.459 598.588 212.436 599.397 212.31 596.45ZM228.201 576.623C219.506 577.436 220.769 586.987 220.769 586.987C220.769 586.987 224.23 586.866 226.39 588.624C228.549 590.382 228.55 592.619 227.813 594.669C227.731 594.896 227.332 595.168 226.781 595.545C225.157 596.655 222.215 598.664 222.215 603.048C222.215 608.918 228.824 611.841 239.366 611.382C258.089 610.567 261.748 600.436 258.963 586.987C258.853 585.838 259.246 584.99 259.587 584.255C259.906 583.567 260.179 582.977 259.952 582.329C259.483 580.99 258.434 580.146 257.235 580.146C254.152 582.363 251.621 582.639 250.04 582.812C248.924 582.934 248.281 583.005 248.25 583.668C248.228 584.136 248.759 584.211 249.539 584.322C251.438 584.591 254.815 585.07 255.316 591.907C256.023 601.556 235.54 603.983 233.309 598.588C231.079 593.194 233.211 590.243 233.874 590.013C234.537 589.783 237.433 590.57 237.098 591.907C237.071 592.016 237.025 592.164 236.969 592.344C236.336 594.378 234.465 600.39 244.989 597.409C256.445 594.164 252.471 585.904 245.09 586.38C242.672 581.704 236.896 581.456 236.896 581.456C236.896 581.456 236.896 575.81 228.201 576.623ZM215.618 595.43C214.85 593.478 219.321 589.421 221.1 589.355C222.879 589.289 225.179 591.57 225.201 593.412C225.223 595.255 216.385 597.382 215.618 595.43Z" fill="black"/>
<path d="M216.245 578.448C216.062 579.024 216.159 579.759 216.235 580.347C216.294 580.795 216.341 581.157 216.245 581.297C216.022 581.619 213.322 579.835 213.843 577.631C214.363 575.427 217.749 575.617 217.926 576.12C218.013 576.369 217.681 576.694 217.284 577.081C216.879 577.476 216.408 577.936 216.245 578.448Z" fill="black"/>
</g>
<g id="137_1">
<path d="M316.874 593.903C316.69 593.005 316.59 583.274 316.59 582.295C316.59 581.315 319.311 581.184 319.311 582.295V593.903C319.311 594.525 317.058 594.801 316.874 593.903Z" fill="black"/>
<path d="M306.728 589.067C307.288 590.839 307.977 593.018 308.455 593.278C309.185 593.676 310.153 592.645 310.153 591.82C310.153 590.995 308.841 585.939 308.122 585.205C307.402 584.472 305.494 585.872 306.001 586.949C306.175 587.32 306.434 588.138 306.728 589.067Z" fill="black"/>
<path d="M297.517 589.706C297.566 588.931 298.582 588.112 299.331 588.151C300.081 588.19 303.738 596.046 303.903 596.918C304.068 597.79 302.654 598.779 302.207 598.45C301.759 598.12 297.468 590.482 297.517 589.706Z" fill="black"/>
<path d="M324.527 591.31C324.724 590.097 326.102 585.964 326.954 585.406C327.807 584.849 329.185 585.833 329.185 586.718C329.185 587.604 327.348 592.327 326.626 592.852C325.905 593.377 324.33 592.524 324.527 591.31Z" fill="black"/>
<path d="M331.71 598.494C330.952 598.975 329.318 597.212 329.742 596.493C329.81 596.379 329.956 596.11 330.159 595.736C331.234 593.758 333.904 588.843 334.925 588.457C336.138 587.998 337.385 589.572 336.794 590.654C336.204 591.737 332.468 598.012 331.71 598.494Z" fill="black"/>
<path d="M312.676 590.077C311.705 590.376 311.203 606.608 311.203 606.608L317.391 606.335C317.391 606.335 313.646 589.777 312.676 590.077Z" fill="black"/>
<path fill-rule="evenodd" clip-rule="evenodd" d="M343.918 589.871C343.918 583.547 330.826 575.713 317.657 575.343C304.487 574.972 291.396 581.982 290.503 588.075C289.61 594.167 296.35 613.169 302.013 614.037C304.594 614.432 305.573 614.071 306.957 613.562C308.609 612.953 310.838 612.132 317.061 612.132C323.669 612.132 326.545 613.44 328.532 614.343C329.984 615.003 330.962 615.448 332.574 615.01C336.2 614.024 337.272 611.097 338.854 606.78C338.939 606.549 339.025 606.314 339.113 606.076C339.657 604.6 340.226 603.22 340.775 601.889C342.44 597.85 343.918 594.269 343.918 589.871ZM340.217 590.696C340.217 586.13 329.416 578.431 317.518 578.736C305.621 579.041 294.82 584.202 294.048 589.217C293.277 594.233 300.028 610.887 303.115 611.337C304.347 611.517 305.169 611.215 306.367 610.775C308.17 610.113 310.823 609.138 317.004 609.022C322.964 608.911 326.378 610.267 328.67 611.177C330.335 611.838 331.409 612.265 332.437 611.724C333.515 611.156 334.925 607.686 336.423 603.815C338.32 598.913 340.217 593.247 340.217 590.696Z" fill="black"/>
</g>
<g id="137_2">
<path d="M383.256 599.457L395.04 587.734C391.829 581.958 367.327 581.597 369.031 600.711C370.736 619.825 397.704 617.605 399.574 605.837L383.256 600.711C382.874 600.422 382.817 599.876 383.256 599.457Z" fill="black"/>
<path d="M399.574 588.092C398.712 588.831 400.105 592.465 399.574 594.943C397.776 593.423 394.975 591.338 394.398 592.678C393.821 594.018 395.896 594.866 398.113 597.353C400.33 599.84 399.97 602.516 401.561 602.302C403.152 602.089 402.792 596.669 402.419 592.678C407.938 595.575 407.821 605.275 410.117 604.919C412.413 604.563 412.081 596.819 411.333 588.87C419.264 597.837 415.294 611.069 418.049 610.997C420.803 610.926 422.827 597.774 422.291 591.132C421.754 584.491 419.625 572.867 416.575 574.063C413.524 575.258 420.418 581.494 419.264 595.868C417.667 590.532 409.784 579.073 407.794 580.449C405.804 581.825 409.643 589.44 408.802 595.586C405.904 589.667 400.436 587.354 399.574 588.092Z" fill="black"/>
</g>
<g id="137_3">
<path fill-rule="evenodd" clip-rule="evenodd" d="M474.892 586.555C482.528 578.805 501.683 584.602 498.385 602.118C495.087 619.634 473.501 615.572 470.383 604.764C463.359 611.788 444.975 609.187 445.842 591.324C446.709 573.461 469.812 572.897 474.892 586.555ZM470.558 600.398C465.735 609.317 446.709 604.695 449.444 590.227C452.179 575.759 471.424 578.823 473.007 590.624C473.111 591.396 474.508 591.481 474.745 591.095C481.176 580.6 497.965 588.042 495.367 600.923C492.764 613.831 476.484 614.317 473.043 601.937C472.764 600.933 470.801 599.948 470.558 600.398Z" fill="black"/>
<path d="M464.486 587.962C464.37 589.063 464.718 593.178 465.761 593.178C466.804 593.178 466.862 586.555 466.427 586.195C465.992 585.835 464.602 586.861 464.486 587.962Z" fill="black"/>
<path d="M456.78 586.977C456.867 586.253 458.141 584.949 458.634 585.239C459.126 585.529 458.953 591.931 457.996 591.96C457.04 591.989 456.693 587.702 456.78 586.977Z" fill="black"/>
<path d="M460.872 599.295C454.261 598.894 454.403 592.247 452.973 593.178C451.543 594.109 453.03 601.19 460.872 601.564C468.714 601.937 469.977 596.09 468.861 595.06C467.744 594.03 467.483 599.696 460.872 599.295Z" fill="black"/>
<path d="M484.535 597.044C478.035 596.384 478.685 592.138 476.485 592.788C474.284 593.437 477.177 599.255 484.535 599.519C491.893 599.783 493.985 595.716 492.19 594.602C490.396 593.488 491.035 597.704 484.535 597.044Z" fill="black"/>
<path d="M481.79 601.458C481.906 600.357 481.729 599.051 480.686 599.051C479.643 599.051 479.414 602.865 479.849 603.225C480.283 603.585 481.674 602.558 481.79 601.458Z" fill="black"/>
<path d="M490.135 601.937C490.048 602.661 488.774 603.965 488.281 603.675C487.789 603.385 488.04 599.342 488.996 599.313C489.952 599.284 490.222 601.212 490.135 601.937Z" fill="black"/>
</g>
</g>
<defs>
<linearGradient id="paint0_linear_0_1" x1="347.071" y1="0.304932" x2="347.071" y2="96.3049" gradientUnits="userSpaceOnUse">
<stop stop-color="white"/>
<stop offset="0.589656" stop-color="#F6F6F6"/>
<stop offset="1" stop-color="#DEDEDE"/>
</linearGradient>
<linearGradient id="paint1_linear_0_1" x1="346.439" y1="29.2141" x2="346.439" y2="71.117" gradientUnits="userSpaceOnUse">
<stop stop-color="#F3F3F3"/>
<stop offset="0.0001" stop-color="#E6E6E6"/>
<stop offset="1" stop-color="#FCFCFC"/>
</linearGradient>
<linearGradient id="paint2_linear_0_1" x1="347.89" y1="32.8002" x2="347.89" y2="857.62" gradientUnits="userSpaceOnUse">
<stop stop-color="white" stop-opacity="0"/>
<stop offset="0.00710607" stop-color="white"/>
<stop offset="0.54" stop-color="white"/>
<stop offset="1" stop-color="#D7D7D7"/>
</linearGradient>
<linearGradient id="paint3_linear_0_1" x1="0.0986331" y1="452.092" x2="695.682" y2="445.218" gradientUnits="userSpaceOnUse">
<stop stop-opacity="0.1"/>
<stop offset="0.224836" stop-color="white" stop-opacity="0"/>
<stop offset="0.76" stop-color="white" stop-opacity="0"/>
<stop offset="1" stop-opacity="0.1"/>
</linearGradient>
<linearGradient id="paint4_linear_0_1" x1="239.903" y1="786.265" x2="239.903" y2="721.818" gradientUnits="userSpaceOnUse">
<stop stop-color="#F8F8F8"/>
<stop offset="0.705" stop-color="#B3B3B3"/>
</linearGradient>
<linearGradient id="paint5_linear_0_1" x1="240.829" y1="726.718" x2="240.829" y2="778.718" gradientUnits="userSpaceOnUse">
<stop stop-color="#656565"/>
<stop offset="0.514439" stop-color="#3A3A3A"/>
<stop offset="1" stop-color="#161616"/>
</linearGradient>
<linearGradient id="paint6_linear_0_1" x1="240.829" y1="724.85" x2="240.829" y2="780.587" gradientUnits="userSpaceOnUse">
<stop offset="0.05" stop-color="#818181"/>
<stop offset="1"/>
</linearGradient>
<linearGradient id="paint7_linear_0_1" x1="347.855" y1="812.852" x2="347.855" y2="748.405" gradientUnits="userSpaceOnUse">
<stop stop-color="#F8F8F8"/>
<stop offset="0.705" stop-color="#B3B3B3"/>
</linearGradient>
<linearGradient id="paint8_linear_0_1" x1="348.781" y1="753.306" x2="348.781" y2="805.306" gradientUnits="userSpaceOnUse">
<stop stop-color="#656565"/>
<stop offset="0.514439" stop-color="#3A3A3A"/>
<stop offset="1" stop-color="#161616"/>
</linearGradient>
<linearGradient id="paint9_linear_0_1" x1="348.781" y1="751.437" x2="348.781" y2="807.174" gradientUnits="userSpaceOnUse">
<stop offset="0.05" stop-color="#818181"/>
<stop offset="1"/>
</linearGradient>
<linearGradient id="paint10_linear_0_1" x1="453.955" y1="786.265" x2="453.955" y2="721.818" gradientUnits="userSpaceOnUse">
<stop stop-color="#F8F8F8"/>
<stop offset="0.705" stop-color="#B3B3B3"/>
</linearGradient>
<linearGradient id="paint11_linear_0_1" x1="454.881" y1="726.718" x2="454.881" y2="778.718" gradientUnits="userSpaceOnUse">
<stop stop-color="#656565"/>
<stop offset="0.514439" stop-color="#3A3A3A"/>
<stop offset="1" stop-color="#161616"/>
</linearGradient>
<linearGradient id="paint12_linear_0_1" x1="454.881" y1="724.85" x2="454.881" y2="780.587" gradientUnits="userSpaceOnUse">
<stop offset="0.05" stop-color="#818181"/>
<stop offset="1"/>
</linearGradient>
<linearGradient id="paint13_linear_0_1" x1="349.004" y1="285.005" x2="349.004" y2="632.352" gradientUnits="userSpaceOnUse">
<stop stop-color="#D5D5D5"/>
<stop offset="1" stop-color="#E8E8E8"/>
</linearGradient>
<linearGradient id="paint14_linear_0_1" x1="349.004" y1="294.179" x2="349.004" y2="623.179" gradientUnits="userSpaceOnUse">
<stop stop-color="#D4D1A3"/>
<stop offset="0.055" stop-color="#E4E0B0"/>
<stop offset="1" stop-color="#E4E0B0"/>
</linearGradient>
<linearGradient id="paint15_linear_0_1" x1="339.25" y1="241.151" x2="348.979" y2="514.592" gradientUnits="userSpaceOnUse">
<stop stop-opacity="0.38"/>
<stop offset="0.346798" stop-opacity="0.0608328"/>
<stop offset="0.546239" stop-opacity="0.1"/>
<stop offset="0.904842" stop-opacity="0.06"/>
<stop offset="1" stop-opacity="0.43"/>
</linearGradient>
</defs>
</svg>
