<svg width="696" height="858" viewBox="0 0 696 858" fill="none" xmlns="http://www.w3.org/2000/svg">
<rect width="696" height="858" fill="#F5F5F5"/>
<g id="body">
<g id="shell">
<path id="Subtract" fill-rule="evenodd" clip-rule="evenodd" d="M346.543 96.305C373.052 96.305 396.819 74.8146 396.819 48.305C396.819 21.7953 373.052 0.304962 346.543 0.304962C320.033 0.304962 297.323 21.7953 297.323 48.305C297.323 74.8146 320.033 96.305 346.543 96.305ZM347.097 69.3216C357.59 69.3216 366.097 60.815 366.097 50.3216C366.097 39.8281 357.59 31.3216 347.097 31.3216C336.603 31.3216 328.097 39.8281 328.097 50.3216C328.097 60.815 336.603 69.3216 347.097 69.3216Z" fill="url(#paint0_linear_0_1)"/>
<path id="Subtract_2" d="M347.071 71.3385C358.669 71.3385 368.071 61.9365 368.071 50.3385C368.071 38.7405 358.669 29.3385 347.071 29.3385C335.473 29.3385 326.071 38.7405 326.071 50.3385C326.071 61.9365 335.473 71.3385 347.071 71.3385Z" stroke="url(#paint1_linear_0_1)" stroke-width="6"/>
<g id="Subtract_3">
<path d="M347.349 70.0971C364.994 70.0971 379.578 54.271 375.022 34.475C560.129 52.3631 695.682 261.654 695.682 495.389C695.682 589.592 634.732 857.62 347.89 857.62C61.048 857.62 0.0987549 593.598 0.0987549 495.389C0.0987549 262.576 135.817 53.7981 319.814 34.475C316.515 55.0566 329.705 70.0971 347.349 70.0971Z" fill="url(#paint2_linear_0_1)"/>
<path d="M347.349 70.0971C364.994 70.0971 379.578 54.271 375.022 34.475C560.129 52.3631 695.682 261.654 695.682 495.389C695.682 589.592 634.732 857.62 347.89 857.62C61.048 857.62 0.0987549 593.598 0.0987549 495.389C0.0987549 262.576 135.817 53.7981 319.814 34.475C316.515 55.0566 329.705 70.0971 347.349 70.0971Z" fill="url(#paint3_linear_0_1)"/>
</g>
</g>
<g id="buttons">
<path id="btnLeftHole" d="M286.753 758.996C288.585 732.79 268.036 710.021 240.878 708.121C213.721 706.222 190.203 725.91 188.37 752.116C186.538 778.322 207.087 801.092 234.244 802.991C261.402 804.89 284.92 785.202 286.753 758.996Z" fill="url(#paint4_linear_0_1)" stroke="url(#paint5_linear_0_1)" stroke-width="3.5"/>
<path id="btnLeftHole_2" d="M271.653 755.822C272.922 737.664 258.839 721.897 240.214 720.595C221.589 719.292 205.449 732.946 204.179 751.104C202.91 769.262 216.993 785.029 235.618 786.331C254.243 787.634 270.383 773.981 271.653 755.822Z" fill="#16242E" stroke="url(#paint6_linear_0_1)" stroke-width="3"/>
<path id="btnLeft" d="M209.158 751.191C208.078 766.635 219.727 779.998 235.136 781.076C250.545 782.153 263.941 770.541 265.021 755.097C266.101 739.653 254.452 726.29 239.043 725.212C223.633 724.135 210.238 735.747 209.158 751.191Z" fill="url(#paint7_linear_0_1)" stroke="url(#paint8_linear_0_1)" stroke-width="2"/>
<path id="btnCenterHole" d="M297.953 779.34C297.953 753.07 320.041 731.789 347.264 731.789C374.488 731.789 396.576 753.07 396.576 779.34C396.576 805.61 374.488 826.89 347.264 826.89C320.041 826.89 297.953 805.61 297.953 779.34Z" fill="url(#paint9_linear_0_1)" stroke="url(#paint10_linear_0_1)" stroke-width="3.5"/>
<path id="btnCenterHole_2" d="M313.233 777.228C313.233 759.025 328.381 744.279 347.052 744.279C365.722 744.279 380.871 759.025 380.871 777.228C380.871 795.431 365.722 810.176 347.052 810.176C328.381 810.176 313.233 795.431 313.233 777.228Z" fill="#16242E" stroke="url(#paint11_linear_0_1)" stroke-width="3"/>
<path id="btnCenter" d="M374.224 776.989C374.224 792.47 361.671 804.989 346.224 804.989C330.778 804.989 318.224 792.47 318.224 776.989C318.224 761.507 330.778 748.989 346.224 748.989C361.671 748.989 374.224 761.507 374.224 776.989Z" fill="url(#paint12_linear_0_1)" stroke="url(#paint13_linear_0_1)" stroke-width="2"/>
<path id="btnRightHole" d="M407.38 759.314C405.548 733.109 426.097 710.339 453.254 708.44C480.412 706.541 503.93 726.229 505.763 752.435C507.595 778.641 487.046 801.41 459.888 803.309C432.731 805.208 409.213 785.52 407.38 759.314Z" fill="url(#paint14_linear_0_1)" stroke="url(#paint15_linear_0_1)" stroke-width="3.5"/>
<path id="btnRightHole_2" d="M422.48 756.141C421.21 737.982 435.293 722.216 453.918 720.913C472.544 719.611 488.684 733.264 489.953 751.423C491.223 769.581 477.14 785.348 458.515 786.65C439.89 787.952 423.75 774.299 422.48 756.141Z" fill="#16242E" stroke="url(#paint16_linear_0_1)" stroke-width="3"/>
<path id="btnRight" d="M483.433 751.646C484.512 767.091 472.863 780.454 457.454 781.531C442.045 782.609 428.649 770.997 427.569 755.553C426.489 740.109 438.138 726.745 453.548 725.668C468.957 724.59 482.353 736.202 483.433 751.646Z" fill="url(#paint17_linear_0_1)" stroke="url(#paint18_linear_0_1)" stroke-width="2"/>
</g>
<path id="background" d="M163.94 301.958C163.94 289.808 173.79 279.958 185.94 279.958H510.218C522.368 279.958 532.218 289.808 532.218 301.958V603.596C532.218 615.747 522.368 625.596 510.218 625.596H185.94C173.79 625.596 163.94 615.747 163.94 603.596V301.958Z" fill="url(#paint19_linear_0_1)"/>
<g id="reflector">
<path id="Vector 41" d="M530.476 297.515C516.257 310.766 495.746 338.753 482.232 338.753C464.347 338.753 438.182 294.04 408.374 299.008C378.565 303.977 336.171 369.886 313.318 370.217C290.465 370.548 263.969 307.62 236.81 301.658C213.444 296.529 179.046 338.471 162.723 349.863M533.976 547.931C521.104 527.471 493.281 485.966 480.716 488.183C464.075 491.12 441.234 555.399 423.615 554.747C405.995 554.094 391.638 480.679 356.725 487.857C321.812 495.035 305.823 551.158 284.614 547.895C263.405 544.632 261.774 496.341 224.25 498.951C191.399 501.236 180.056 550.29 164.165 563.565" stroke="black" stroke-opacity="0.2" stroke-width="2.5"/>
<path id="Vector 42" d="M163.196 516.194C179.446 537.976 193.621 609.013 231.415 608.477C273.877 607.875 274.479 536.203 301.582 532.288C328.685 528.373 343.441 598.54 376.567 595.528C409.693 592.517 427.762 507.594 453.66 506.389C478.332 505.242 501.638 589.913 531.909 607.565M162.024 344.067C182.865 358.541 195.745 407.145 220.233 405.661C247.627 404 273.775 338.008 303.658 339.253C333.542 340.498 350.143 417.282 387.083 416.452C424.022 415.621 443.529 320.991 468.432 319.331C491.706 317.779 510.267 384.017 532.246 411.325" stroke="black" stroke-opacity="0.08" stroke-width="2.5"/>
<path id="Vector" d="M489.799 626.495C489.799 626.495 450.052 531.881 405.985 531.017C361.918 530.153 319.579 608.35 292.793 609.646C266.008 610.942 242.678 538.361 220.644 538.793C200.58 539.187 184.814 589.021 165.192 605.754M531.558 407.606C523.497 394.394 511.458 378.39 500.445 378.39C481.688 378.39 467.973 423.973 446.34 424.56C424.707 425.147 403.674 359.59 381.272 359.59C358.871 359.59 307.809 441.769 289.547 440.939C271.284 440.109 240.107 368.798 217.173 369.864C200.75 370.628 176.125 402.02 163.463 419.786C178.349 458.436 208.325 528.197 229.879 525.588C259.632 521.986 278.625 449.166 298.762 448.078C318.898 446.99 343.367 516.243 380.658 510.93C417.948 505.617 429.646 405.59 455.109 405.499C478.478 405.416 505.249 508.179 531.511 528.556" stroke="#BAD6DA" stroke-width="6"/>
</g>
<path id="shadow" d="M172.164 308.949C172.164 296.799 182.014 286.949 194.164 286.949H501.745C513.896 286.949 523.745 296.799 523.745 308.949V597.84C523.745 609.99 513.896 619.84 501.745 619.84H194.164C182.014 619.84 172.164 609.99 172.164 597.84V308.949Z" stroke="url(#paint20_linear_0_1)" stroke-width="6"/>
<path id="screenFrame2" fill-rule="evenodd" clip-rule="evenodd" d="M87.2477 511.228L145.61 555L179.191 680.292L245.427 640.458L305.41 698.82L389.247 640.69L481.422 673.576L549.048 598.771L540.542 538.763L600.106 497.723L541.337 386.715L532.886 262.263L415.348 268.793L331.58 201.354L263.723 268.517L222.499 235.631L138.996 311.855L154.41 410.948L87.2477 511.228ZM194.189 284.581C179.837 284.581 169.548 295.855 169.548 309.001V597.978C169.548 611.719 180.62 622.392 194.002 622.392H501.89C515.572 622.392 526.331 611.639 526.331 597.978V309.001C526.331 295.316 515.483 284.581 502.077 284.581H194.189Z" fill="url(#paint21_linear_0_1)"/>
<path id="screenFrame1" d="M145.61 555L149.473 553.964L149.116 552.629L148.01 551.8L145.61 555ZM179.191 680.292L175.327 681.328L176.702 686.457L181.252 683.72L179.191 680.292ZM245.427 640.458L248.216 637.591L246.007 635.442L243.366 637.03L245.427 640.458ZM305.41 698.82L302.621 701.687L304.982 703.984L307.689 702.107L305.41 698.82ZM481.422 673.576L480.078 677.344L482.596 678.242L484.389 676.259L481.422 673.576ZM549.048 598.771L552.015 601.454L553.271 600.064L553.008 598.21L549.048 598.771ZM540.542 538.763L538.272 535.469L536.234 536.874L536.581 539.325L540.542 538.763ZM541.337 386.715L537.346 386.986L537.404 387.835L537.802 388.586L541.337 386.715ZM532.886 262.263L536.877 261.992L536.61 258.05L532.665 258.269L532.886 262.263ZM415.348 268.793L412.84 271.908L414.036 272.872L415.57 272.787L415.348 268.793ZM331.58 201.354L334.089 198.239L331.306 195.998L328.766 198.512L331.58 201.354ZM222.499 235.631L224.994 232.504L222.324 230.374L219.802 232.676L222.499 235.631ZM138.996 311.855L136.299 308.901L134.714 310.348L135.044 312.47L138.996 311.855ZM154.41 410.948L157.734 413.174L158.603 411.876L158.363 410.333L154.41 410.948ZM263.723 268.517L261.228 271.644L264.009 273.862L266.537 271.36L263.723 268.517ZM389.247 640.69L390.592 636.922L388.657 636.232L386.968 637.403L389.247 640.69ZM690.636 523.678C692.836 523.875 694.779 522.251 694.976 520.051C695.173 517.85 693.549 515.907 691.348 515.71L690.636 523.678ZM7.67267 538.364C5.57536 539.058 4.43772 541.321 5.13168 543.418C5.82565 545.516 8.08842 546.653 10.1857 545.959L7.67267 538.364ZM84.8477 514.428L143.21 558.2L148.01 551.8L89.6477 508.028L84.8477 514.428ZM181.252 683.72L247.489 643.886L243.366 637.03L177.129 676.865L181.252 683.72ZM242.638 643.325L302.621 701.687L308.199 695.953L248.216 637.591L242.638 643.325ZM484.389 676.259L552.015 601.454L546.081 596.089L478.455 670.894L484.389 676.259ZM553.008 598.21L544.502 538.202L536.581 539.325L545.088 599.332L553.008 598.21ZM542.811 542.057L602.375 501.017L597.836 494.429L538.272 535.469L542.811 542.057ZM603.641 495.852L544.872 384.843L537.802 388.586L596.57 499.595L603.641 495.852ZM532.665 258.269L415.126 264.799L415.57 272.787L533.108 266.257L532.665 258.269ZM417.857 265.677L334.089 198.239L329.072 204.47L412.84 271.908L417.857 265.677ZM219.802 232.676L136.299 308.901L141.693 314.809L225.196 238.585L219.802 232.676ZM135.044 312.47L150.458 411.563L158.363 410.333L142.948 311.24L135.044 312.47ZM151.087 408.722L83.9243 509.002L90.5712 513.454L157.734 413.174L151.087 408.722ZM328.766 198.512L260.909 265.674L266.537 271.36L334.394 204.197L328.766 198.512ZM266.217 265.39L224.994 232.504L220.005 238.757L261.228 271.644L266.217 265.39ZM545.328 386.444L536.877 261.992L528.896 262.534L537.346 386.986L545.328 386.444ZM307.689 702.107L391.527 643.977L386.968 637.403L303.131 695.533L307.689 702.107ZM387.903 644.457L480.078 677.344L482.766 669.809L390.592 636.922L387.903 644.457ZM141.746 556.035L175.327 681.328L183.055 679.257L149.473 553.964L141.746 556.035ZM600.106 497.723C599.039 501.578 599.039 501.578 599.04 501.578C599.04 501.579 599.041 501.579 599.042 501.579C599.043 501.579 599.046 501.58 599.049 501.581C599.056 501.583 599.066 501.586 599.079 501.589C599.105 501.597 599.145 501.607 599.196 501.622C599.3 501.65 599.454 501.693 599.656 501.749C600.058 501.86 600.651 502.024 601.409 502.233C602.926 502.651 605.108 503.252 607.767 503.983C613.086 505.444 620.316 507.423 627.961 509.497C643.204 513.631 660.242 518.179 666.978 519.706L668.746 511.904C662.215 510.423 645.375 505.931 630.056 501.776C622.421 499.705 615.199 497.728 609.886 496.268C607.23 495.539 605.051 494.938 603.536 494.521C602.779 494.312 602.188 494.149 601.786 494.038C601.585 493.982 601.431 493.94 601.328 493.911C601.277 493.897 601.237 493.886 601.211 493.879C601.198 493.875 601.188 493.872 601.182 493.871C601.179 493.87 601.176 493.869 601.175 493.869C601.174 493.868 601.173 493.868 601.173 493.868C601.172 493.868 601.172 493.868 600.106 497.723ZM666.978 519.706C673.735 521.238 679.624 522.228 683.83 522.836C685.934 523.141 687.621 523.35 688.789 523.484C689.372 523.55 689.827 523.599 690.139 523.63C690.295 523.646 690.415 523.658 690.499 523.666C690.54 523.67 690.573 523.673 690.596 523.675C690.607 523.676 690.616 523.677 690.623 523.677C690.626 523.678 690.629 523.678 690.631 523.678C690.632 523.678 690.633 523.678 690.634 523.678C690.634 523.678 690.635 523.678 690.635 523.678C690.635 523.678 690.636 523.678 690.992 519.694C691.348 515.71 691.349 515.71 691.349 515.71C691.349 515.71 691.349 515.71 691.349 515.71C691.35 515.71 691.35 515.71 691.349 515.71C691.349 515.71 691.348 515.71 691.347 515.71C691.344 515.71 691.339 515.709 691.331 515.709C691.316 515.707 691.292 515.705 691.258 515.702C691.19 515.695 691.086 515.685 690.946 515.671C690.667 515.643 690.247 515.598 689.699 515.536C688.603 515.41 686.995 515.211 684.975 514.919C680.933 514.334 675.257 513.38 668.746 511.904L666.978 519.706ZM87.2477 511.228C85.721 507.531 85.7209 507.531 85.7206 507.531C85.7204 507.531 85.72 507.532 85.7195 507.532C85.7184 507.532 85.7169 507.533 85.7148 507.534C85.7107 507.535 85.7045 507.538 85.6962 507.541C85.6798 507.548 85.6552 507.558 85.6227 507.572C85.5577 507.599 85.461 507.638 85.3344 507.691C85.081 507.795 84.7075 507.95 84.2272 508.148C83.2666 508.544 81.8787 509.117 80.1696 509.823C76.7513 511.234 72.0481 513.175 66.9083 515.295C56.6275 519.536 44.6043 524.491 37.6227 527.356L40.6592 534.757C47.649 531.889 59.6792 526.931 69.9589 522.691C75.0994 520.57 79.8033 518.629 83.222 517.218C84.9313 516.512 86.3194 515.939 87.2802 515.542C87.7606 515.344 88.1341 515.19 88.3876 515.085C88.5143 515.033 88.611 514.993 88.6761 514.966C88.7086 514.953 88.7332 514.943 88.7497 514.936C88.7579 514.932 88.7641 514.93 88.7682 514.928C88.7703 514.927 88.7719 514.927 88.7729 514.926C88.7734 514.926 88.7738 514.926 88.7741 514.926C88.7743 514.926 88.7745 514.925 87.2477 511.228ZM37.6227 527.356C30.722 530.187 23.2368 532.939 17.4584 534.989C14.5734 536.012 12.1227 536.857 10.3946 537.446C9.53072 537.741 8.84785 537.971 8.38209 538.127C8.14921 538.205 7.97065 538.265 7.8509 538.305C7.79103 538.325 7.74586 538.34 7.71597 538.35C7.70102 538.355 7.68989 538.359 7.68265 538.361C7.67903 538.362 7.67638 538.363 7.67472 538.364C7.67388 538.364 7.67329 538.364 7.67295 538.364C7.67278 538.364 7.67271 538.364 7.67263 538.364C7.67262 538.364 7.67267 538.364 8.9292 542.162C10.1857 545.959 10.1859 545.959 10.1861 545.959C10.1863 545.959 10.1866 545.959 10.1869 545.959C10.1876 545.959 10.1885 545.958 10.1896 545.958C10.1919 545.957 10.1952 545.956 10.1994 545.955C10.2079 545.952 10.2203 545.948 10.2365 545.942C10.2689 545.932 10.3166 545.916 10.3791 545.895C10.5041 545.853 10.6881 545.792 10.9265 545.712C11.4035 545.552 12.0985 545.318 12.9755 545.019C14.7291 544.421 17.2116 543.565 20.1331 542.528C25.9677 540.458 33.5885 537.658 40.6592 534.757L37.6227 527.356Z" fill="url(#paint22_linear_0_1)"/>
<path id="screenFrame" opacity="0.5" d="M168.002 309.001C168.002 294.642 179.642 283.001 194.002 283.001H501.89C516.249 283.001 527.89 294.642 527.89 309.001V597.979C527.89 612.338 516.249 623.979 501.89 623.979H194.002C179.642 623.979 168.002 612.338 168.002 597.979V309.001Z" stroke="url(#paint23_linear_0_1)" stroke-width="3"/>
<g id="print">
<path d="M108.56 557.545C69.5288 546.445 68.5017 587.606 59.2574 592.694C50.0131 597.781 51.0403 587.144 40.2554 590.844C29.4705 594.544 29.4704 616.743 33.5791 632.93C37.6877 649.117 73.6372 676.866 80.3137 687.041C86.9902 697.216 96.2342 738.84 114.209 756.414C132.184 773.989 150.672 772.601 166.593 762.889C182.514 753.177 186.622 727.278 176.864 712.015C167.107 696.753 120.372 665.767 117.291 651.43C114.209 637.092 147.591 568.644 108.56 557.545Z" fill="url(#paint24_linear_0_1)"/>
<path d="M524.37 642.795C513.547 669.071 526.432 687.104 524.37 705.136C522.309 723.168 511.701 722.58 511.534 738.573C511.367 754.567 540.762 791.696 560.12 781.831C579.479 771.965 599.597 734.02 604.911 723.775C610.225 713.53 643.649 682.081 656.534 644.47C669.419 606.86 671.773 553.663 655.796 531.509C639.819 509.355 619.318 515.894 613.018 523.781C606.718 531.668 612.511 579.731 592.411 604.461C572.311 629.191 535.194 616.519 524.37 642.795Z" fill="url(#paint25_linear_0_1)"/>
<path d="M108.56 557.545C69.5288 546.445 68.5017 587.606 59.2574 592.694C50.0131 597.781 51.0403 587.144 40.2554 590.844C29.4705 594.544 29.4704 616.743 33.5791 632.93C37.6877 649.117 73.6372 676.866 80.3137 687.041C86.9902 697.216 96.2342 738.84 114.209 756.414C132.184 773.989 150.672 772.601 166.593 762.889C182.514 753.177 186.622 727.278 176.864 712.015C167.107 696.753 120.372 665.767 117.291 651.43C114.209 637.092 147.591 568.644 108.56 557.545Z" stroke="url(#paint26_linear_0_1)"/>
<path d="M524.37 642.795C513.547 669.071 526.432 687.104 524.37 705.136C522.309 723.168 511.701 722.58 511.534 738.573C511.367 754.567 540.762 791.696 560.12 781.831C579.479 771.965 599.597 734.02 604.911 723.775C610.225 713.53 643.649 682.081 656.534 644.47C669.419 606.86 671.773 553.663 655.796 531.509C639.819 509.355 619.318 515.894 613.018 523.781C606.718 531.668 612.511 579.731 592.411 604.461C572.311 629.191 535.194 616.519 524.37 642.795Z" stroke="url(#paint27_linear_0_1)"/>
</g>
<g id="print_2">
<path d="M588.575 399.962C584.814 373.247 548.923 330.379 598.487 329.758C648.051 329.136 646 394.992 654.204 412.388C662.408 429.783 690.779 443.451 683.942 463.643C677.106 483.834 636.429 475.447 615.578 460.537C594.727 445.626 592.335 426.677 588.575 399.962Z" fill="url(#paint28_linear_0_1)"/>
<path d="M127.43 349.897C123.626 328.453 111.454 322.185 88.2503 323.505C65.0469 324.825 41.8436 340.33 32.334 359.464C22.8244 378.598 36.1378 386.845 36.5182 396.742C36.8985 406.639 20.5421 419.835 20.5421 435.01C20.542 450.186 29.2909 466.681 55.5374 468.99C81.7838 471.299 98.9011 460.742 108.03 436.66C117.16 412.577 99.2815 407.959 103.085 393.443C106.889 378.928 131.234 371.34 127.43 349.897Z" fill="url(#paint29_linear_0_1)"/>
<path d="M588.575 399.962C584.814 373.247 548.923 330.379 598.487 329.758C648.051 329.136 646 394.992 654.204 412.388C662.408 429.783 690.779 443.451 683.942 463.643C677.106 483.834 636.429 475.447 615.578 460.537C594.727 445.626 592.335 426.677 588.575 399.962Z" stroke="url(#paint30_linear_0_1)"/>
<path d="M127.43 349.897C123.626 328.453 111.454 322.185 88.2503 323.505C65.0469 324.825 41.8436 340.33 32.334 359.464C22.8244 378.598 36.1378 386.845 36.5182 396.742C36.8985 406.639 20.5421 419.835 20.5421 435.01C20.542 450.186 29.2909 466.681 55.5374 468.99C81.7838 471.299 98.9011 460.742 108.03 436.66C117.16 412.577 99.2815 407.959 103.085 393.443C106.889 378.928 131.234 371.34 127.43 349.897Z" stroke="url(#paint31_linear_0_1)"/>
</g>
<path id="print_3" d="M267.191 164.699C253.823 147.902 214.699 159.628 203.939 152.656C193.18 145.684 201.983 132.056 187.637 126.352C173.292 120.647 152.099 138.712 142.644 149.17C133.189 159.628 111.997 191.004 138.08 212.871C164.163 234.739 220.894 233.471 239.152 223.012C257.41 212.554 280.558 181.496 267.191 164.699Z" fill="url(#paint32_linear_0_1)" stroke="url(#paint33_linear_0_1)"/>
<path id="print_4" d="M473.237 90.3746C393.737 61.8473 294.713 71.8399 290.173 111.064C285.633 150.289 331.03 149.308 352.72 165.979C374.41 182.649 352.72 209.126 394.586 227.758C436.453 246.389 458.377 216.4 489.954 218.928C521.531 221.456 563.415 260.833 596.201 226.511C628.988 192.19 552.737 118.902 473.237 90.3746Z" fill="url(#paint34_linear_0_1)" stroke="url(#paint35_linear_0_1)"/>
</g>
<g id="display">
<g id="col_0">
<path id="0_0" d="M182.445 362.587H172.445V372.587H182.445V362.587Z" fill="black"/>
<path id="0_1" d="M182.445 373.587H172.445V383.587H182.445V373.587Z" fill="black"/>
<path id="0_2" d="M182.445 384.587H172.445V394.587H182.445V384.587Z" fill="black"/>
<path id="0_3" d="M182.445 395.587H172.445V405.587H182.445V395.587Z" fill="black"/>
<path id="1_0" d="M182.445 406.587H172.445V416.587H182.445V406.587Z" fill="black"/>
<path id="1_1" d="M182.445 417.587H172.445V427.587H182.445V417.587Z" fill="black"/>
<path id="1_2" d="M182.445 428.587H172.445V438.587H182.445V428.587Z" fill="black"/>
<path id="1_3" d="M182.445 439.587H172.445V449.587H182.445V439.587Z" fill="black"/>
<path id="80_0" d="M182.445 450.587H172.445V460.587H182.445V450.587Z" fill="black"/>
<path id="80_1" d="M182.445 461.587H172.445V471.587H182.445V461.587Z" fill="black"/>
<path id="80_2" d="M182.445 472.587H172.445V482.587H182.445V472.587Z" fill="black"/>
<path id="80_3" d="M182.445 483.587H172.445V493.587H182.445V483.587Z" fill="black"/>
<path id="81_0" d="M182.445 494.587H172.445V504.587H182.445V494.587Z" fill="black"/>
<path id="81_1" d="M182.445 505.587H172.445V515.587H182.445V505.587Z" fill="black"/>
<path id="81_2" d="M182.445 516.587H172.445V526.587H182.445V516.587Z" fill="black"/>
<path id="81_3" d="M182.445 527.587H172.445V537.587H182.445V527.587Z" fill="black"/>
</g>
<g id="col_1">
<path id="2_0" d="M193.445 362.587H183.445V372.587H193.445V362.587Z" fill="black"/>
<path id="2_1" d="M193.445 373.587H183.445V383.587H193.445V373.587Z" fill="black"/>
<path id="2_2" d="M193.445 384.587H183.445V394.587H193.445V384.587Z" fill="black"/>
<path id="2_3" d="M193.445 395.587H183.445V405.587H193.445V395.587Z" fill="black"/>
<path id="3_0" d="M193.445 406.587H183.445V416.587H193.445V406.587Z" fill="black"/>
<path id="3_1" d="M193.445 417.587H183.445V427.587H193.445V417.587Z" fill="black"/>
<path id="3_2" d="M193.445 428.587H183.445V438.587H193.445V428.587Z" fill="black"/>
<path id="3_3" d="M193.445 439.587H183.445V449.587H193.445V439.587Z" fill="black"/>
<path id="82_0" d="M193.445 450.587H183.445V460.587H193.445V450.587Z" fill="black"/>
<path id="82_1" d="M193.445 461.587H183.445V471.587H193.445V461.587Z" fill="black"/>
<path id="82_2" d="M193.445 472.587H183.445V482.587H193.445V472.587Z" fill="black"/>
<path id="82_3" d="M193.445 483.587H183.445V493.587H193.445V483.587Z" fill="black"/>
<path id="83_0" d="M193.445 494.587H183.445V504.587H193.445V494.587Z" fill="black"/>
<path id="83_1" d="M193.445 505.587H183.445V515.587H193.445V505.587Z" fill="black"/>
<path id="83_2" d="M193.445 516.587H183.445V526.587H193.445V516.587Z" fill="black"/>
<path id="83_3" d="M193.445 527.587H183.445V537.587H193.445V527.587Z" fill="black"/>
</g>
<g id="col_2">
<path id="4_0" d="M204.445 362.587H194.445V372.587H204.445V362.587Z" fill="black"/>
<path id="4_1" d="M204.445 373.587H194.445V383.587H204.445V373.587Z" fill="black"/>
<path id="4_2" d="M204.445 384.587H194.445V394.587H204.445V384.587Z" fill="black"/>
<path id="4_3" d="M204.445 395.587H194.445V405.587H204.445V395.587Z" fill="black"/>
<path id="5_0" d="M204.445 406.587H194.445V416.587H204.445V406.587Z" fill="black"/>
<path id="5_1" d="M204.445 417.587H194.445V427.587H204.445V417.587Z" fill="black"/>
<path id="5_2" d="M204.445 428.587H194.445V438.587H204.445V428.587Z" fill="black"/>
<path id="5_3" d="M204.445 439.587H194.445V449.587H204.445V439.587Z" fill="black"/>
<path id="84_0" d="M204.445 450.587H194.445V460.587H204.445V450.587Z" fill="black"/>
<path id="84_1" d="M204.445 461.587H194.445V471.587H204.445V461.587Z" fill="black"/>
<path id="84_2" d="M204.445 472.587H194.445V482.587H204.445V472.587Z" fill="black"/>
<path id="84_3" d="M204.445 483.587H194.445V493.587H204.445V483.587Z" fill="black"/>
<path id="85_0" d="M204.445 494.587H194.445V504.587H204.445V494.587Z" fill="black"/>
<path id="85_1" d="M204.445 505.587H194.445V515.587H204.445V505.587Z" fill="black"/>
<path id="85_2" d="M204.445 516.587H194.445V526.587H204.445V516.587Z" fill="black"/>
<path id="85_3" d="M204.445 527.587H194.445V537.587H204.445V527.587Z" fill="black"/>
</g>
<g id="col_3">
<path id="6_0" d="M215.445 362.587H205.445V372.587H215.445V362.587Z" fill="black"/>
<path id="6_1" d="M215.445 373.587H205.445V383.587H215.445V373.587Z" fill="black"/>
<path id="6_2" d="M215.445 384.587H205.445V394.587H215.445V384.587Z" fill="black"/>
<path id="6_3" d="M215.445 395.587H205.445V405.587H215.445V395.587Z" fill="black"/>
<path id="7_0" d="M215.445 406.587H205.445V416.587H215.445V406.587Z" fill="black"/>
<path id="7_1" d="M215.445 417.587H205.445V427.587H215.445V417.587Z" fill="black"/>
<path id="7_2" d="M215.445 428.587H205.445V438.587H215.445V428.587Z" fill="black"/>
<path id="7_3" d="M215.445 439.587H205.445V449.587H215.445V439.587Z" fill="black"/>
<path id="86_0" d="M215.445 450.587H205.445V460.587H215.445V450.587Z" fill="black"/>
<path id="86_1" d="M215.445 461.587H205.445V471.587H215.445V461.587Z" fill="black"/>
<path id="86_2" d="M215.445 472.587H205.445V482.587H215.445V472.587Z" fill="black"/>
<path id="86_3" d="M215.445 483.587H205.445V493.587H215.445V483.587Z" fill="black"/>
<path id="87_0" d="M215.445 494.587H205.445V504.587H215.445V494.587Z" fill="black"/>
<path id="87_1" d="M215.445 505.587H205.445V515.587H215.445V505.587Z" fill="black"/>
<path id="87_2" d="M215.445 516.587H205.445V526.587H215.445V516.587Z" fill="black"/>
<path id="87_3" d="M215.445 527.587H205.445V537.587H215.445V527.587Z" fill="black"/>
</g>
<g id="col_4">
<path id="8_0" d="M226.445 362.587H216.445V372.587H226.445V362.587Z" fill="black"/>
<path id="8_1" d="M226.445 373.587H216.445V383.587H226.445V373.587Z" fill="black"/>
<path id="8_2" d="M226.445 384.587H216.445V394.587H226.445V384.587Z" fill="black"/>
<path id="8_3" d="M226.445 395.587H216.445V405.587H226.445V395.587Z" fill="black"/>
<path id="9_0" d="M226.445 406.587H216.445V416.587H226.445V406.587Z" fill="black"/>
<path id="9_1" d="M226.445 417.587H216.445V427.587H226.445V417.587Z" fill="black"/>
<path id="9_2" d="M226.445 428.587H216.445V438.587H226.445V428.587Z" fill="black"/>
<path id="9_3" d="M226.445 439.587H216.445V449.587H226.445V439.587Z" fill="black"/>
<path id="88_0" d="M226.445 450.587H216.445V460.587H226.445V450.587Z" fill="black"/>
<path id="88_1" d="M226.445 461.587H216.445V471.587H226.445V461.587Z" fill="black"/>
<path id="88_2" d="M226.445 472.587H216.445V482.587H226.445V472.587Z" fill="black"/>
<path id="88_3" d="M226.445 483.587H216.445V493.587H226.445V483.587Z" fill="black"/>
<path id="89_0" d="M226.445 494.587H216.445V504.587H226.445V494.587Z" fill="black"/>
<path id="89_1" d="M226.445 505.587H216.445V515.587H226.445V505.587Z" fill="black"/>
<path id="89_2" d="M226.445 516.587H216.445V526.587H226.445V516.587Z" fill="black"/>
<path id="89_3" d="M226.445 527.587H216.445V537.587H226.445V527.587Z" fill="black"/>
</g>
<g id="col_5">
<path id="10_0" d="M237.445 362.587H227.445V372.587H237.445V362.587Z" fill="black"/>
<path id="10_1" d="M237.445 373.587H227.445V383.587H237.445V373.587Z" fill="black"/>
<path id="10_2" d="M237.445 384.587H227.445V394.587H237.445V384.587Z" fill="black"/>
<path id="10_3" d="M237.445 395.587H227.445V405.587H237.445V395.587Z" fill="black"/>
<path id="11_0" d="M237.445 406.587H227.445V416.587H237.445V406.587Z" fill="black"/>
<path id="11_1" d="M237.445 417.587H227.445V427.587H237.445V417.587Z" fill="black"/>
<path id="11_2" d="M237.445 428.587H227.445V438.587H237.445V428.587Z" fill="black"/>
<path id="11_3" d="M237.445 439.587H227.445V449.587H237.445V439.587Z" fill="black"/>
<path id="90_0" d="M237.445 450.587H227.445V460.587H237.445V450.587Z" fill="black"/>
<path id="90_1" d="M237.445 461.587H227.445V471.587H237.445V461.587Z" fill="black"/>
<path id="90_2" d="M237.445 472.587H227.445V482.587H237.445V472.587Z" fill="black"/>
<path id="90_3" d="M237.445 483.587H227.445V493.587H237.445V483.587Z" fill="black"/>
<path id="91_0" d="M237.445 494.587H227.445V504.587H237.445V494.587Z" fill="black"/>
<path id="91_1" d="M237.445 505.587H227.445V515.587H237.445V505.587Z" fill="black"/>
<path id="91_2" d="M237.445 516.587H227.445V526.587H237.445V516.587Z" fill="black"/>
<path id="91_3" d="M237.445 527.587H227.445V537.587H237.445V527.587Z" fill="black"/>
</g>
<g id="col_6">
<path id="12_0" d="M248.445 362.587H238.445V372.587H248.445V362.587Z" fill="black"/>
<path id="12_1" d="M248.445 373.587H238.445V383.587H248.445V373.587Z" fill="black"/>
<path id="12_2" d="M248.445 384.587H238.445V394.587H248.445V384.587Z" fill="black"/>
<path id="12_3" d="M248.445 395.587H238.445V405.587H248.445V395.587Z" fill="black"/>
<path id="13_0" d="M248.445 406.587H238.445V416.587H248.445V406.587Z" fill="black"/>
<path id="13_1" d="M248.445 417.587H238.445V427.587H248.445V417.587Z" fill="black"/>
<path id="13_2" d="M248.445 428.587H238.445V438.587H248.445V428.587Z" fill="black"/>
<path id="13_3" d="M248.445 439.587H238.445V449.587H248.445V439.587Z" fill="black"/>
<path id="92_0" d="M248.445 450.587H238.445V460.587H248.445V450.587Z" fill="black"/>
<path id="92_1" d="M248.445 461.587H238.445V471.587H248.445V461.587Z" fill="black"/>
<path id="92_2" d="M248.445 472.587H238.445V482.587H248.445V472.587Z" fill="black"/>
<path id="92_3" d="M248.445 483.587H238.445V493.587H248.445V483.587Z" fill="black"/>
<path id="93_0" d="M248.445 494.587H238.445V504.587H248.445V494.587Z" fill="black"/>
<path id="93_1" d="M248.445 505.587H238.445V515.587H248.445V505.587Z" fill="black"/>
<path id="93_2" d="M248.445 516.587H238.445V526.587H248.445V516.587Z" fill="black"/>
<path id="93_3" d="M248.445 527.587H238.445V537.587H248.445V527.587Z" fill="black"/>
</g>
<g id="col_7">
<path id="14_0" d="M259.445 362.587H249.445V372.587H259.445V362.587Z" fill="black"/>
<path id="14_1" d="M259.445 373.587H249.445V383.587H259.445V373.587Z" fill="black"/>
<path id="14_2" d="M259.445 384.587H249.445V394.587H259.445V384.587Z" fill="black"/>
<path id="14_3" d="M259.445 395.587H249.445V405.587H259.445V395.587Z" fill="black"/>
<path id="15_0" d="M259.445 406.587H249.445V416.587H259.445V406.587Z" fill="black"/>
<path id="15_1" d="M259.445 417.587H249.445V427.587H259.445V417.587Z" fill="black"/>
<path id="15_2" d="M259.445 428.587H249.445V438.587H259.445V428.587Z" fill="black"/>
<path id="15_3" d="M259.445 439.587H249.445V449.587H259.445V439.587Z" fill="black"/>
<path id="94_0" d="M259.445 450.587H249.445V460.587H259.445V450.587Z" fill="black"/>
<path id="94_1" d="M259.445 461.587H249.445V471.587H259.445V461.587Z" fill="black"/>
<path id="94_2" d="M259.445 472.587H249.445V482.587H259.445V472.587Z" fill="black"/>
<path id="94_3" d="M259.445 483.587H249.445V493.587H259.445V483.587Z" fill="black"/>
<path id="95_0" d="M259.445 494.587H249.445V504.587H259.445V494.587Z" fill="black"/>
<path id="95_1" d="M259.445 505.587H249.445V515.587H259.445V505.587Z" fill="black"/>
<path id="95_2" d="M259.445 516.587H249.445V526.587H259.445V516.587Z" fill="black"/>
<path id="95_3" d="M259.445 527.587H249.445V537.587H259.445V527.587Z" fill="black"/>
</g>
<g id="col_8">
<path id="18_0" d="M270.445 362.587H260.445V372.587H270.445V362.587Z" fill="black"/>
<path id="18_1" d="M270.445 373.587H260.445V383.587H270.445V373.587Z" fill="black"/>
<path id="18_2" d="M270.445 384.587H260.445V394.587H270.445V384.587Z" fill="black"/>
<path id="18_3" d="M270.445 395.587H260.445V405.587H270.445V395.587Z" fill="black"/>
<path id="19_0" d="M270.445 406.587H260.445V416.587H270.445V406.587Z" fill="black"/>
<path id="19_1" d="M270.445 417.587H260.445V427.587H270.445V417.587Z" fill="black"/>
<path id="19_2" d="M270.445 428.587H260.445V438.587H270.445V428.587Z" fill="black"/>
<path id="19_3" d="M270.445 439.587H260.445V449.587H270.445V439.587Z" fill="black"/>
<path id="98_0" d="M270.445 450.587H260.445V460.587H270.445V450.587Z" fill="black"/>
<path id="98_1" d="M270.445 461.587H260.445V471.587H270.445V461.587Z" fill="black"/>
<path id="98_2" d="M270.445 472.587H260.445V482.587H270.445V472.587Z" fill="black"/>
<path id="98_3" d="M270.445 483.587H260.445V493.587H270.445V483.587Z" fill="black"/>
<path id="99_0" d="M270.445 494.587H260.445V504.587H270.445V494.587Z" fill="black"/>
<path id="99_1" d="M270.445 505.587H260.445V515.587H270.445V505.587Z" fill="black"/>
<path id="99_2" d="M270.445 516.587H260.445V526.587H270.445V516.587Z" fill="black"/>
<path id="99_3" d="M270.445 527.587H260.445V537.587H270.445V527.587Z" fill="black"/>
</g>
<g id="col_9">
<path id="20_0" d="M281.445 362.587H271.445V372.587H281.445V362.587Z" fill="black"/>
<path id="20_1" d="M281.445 373.587H271.445V383.587H281.445V373.587Z" fill="black"/>
<path id="20_2" d="M281.445 384.587H271.445V394.587H281.445V384.587Z" fill="black"/>
<path id="20_3" d="M281.445 395.587H271.445V405.587H281.445V395.587Z" fill="black"/>
<path id="21_0" d="M281.445 406.587H271.445V416.587H281.445V406.587Z" fill="black"/>
<path id="21_1" d="M281.445 417.587H271.445V427.587H281.445V417.587Z" fill="black"/>
<path id="21_2" d="M281.445 428.587H271.445V438.587H281.445V428.587Z" fill="black"/>
<path id="21_3" d="M281.445 439.587H271.445V449.587H281.445V439.587Z" fill="black"/>
<path id="100_0" d="M281.445 450.587H271.445V460.587H281.445V450.587Z" fill="black"/>
<path id="100_1" d="M281.445 461.587H271.445V471.587H281.445V461.587Z" fill="black"/>
<path id="100_2" d="M281.445 472.587H271.445V482.587H281.445V472.587Z" fill="black"/>
<path id="100_3" d="M281.445 483.587H271.445V493.587H281.445V483.587Z" fill="black"/>
<path id="101_0" d="M281.445 494.587H271.445V504.587H281.445V494.587Z" fill="black"/>
<path id="101_1" d="M281.445 505.587H271.445V515.587H281.445V505.587Z" fill="black"/>
<path id="101_2" d="M281.445 516.587H271.445V526.587H281.445V516.587Z" fill="black"/>
<path id="101_3" d="M281.445 527.587H271.445V537.587H281.445V527.587Z" fill="black"/>
</g>
<g id="col_10">
<path id="22_0" d="M292.445 362.587H282.445V372.587H292.445V362.587Z" fill="black"/>
<path id="22_1" d="M292.445 373.587H282.445V383.587H292.445V373.587Z" fill="black"/>
<path id="22_2" d="M292.445 384.587H282.445V394.587H292.445V384.587Z" fill="black"/>
<path id="22_3" d="M292.445 395.587H282.445V405.587H292.445V395.587Z" fill="black"/>
<path id="23_0" d="M292.445 406.587H282.445V416.587H292.445V406.587Z" fill="black"/>
<path id="23_1" d="M292.445 417.587H282.445V427.587H292.445V417.587Z" fill="black"/>
<path id="23_2" d="M292.445 428.587H282.445V438.587H292.445V428.587Z" fill="black"/>
<path id="23_3" d="M292.445 439.587H282.445V449.587H292.445V439.587Z" fill="black"/>
<path id="102_0" d="M292.445 450.587H282.445V460.587H292.445V450.587Z" fill="black"/>
<path id="102_1" d="M292.445 461.587H282.445V471.587H292.445V461.587Z" fill="black"/>
<path id="102_2" d="M292.445 472.587H282.445V482.587H292.445V472.587Z" fill="black"/>
<path id="102_3" d="M292.445 483.587H282.445V493.587H292.445V483.587Z" fill="black"/>
<path id="103_0" d="M292.445 494.587H282.445V504.587H292.445V494.587Z" fill="black"/>
<path id="103_1" d="M292.445 505.587H282.445V515.587H292.445V505.587Z" fill="black"/>
<path id="103_2" d="M292.445 516.587H282.445V526.587H292.445V516.587Z" fill="black"/>
<path id="103_3" d="M292.445 527.587H282.445V537.587H292.445V527.587Z" fill="black"/>
</g>
<g id="col_11">
<path id="24_0" d="M303.445 362.587H293.445V372.587H303.445V362.587Z" fill="black"/>
<path id="24_1" d="M303.445 373.587H293.445V383.587H303.445V373.587Z" fill="black"/>
<path id="24_2" d="M303.445 384.587H293.445V394.587H303.445V384.587Z" fill="black"/>
<path id="24_3" d="M303.445 395.587H293.445V405.587H303.445V395.587Z" fill="black"/>
<path id="25_0" d="M303.445 406.587H293.445V416.587H303.445V406.587Z" fill="black"/>
<path id="25_1" d="M303.445 417.587H293.445V427.587H303.445V417.587Z" fill="black"/>
<path id="25_2" d="M303.445 428.587H293.445V438.587H303.445V428.587Z" fill="black"/>
<path id="25_3" d="M303.445 439.587H293.445V449.587H303.445V439.587Z" fill="black"/>
<path id="104_0" d="M303.445 450.587H293.445V460.587H303.445V450.587Z" fill="black"/>
<path id="104_1" d="M303.445 461.587H293.445V471.587H303.445V461.587Z" fill="black"/>
<path id="104_2" d="M303.445 472.587H293.445V482.587H303.445V472.587Z" fill="black"/>
<path id="104_3" d="M303.445 483.587H293.445V493.587H303.445V483.587Z" fill="black"/>
<path id="105_0" d="M303.445 494.587H293.445V504.587H303.445V494.587Z" fill="black"/>
<path id="105_1" d="M303.445 505.587H293.445V515.587H303.445V505.587Z" fill="black"/>
<path id="105_2" d="M303.445 516.587H293.445V526.587H303.445V516.587Z" fill="black"/>
<path id="105_3" d="M303.445 527.587H293.445V537.587H303.445V527.587Z" fill="black"/>
</g>
<g id="col_12">
<path id="26_0" d="M314.445 362.587H304.445V372.587H314.445V362.587Z" fill="black"/>
<path id="26_1" d="M314.445 373.587H304.445V383.587H314.445V373.587Z" fill="black"/>
<path id="26_2" d="M314.445 384.587H304.445V394.587H314.445V384.587Z" fill="black"/>
<path id="26_3" d="M314.445 395.587H304.445V405.587H314.445V395.587Z" fill="black"/>
<path id="27_0" d="M314.445 406.587H304.445V416.587H314.445V406.587Z" fill="black"/>
<path id="27_1" d="M314.445 417.587H304.445V427.587H314.445V417.587Z" fill="black"/>
<path id="27_2" d="M314.445 428.587H304.445V438.587H314.445V428.587Z" fill="black"/>
<path id="27_3" d="M314.445 439.587H304.445V449.587H314.445V439.587Z" fill="black"/>
<path id="106_0" d="M314.445 450.587H304.445V460.587H314.445V450.587Z" fill="black"/>
<path id="106_1" d="M314.445 461.587H304.445V471.587H314.445V461.587Z" fill="black"/>
<path id="106_2" d="M314.445 472.587H304.445V482.587H314.445V472.587Z" fill="black"/>
<path id="106_3" d="M314.445 483.587H304.445V493.587H314.445V483.587Z" fill="black"/>
<path id="107_0" d="M314.445 494.587H304.445V504.587H314.445V494.587Z" fill="black"/>
<path id="107_1" d="M314.445 505.587H304.445V515.587H314.445V505.587Z" fill="black"/>
<path id="107_2" d="M314.445 516.587H304.445V526.587H314.445V516.587Z" fill="black"/>
<path id="107_3" d="M314.445 527.587H304.445V537.587H314.445V527.587Z" fill="black"/>
</g>
<g id="col_13">
<path id="28_0" d="M325.445 362.587H315.445V372.587H325.445V362.587Z" fill="black"/>
<path id="28_1" d="M325.445 373.587H315.445V383.587H325.445V373.587Z" fill="black"/>
<path id="28_2" d="M325.445 384.587H315.445V394.587H325.445V384.587Z" fill="black"/>
<path id="28_3" d="M325.445 395.587H315.445V405.587H325.445V395.587Z" fill="black"/>
<path id="29_0" d="M325.445 406.587H315.445V416.587H325.445V406.587Z" fill="black"/>
<path id="29_1" d="M325.445 417.587H315.445V427.587H325.445V417.587Z" fill="black"/>
<path id="29_2" d="M325.445 428.587H315.445V438.587H325.445V428.587Z" fill="black"/>
<path id="29_3" d="M325.445 439.587H315.445V449.587H325.445V439.587Z" fill="black"/>
<path id="108_0" d="M325.445 450.587H315.445V460.587H325.445V450.587Z" fill="black"/>
<path id="108_1" d="M325.445 461.587H315.445V471.587H325.445V461.587Z" fill="black"/>
<path id="108_2" d="M325.445 472.587H315.445V482.587H325.445V472.587Z" fill="black"/>
<path id="108_3" d="M325.445 483.587H315.445V493.587H325.445V483.587Z" fill="black"/>
<path id="109_0" d="M325.445 494.587H315.445V504.587H325.445V494.587Z" fill="black"/>
<path id="109_1" d="M325.445 505.587H315.445V515.587H325.445V505.587Z" fill="black"/>
<path id="109_2" d="M325.445 516.587H315.445V526.587H325.445V516.587Z" fill="black"/>
<path id="109_3" d="M325.445 527.587H315.445V537.587H325.445V527.587Z" fill="black"/>
</g>
<g id="col_14">
<path id="30_0" d="M336.445 362.587H326.445V372.587H336.445V362.587Z" fill="black"/>
<path id="30_1" d="M336.445 373.587H326.445V383.587H336.445V373.587Z" fill="black"/>
<path id="30_2" d="M336.445 384.587H326.445V394.587H336.445V384.587Z" fill="black"/>
<path id="30_3" d="M336.445 395.587H326.445V405.587H336.445V395.587Z" fill="black"/>
<path id="31_0" d="M336.445 406.587H326.445V416.587H336.445V406.587Z" fill="black"/>
<path id="31_1" d="M336.445 417.587H326.445V427.587H336.445V417.587Z" fill="black"/>
<path id="31_2" d="M336.445 428.587H326.445V438.587H336.445V428.587Z" fill="black"/>
<path id="31_3" d="M336.445 439.587H326.445V449.587H336.445V439.587Z" fill="black"/>
<path id="110_0" d="M336.445 450.587H326.445V460.587H336.445V450.587Z" fill="black"/>
<path id="110_1" d="M336.445 461.587H326.445V471.587H336.445V461.587Z" fill="black"/>
<path id="110_2" d="M336.445 472.587H326.445V482.587H336.445V472.587Z" fill="black"/>
<path id="110_3" d="M336.445 483.587H326.445V493.587H336.445V483.587Z" fill="black"/>
<path id="111_0" d="M336.445 494.587H326.445V504.587H336.445V494.587Z" fill="black"/>
<path id="111_1" d="M336.445 505.587H326.445V515.587H336.445V505.587Z" fill="black"/>
<path id="111_2" d="M336.445 516.587H326.445V526.587H336.445V516.587Z" fill="black"/>
<path id="111_3" d="M336.445 527.587H326.445V537.587H336.445V527.587Z" fill="black"/>
</g>
<g id="col_15">
<path id="32_0" d="M347.445 362.587H337.445V372.587H347.445V362.587Z" fill="black"/>
<path id="32_1" d="M347.445 373.587H337.445V383.587H347.445V373.587Z" fill="black"/>
<path id="32_2" d="M347.445 384.587H337.445V394.587H347.445V384.587Z" fill="black"/>
<path id="32_3" d="M347.445 395.587H337.445V405.587H347.445V395.587Z" fill="black"/>
<path id="33_0" d="M347.445 406.587H337.445V416.587H347.445V406.587Z" fill="black"/>
<path id="33_1" d="M347.445 417.587H337.445V427.587H347.445V417.587Z" fill="black"/>
<path id="33_2" d="M347.445 428.587H337.445V438.587H347.445V428.587Z" fill="black"/>
<path id="33_3" d="M347.445 439.587H337.445V449.587H347.445V439.587Z" fill="black"/>
<path id="112_0" d="M347.445 450.587H337.445V460.587H347.445V450.587Z" fill="black"/>
<path id="112_1" d="M347.445 461.587H337.445V471.587H347.445V461.587Z" fill="black"/>
<path id="112_2" d="M347.445 472.587H337.445V482.587H347.445V472.587Z" fill="black"/>
<path id="112_3" d="M347.445 483.587H337.445V493.587H347.445V483.587Z" fill="black"/>
<path id="113_0" d="M347.445 494.587H337.445V504.587H347.445V494.587Z" fill="black"/>
<path id="113_1" d="M347.445 505.587H337.445V515.587H347.445V505.587Z" fill="black"/>
<path id="113_2" d="M347.445 516.587H337.445V526.587H347.445V516.587Z" fill="black"/>
<path id="113_3" d="M347.445 527.587H337.445V537.587H347.445V527.587Z" fill="black"/>
</g>
<g id="col_31">
<path id="40_0" d="M523.446 362.587H513.446V372.587H523.446V362.587Z" fill="black"/>
<path id="40_1" d="M523.446 373.587H513.446V383.587H523.446V373.587Z" fill="black"/>
<path id="40_2" d="M523.446 384.587H513.446V394.587H523.446V384.587Z" fill="black"/>
<path id="40_3" d="M523.446 395.587H513.446V405.587H523.446V395.587Z" fill="black"/>
<path id="41_0" d="M523.446 406.587H513.446V416.587H523.446V406.587Z" fill="black"/>
<path id="41_1" d="M523.446 417.587H513.446V427.587H523.446V417.587Z" fill="black"/>
<path id="41_2" d="M523.446 428.587H513.446V438.587H523.446V428.587Z" fill="black"/>
<path id="41_3" d="M523.446 439.587H513.446V449.587H523.446V439.587Z" fill="black"/>
<path id="120_0" d="M523.446 450.587H513.446V460.587H523.446V450.587Z" fill="black"/>
<path id="120_1" d="M523.446 461.587H513.446V471.587H523.446V461.587Z" fill="black"/>
<path id="120_2" d="M523.446 472.587H513.446V482.587H523.446V472.587Z" fill="black"/>
<path id="120_3" d="M523.446 483.587H513.446V493.587H523.446V483.587Z" fill="black"/>
<path id="121_0" d="M523.446 494.587H513.446V504.587H523.446V494.587Z" fill="black"/>
<path id="121_1" d="M523.446 505.587H513.446V515.587H523.446V505.587Z" fill="black"/>
<path id="121_2" d="M523.446 516.587H513.446V526.587H523.446V516.587Z" fill="black"/>
<path id="121_3" d="M523.446 527.587H513.446V537.587H523.446V527.587Z" fill="black"/>
</g>
<g id="col_30">
<path id="42_0" d="M512.446 362.587H502.446V372.587H512.446V362.587Z" fill="black"/>
<path id="42_1" d="M512.446 373.587H502.446V383.587H512.446V373.587Z" fill="black"/>
<path id="42_2" d="M512.446 384.587H502.446V394.587H512.446V384.587Z" fill="black"/>
<path id="42_3" d="M512.446 395.587H502.446V405.587H512.446V395.587Z" fill="black"/>
<path id="43_0" d="M512.446 406.587H502.446V416.587H512.446V406.587Z" fill="black"/>
<path id="43_1" d="M512.446 417.587H502.446V427.587H512.446V417.587Z" fill="black"/>
<path id="43_2" d="M512.446 428.587H502.446V438.587H512.446V428.587Z" fill="black"/>
<path id="43_3" d="M512.446 439.587H502.446V449.587H512.446V439.587Z" fill="black"/>
<path id="122_0" d="M512.446 450.587H502.446V460.587H512.446V450.587Z" fill="black"/>
<path id="122_1" d="M512.446 461.587H502.446V471.587H512.446V461.587Z" fill="black"/>
<path id="122_2" d="M512.446 472.587H502.446V482.587H512.446V472.587Z" fill="black"/>
<path id="122_3" d="M512.446 483.587H502.446V493.587H512.446V483.587Z" fill="black"/>
<path id="123_0" d="M512.446 494.587H502.446V504.587H512.446V494.587Z" fill="black"/>
<path id="123_1" d="M512.446 505.587H502.446V515.587H512.446V505.587Z" fill="black"/>
<path id="123_2" d="M512.446 516.587H502.446V526.587H512.446V516.587Z" fill="black"/>
<path id="123_3" d="M512.446 527.587H502.446V537.587H512.446V527.587Z" fill="black"/>
</g>
<g id="col_29">
<path id="44_0" d="M501.446 362.587H491.446V372.587H501.446V362.587Z" fill="black"/>
<path id="44_1" d="M501.446 373.587H491.446V383.587H501.446V373.587Z" fill="black"/>
<path id="44_2" d="M501.446 384.587H491.446V394.587H501.446V384.587Z" fill="black"/>
<path id="44_3" d="M501.446 395.587H491.446V405.587H501.446V395.587Z" fill="black"/>
<path id="45_0" d="M501.446 406.587H491.446V416.587H501.446V406.587Z" fill="black"/>
<path id="45_1" d="M501.446 417.587H491.446V427.587H501.446V417.587Z" fill="black"/>
<path id="45_2" d="M501.446 428.587H491.446V438.587H501.446V428.587Z" fill="black"/>
<path id="45_3" d="M501.446 439.587H491.446V449.587H501.446V439.587Z" fill="black"/>
<path id="124_0" d="M501.446 450.587H491.446V460.587H501.446V450.587Z" fill="black"/>
<path id="124_1" d="M501.446 461.587H491.446V471.587H501.446V461.587Z" fill="black"/>
<path id="124_2" d="M501.446 472.587H491.446V482.587H501.446V472.587Z" fill="black"/>
<path id="124_3" d="M501.446 483.587H491.446V493.587H501.446V483.587Z" fill="black"/>
<path id="125_0" d="M501.446 494.587H491.446V504.587H501.446V494.587Z" fill="black"/>
<path id="125_1" d="M501.446 505.587H491.446V515.587H501.446V505.587Z" fill="black"/>
<path id="125_2" d="M501.446 516.587H491.446V526.587H501.446V516.587Z" fill="black"/>
<path id="125_3" d="M501.446 527.587H491.446V537.587H501.446V527.587Z" fill="black"/>
</g>
<g id="col_28">
<path id="46_0" d="M490.446 362.587H480.446V372.587H490.446V362.587Z" fill="black"/>
<path id="46_1" d="M490.446 373.587H480.446V383.587H490.446V373.587Z" fill="black"/>
<path id="46_2" d="M490.446 384.587H480.446V394.587H490.446V384.587Z" fill="black"/>
<path id="46_3" d="M490.446 395.587H480.446V405.587H490.446V395.587Z" fill="black"/>
<path id="47_0" d="M490.446 406.587H480.446V416.587H490.446V406.587Z" fill="black"/>
<path id="47_1" d="M490.446 417.587H480.446V427.587H490.446V417.587Z" fill="black"/>
<path id="47_2" d="M490.446 428.587H480.446V438.587H490.446V428.587Z" fill="black"/>
<path id="47_3" d="M490.446 439.587H480.446V449.587H490.446V439.587Z" fill="black"/>
<path id="126_0" d="M490.446 450.587H480.446V460.587H490.446V450.587Z" fill="black"/>
<path id="126_1" d="M490.446 461.587H480.446V471.587H490.446V461.587Z" fill="black"/>
<path id="126_2" d="M490.446 472.587H480.446V482.587H490.446V472.587Z" fill="black"/>
<path id="126_3" d="M490.446 483.587H480.446V493.587H490.446V483.587Z" fill="black"/>
<path id="127_0" d="M490.446 494.587H480.446V504.587H490.446V494.587Z" fill="black"/>
<path id="127_1" d="M490.446 505.587H480.446V515.587H490.446V505.587Z" fill="black"/>
<path id="127_2" d="M490.446 516.587H480.446V526.587H490.446V516.587Z" fill="black"/>
<path id="127_3" d="M490.446 527.587H480.446V537.587H490.446V527.587Z" fill="black"/>
</g>
<g id="col_27">
<path id="48_0" d="M479.446 362.587H469.446V372.587H479.446V362.587Z" fill="black"/>
<path id="48_1" d="M479.446 373.587H469.446V383.587H479.446V373.587Z" fill="black"/>
<path id="48_2" d="M479.446 384.587H469.446V394.587H479.446V384.587Z" fill="black"/>
<path id="48_3" d="M479.446 395.587H469.446V405.587H479.446V395.587Z" fill="black"/>
<path id="49_0" d="M479.446 406.587H469.446V416.587H479.446V406.587Z" fill="black"/>
<path id="49_1" d="M479.446 417.587H469.446V427.587H479.446V417.587Z" fill="black"/>
<path id="49_2" d="M479.446 428.587H469.446V438.587H479.446V428.587Z" fill="black"/>
<path id="49_3" d="M479.446 439.587H469.446V449.587H479.446V439.587Z" fill="black"/>
<path id="128_0" d="M479.446 450.587H469.446V460.587H479.446V450.587Z" fill="black"/>
<path id="128_1" d="M479.446 461.587H469.446V471.587H479.446V461.587Z" fill="black"/>
<path id="128_2" d="M479.446 472.587H469.446V482.587H479.446V472.587Z" fill="black"/>
<path id="128_3" d="M479.446 483.587H469.446V493.587H479.446V483.587Z" fill="black"/>
<path id="129_0" d="M479.446 494.587H469.446V504.587H479.446V494.587Z" fill="black"/>
<path id="129_1" d="M479.446 505.587H469.446V515.587H479.446V505.587Z" fill="black"/>
<path id="129_2" d="M479.446 516.587H469.446V526.587H479.446V516.587Z" fill="black"/>
<path id="129_3" d="M479.446 527.587H469.446V537.587H479.446V527.587Z" fill="black"/>
</g>
<g id="col_26">
<path id="50_0" d="M468.446 362.587H458.446V372.587H468.446V362.587Z" fill="black"/>
<path id="50_1" d="M468.446 373.587H458.446V383.587H468.446V373.587Z" fill="black"/>
<path id="50_2" d="M468.446 384.587H458.446V394.587H468.446V384.587Z" fill="black"/>
<path id="50_3" d="M468.446 395.587H458.446V405.587H468.446V395.587Z" fill="black"/>
<path id="51_0" d="M468.446 406.587H458.446V416.587H468.446V406.587Z" fill="black"/>
<path id="51_1" d="M468.446 417.587H458.446V427.587H468.446V417.587Z" fill="black"/>
<path id="51_2" d="M468.446 428.587H458.446V438.587H468.446V428.587Z" fill="black"/>
<path id="51_3" d="M468.446 439.587H458.446V449.587H468.446V439.587Z" fill="black"/>
<path id="130_0" d="M468.446 450.587H458.446V460.587H468.446V450.587Z" fill="black"/>
<path id="130_1" d="M468.446 461.587H458.446V471.587H468.446V461.587Z" fill="black"/>
<path id="130_2" d="M468.446 472.587H458.446V482.587H468.446V472.587Z" fill="black"/>
<path id="130_3" d="M468.446 483.587H458.446V493.587H468.446V483.587Z" fill="black"/>
<path id="131_0" d="M468.446 494.587H458.446V504.587H468.446V494.587Z" fill="black"/>
<path id="131_1" d="M468.446 505.587H458.446V515.587H468.446V505.587Z" fill="black"/>
<path id="131_2" d="M468.446 516.587H458.446V526.587H468.446V516.587Z" fill="black"/>
<path id="131_3" d="M468.446 527.587H458.446V537.587H468.446V527.587Z" fill="black"/>
</g>
<g id="col_25">
<path id="52_0" d="M457.445 362.587H447.445V372.587H457.445V362.587Z" fill="black"/>
<path id="52_1" d="M457.445 373.587H447.445V383.587H457.445V373.587Z" fill="black"/>
<path id="52_2" d="M457.445 384.587H447.445V394.587H457.445V384.587Z" fill="black"/>
<path id="52_3" d="M457.445 395.587H447.445V405.587H457.445V395.587Z" fill="black"/>
<path id="53_0" d="M457.445 406.587H447.445V416.587H457.445V406.587Z" fill="black"/>
<path id="53_1" d="M457.445 417.587H447.445V427.587H457.445V417.587Z" fill="black"/>
<path id="53_2" d="M457.445 428.587H447.445V438.587H457.445V428.587Z" fill="black"/>
<path id="53_3" d="M457.445 439.587H447.445V449.587H457.445V439.587Z" fill="black"/>
<path id="132_0" d="M457.445 450.587H447.445V460.587H457.445V450.587Z" fill="black"/>
<path id="132_1" d="M457.445 461.587H447.445V471.587H457.445V461.587Z" fill="black"/>
<path id="132_2" d="M457.445 472.587H447.445V482.587H457.445V472.587Z" fill="black"/>
<path id="132_3" d="M457.445 483.587H447.445V493.587H457.445V483.587Z" fill="black"/>
<path id="133_0" d="M457.445 494.587H447.445V504.587H457.445V494.587Z" fill="black"/>
<path id="133_1" d="M457.445 505.587H447.445V515.587H457.445V505.587Z" fill="black"/>
<path id="133_2" d="M457.445 516.587H447.445V526.587H457.445V516.587Z" fill="black"/>
<path id="133_3" d="M457.445 527.587H447.445V537.587H457.445V527.587Z" fill="black"/>
</g>
<g id="col_24">
<path id="54_0" d="M446.445 362.587H436.445V372.587H446.445V362.587Z" fill="black"/>
<path id="54_1" d="M446.445 373.587H436.445V383.587H446.445V373.587Z" fill="black"/>
<path id="54_2" d="M446.445 384.587H436.445V394.587H446.445V384.587Z" fill="black"/>
<path id="54_3" d="M446.445 395.587H436.445V405.587H446.445V395.587Z" fill="black"/>
<path id="55_0" d="M446.445 406.587H436.445V416.587H446.445V406.587Z" fill="black"/>
<path id="55_1" d="M446.445 417.587H436.445V427.587H446.445V417.587Z" fill="black"/>
<path id="55_2" d="M446.445 428.587H436.445V438.587H446.445V428.587Z" fill="black"/>
<path id="55_3" d="M446.445 439.587H436.445V449.587H446.445V439.587Z" fill="black"/>
<path id="134_0" d="M446.445 450.587H436.445V460.587H446.445V450.587Z" fill="black"/>
<path id="134_1" d="M446.445 461.587H436.445V471.587H446.445V461.587Z" fill="black"/>
<path id="134_2" d="M446.445 472.587H436.445V482.587H446.445V472.587Z" fill="black"/>
<path id="134_3" d="M446.445 483.587H436.445V493.587H446.445V483.587Z" fill="black"/>
<path id="135_0" d="M446.445 494.587H436.445V504.587H446.445V494.587Z" fill="black"/>
<path id="135_1" d="M446.445 505.587H436.445V515.587H446.445V505.587Z" fill="black"/>
<path id="135_2" d="M446.445 516.587H436.445V526.587H446.445V516.587Z" fill="black"/>
<path id="135_3" d="M446.445 527.587H436.445V537.587H446.445V527.587Z" fill="black"/>
</g>
<g id="col_23">
<path id="58_0" d="M435.445 362.587H425.445V372.587H435.445V362.587Z" fill="black"/>
<path id="58_1" d="M435.445 373.587H425.445V383.587H435.445V373.587Z" fill="black"/>
<path id="58_2" d="M435.445 384.587H425.445V394.587H435.445V384.587Z" fill="black"/>
<path id="58_3" d="M435.445 395.587H425.445V405.587H435.445V395.587Z" fill="black"/>
<path id="59_0" d="M435.445 406.587H425.445V416.587H435.445V406.587Z" fill="black"/>
<path id="59_1" d="M435.445 417.587H425.445V427.587H435.445V417.587Z" fill="black"/>
<path id="59_2" d="M435.445 428.587H425.445V438.587H435.445V428.587Z" fill="black"/>
<path id="59_3" d="M435.445 439.587H425.445V449.587H435.445V439.587Z" fill="black"/>
<path id="138_0" d="M435.445 450.587H425.445V460.587H435.445V450.587Z" fill="black"/>
<path id="138_1" d="M435.445 461.587H425.445V471.587H435.445V461.587Z" fill="black"/>
<path id="138_2" d="M435.445 472.587H425.445V482.587H435.445V472.587Z" fill="black"/>
<path id="138_3" d="M435.445 483.587H425.445V493.587H435.445V483.587Z" fill="black"/>
<path id="139_0" d="M435.445 494.587H425.445V504.587H435.445V494.587Z" fill="black"/>
<path id="139_1" d="M435.445 505.587H425.445V515.587H435.445V505.587Z" fill="black"/>
<path id="139_2" d="M435.445 516.587H425.445V526.587H435.445V516.587Z" fill="black"/>
<path id="139_3" d="M435.445 527.587H425.445V537.587H435.445V527.587Z" fill="black"/>
</g>
<g id="col_22">
<path id="60_0" d="M424.445 362.587H414.445V372.587H424.445V362.587Z" fill="black"/>
<path id="60_1" d="M424.445 373.587H414.445V383.587H424.445V373.587Z" fill="black"/>
<path id="60_2" d="M424.445 384.587H414.445V394.587H424.445V384.587Z" fill="black"/>
<path id="60_3" d="M424.445 395.587H414.445V405.587H424.445V395.587Z" fill="black"/>
<path id="61_0" d="M424.445 406.587H414.445V416.587H424.445V406.587Z" fill="black"/>
<path id="61_1" d="M424.445 417.587H414.445V427.587H424.445V417.587Z" fill="black"/>
<path id="61_2" d="M424.445 428.587H414.445V438.587H424.445V428.587Z" fill="black"/>
<path id="61_3" d="M424.445 439.587H414.445V449.587H424.445V439.587Z" fill="black"/>
<path id="140_0" d="M424.445 450.587H414.445V460.587H424.445V450.587Z" fill="black"/>
<path id="140_1" d="M424.445 461.587H414.445V471.587H424.445V461.587Z" fill="black"/>
<path id="140_2" d="M424.445 472.587H414.445V482.587H424.445V472.587Z" fill="black"/>
<path id="140_3" d="M424.445 483.587H414.445V493.587H424.445V483.587Z" fill="black"/>
<path id="141_0" d="M424.445 494.587H414.445V504.587H424.445V494.587Z" fill="black"/>
<path id="141_1" d="M424.445 505.587H414.445V515.587H424.445V505.587Z" fill="black"/>
<path id="141_2" d="M424.445 516.587H414.445V526.587H424.445V516.587Z" fill="black"/>
<path id="141_3" d="M424.445 527.587H414.445V537.587H424.445V527.587Z" fill="black"/>
</g>
<g id="col_21">
<path id="62_0" d="M413.445 362.587H403.445V372.587H413.445V362.587Z" fill="black"/>
<path id="62_1" d="M413.445 373.587H403.445V383.587H413.445V373.587Z" fill="black"/>
<path id="62_2" d="M413.445 384.587H403.445V394.587H413.445V384.587Z" fill="black"/>
<path id="62_3" d="M413.445 395.587H403.445V405.587H413.445V395.587Z" fill="black"/>
<path id="63_0" d="M413.445 406.587H403.445V416.587H413.445V406.587Z" fill="black"/>
<path id="63_1" d="M413.445 417.587H403.445V427.587H413.445V417.587Z" fill="black"/>
<path id="63_2" d="M413.445 428.587H403.445V438.587H413.445V428.587Z" fill="black"/>
<path id="63_3" d="M413.445 439.587H403.445V449.587H413.445V439.587Z" fill="black"/>
<path id="142_0" d="M413.445 450.587H403.445V460.587H413.445V450.587Z" fill="black"/>
<path id="142_1" d="M413.445 461.587H403.445V471.587H413.445V461.587Z" fill="black"/>
<path id="142_2" d="M413.445 472.587H403.445V482.587H413.445V472.587Z" fill="black"/>
<path id="142_3" d="M413.445 483.587H403.445V493.587H413.445V483.587Z" fill="black"/>
<path id="143_0" d="M413.445 494.587H403.445V504.587H413.445V494.587Z" fill="black"/>
<path id="143_1" d="M413.445 505.587H403.445V515.587H413.445V505.587Z" fill="black"/>
<path id="143_2" d="M413.445 516.587H403.445V526.587H413.445V516.587Z" fill="black"/>
<path id="143_3" d="M413.445 527.587H403.445V537.587H413.445V527.587Z" fill="black"/>
</g>
<g id="col_20">
<path id="64_0" d="M402.445 362.587H392.445V372.587H402.445V362.587Z" fill="black"/>
<path id="64_1" d="M402.445 373.587H392.445V383.587H402.445V373.587Z" fill="black"/>
<path id="64_2" d="M402.445 384.587H392.445V394.587H402.445V384.587Z" fill="black"/>
<path id="64_3" d="M402.445 395.587H392.445V405.587H402.445V395.587Z" fill="black"/>
<path id="65_0" d="M402.445 406.587H392.445V416.587H402.445V406.587Z" fill="black"/>
<path id="65_1" d="M402.445 417.587H392.445V427.587H402.445V417.587Z" fill="black"/>
<path id="65_2" d="M402.445 428.587H392.445V438.587H402.445V428.587Z" fill="black"/>
<path id="65_3" d="M402.445 439.587H392.445V449.587H402.445V439.587Z" fill="black"/>
<path id="144_0" d="M402.445 450.587H392.445V460.587H402.445V450.587Z" fill="black"/>
<path id="144_1" d="M402.445 461.587H392.445V471.587H402.445V461.587Z" fill="black"/>
<path id="144_2" d="M402.445 472.587H392.445V482.587H402.445V472.587Z" fill="black"/>
<path id="144_3" d="M402.445 483.587H392.445V493.587H402.445V483.587Z" fill="black"/>
<path id="145_0" d="M402.445 494.587H392.445V504.587H402.445V494.587Z" fill="black"/>
<path id="145_1" d="M402.445 505.587H392.445V515.587H402.445V505.587Z" fill="black"/>
<path id="145_2" d="M402.445 516.587H392.445V526.587H402.445V516.587Z" fill="black"/>
<path id="145_3" d="M402.445 527.587H392.445V537.587H402.445V527.587Z" fill="black"/>
</g>
<g id="col_19">
<path id="66_0" d="M391.445 362.587H381.445V372.587H391.445V362.587Z" fill="black"/>
<path id="66_1" d="M391.445 373.587H381.445V383.587H391.445V373.587Z" fill="black"/>
<path id="66_2" d="M391.445 384.587H381.445V394.587H391.445V384.587Z" fill="black"/>
<path id="66_3" d="M391.445 395.587H381.445V405.587H391.445V395.587Z" fill="black"/>
<path id="67_0" d="M391.445 406.587H381.445V416.587H391.445V406.587Z" fill="black"/>
<path id="67_1" d="M391.445 417.587H381.445V427.587H391.445V417.587Z" fill="black"/>
<path id="67_2" d="M391.445 428.587H381.445V438.587H391.445V428.587Z" fill="black"/>
<path id="67_3" d="M391.445 439.587H381.445V449.587H391.445V439.587Z" fill="black"/>
<path id="146_0" d="M391.445 450.587H381.445V460.587H391.445V450.587Z" fill="black"/>
<path id="146_1" d="M391.445 461.587H381.445V471.587H391.445V461.587Z" fill="black"/>
<path id="146_2" d="M391.445 472.587H381.445V482.587H391.445V472.587Z" fill="black"/>
<path id="146_3" d="M391.445 483.587H381.445V493.587H391.445V483.587Z" fill="black"/>
<path id="147_0" d="M391.445 494.587H381.445V504.587H391.445V494.587Z" fill="black"/>
<path id="147_1" d="M391.445 505.587H381.445V515.587H391.445V505.587Z" fill="black"/>
<path id="147_2" d="M391.445 516.587H381.445V526.587H391.445V516.587Z" fill="black"/>
<path id="147_3" d="M391.445 527.587H381.445V537.587H391.445V527.587Z" fill="black"/>
</g>
<g id="col_18">
<path id="68_0" d="M380.445 362.587H370.445V372.587H380.445V362.587Z" fill="black"/>
<path id="68_1" d="M380.445 373.587H370.445V383.587H380.445V373.587Z" fill="black"/>
<path id="68_2" d="M380.445 384.587H370.445V394.587H380.445V384.587Z" fill="black"/>
<path id="68_3" d="M380.445 395.587H370.445V405.587H380.445V395.587Z" fill="black"/>
<path id="69_0" d="M380.445 406.587H370.445V416.587H380.445V406.587Z" fill="black"/>
<path id="69_1" d="M380.445 417.587H370.445V427.587H380.445V417.587Z" fill="black"/>
<path id="69_2" d="M380.445 428.587H370.445V438.587H380.445V428.587Z" fill="black"/>
<path id="69_3" d="M380.445 439.587H370.445V449.587H380.445V439.587Z" fill="black"/>
<path id="148_0" d="M380.445 450.587H370.445V460.587H380.445V450.587Z" fill="black"/>
<path id="148_1" d="M380.445 461.587H370.445V471.587H380.445V461.587Z" fill="black"/>
<path id="148_2" d="M380.445 472.587H370.445V482.587H380.445V472.587Z" fill="black"/>
<path id="148_3" d="M380.445 483.587H370.445V493.587H380.445V483.587Z" fill="black"/>
<path id="149_0" d="M380.445 494.587H370.445V504.587H380.445V494.587Z" fill="black"/>
<path id="149_1" d="M380.445 505.587H370.445V515.587H380.445V505.587Z" fill="black"/>
<path id="149_2" d="M380.445 516.587H370.445V526.587H380.445V516.587Z" fill="black"/>
<path id="149_3" d="M380.445 527.587H370.445V537.587H380.445V527.587Z" fill="black"/>
</g>
<g id="col_17">
<path id="70_0" d="M369.445 362.587H359.445V372.587H369.445V362.587Z" fill="black"/>
<path id="70_1" d="M369.445 373.587H359.445V383.587H369.445V373.587Z" fill="black"/>
<path id="70_2" d="M369.445 384.587H359.445V394.587H369.445V384.587Z" fill="black"/>
<path id="70_3" d="M369.445 395.587H359.445V405.587H369.445V395.587Z" fill="black"/>
<path id="71_0" d="M369.445 406.587H359.445V416.587H369.445V406.587Z" fill="black"/>
<path id="71_1" d="M369.445 417.587H359.445V427.587H369.445V417.587Z" fill="black"/>
<path id="71_2" d="M369.445 428.587H359.445V438.587H369.445V428.587Z" fill="black"/>
<path id="71_3" d="M369.445 439.587H359.445V449.587H369.445V439.587Z" fill="black"/>
<path id="150_0" d="M369.445 450.587H359.445V460.587H369.445V450.587Z" fill="black"/>
<path id="150_1" d="M369.445 461.587H359.445V471.587H369.445V461.587Z" fill="black"/>
<path id="150_2" d="M369.445 472.587H359.445V482.587H369.445V472.587Z" fill="black"/>
<path id="150_3" d="M369.445 483.587H359.445V493.587H369.445V483.587Z" fill="black"/>
<path id="151_0" d="M369.445 494.587H359.445V504.587H369.445V494.587Z" fill="black"/>
<path id="151_1" d="M369.445 505.587H359.445V515.587H369.445V505.587Z" fill="black"/>
<path id="151_2" d="M369.445 516.587H359.445V526.587H369.445V516.587Z" fill="black"/>
<path id="151_3" d="M369.445 527.587H359.445V537.587H369.445V527.587Z" fill="black"/>
</g>
<g id="col_16">
<path id="72_0" d="M358.445 362.587H348.445V372.587H358.445V362.587Z" fill="black"/>
<path id="72_1" d="M358.445 373.587H348.445V383.587H358.445V373.587Z" fill="black"/>
<path id="72_2" d="M358.445 384.587H348.445V394.587H358.445V384.587Z" fill="black"/>
<path id="72_3" d="M358.445 395.587H348.445V405.587H358.445V395.587Z" fill="black"/>
<path id="73_0" d="M358.445 406.587H348.445V416.587H358.445V406.587Z" fill="black"/>
<path id="73_1" d="M358.445 417.587H348.445V427.587H358.445V417.587Z" fill="black"/>
<path id="73_2" d="M358.445 428.587H348.445V438.587H358.445V428.587Z" fill="black"/>
<path id="73_3" d="M358.445 439.587H348.445V449.587H358.445V439.587Z" fill="black"/>
<path id="152_0" d="M358.445 450.587H348.445V460.587H358.445V450.587Z" fill="black"/>
<path id="152_1" d="M358.445 461.587H348.445V471.587H358.445V461.587Z" fill="black"/>
<path id="152_2" d="M358.445 472.587H348.445V482.587H358.445V472.587Z" fill="black"/>
<path id="152_3" d="M358.445 483.587H348.445V493.587H358.445V483.587Z" fill="black"/>
<path id="153_0" d="M358.445 494.587H348.445V504.587H358.445V494.587Z" fill="black"/>
<path id="153_1" d="M358.445 505.587H348.445V515.587H358.445V505.587Z" fill="black"/>
<path id="153_2" d="M358.445 516.587H348.445V526.587H358.445V516.587Z" fill="black"/>
<path id="153_3" d="M358.445 527.587H348.445V537.587H358.445V527.587Z" fill="black"/>
</g>
<g id="137_2">
<path d="M373.896 571.555C373.896 572.318 373.261 572.937 372.479 572.937C371.697 572.937 371.063 572.318 371.063 571.555C371.063 570.792 371.697 570.173 372.479 570.173C373.261 570.173 373.896 570.792 373.896 571.555Z" fill="black"/>
<path d="M378.525 572.004C379.307 572.004 379.941 571.385 379.941 570.622C379.941 569.859 379.307 569.24 378.525 569.24C377.742 569.24 377.108 569.859 377.108 570.622C377.108 571.385 377.742 572.004 378.525 572.004Z" fill="black"/>
<path fill-rule="evenodd" clip-rule="evenodd" d="M373.698 562.217C374.105 562.152 374.419 561.81 374.419 561.398L374.419 558.266C374.419 557.824 374.777 557.466 375.219 557.466H375.861C376.303 557.466 376.661 557.824 376.661 558.266V562.06C376.661 562.097 376.689 562.128 376.726 562.132C377.208 562.181 377.682 562.26 378.146 562.367C378.547 562.459 378.966 562.261 379.121 561.88L380.304 558.98C380.471 558.571 380.938 558.375 381.347 558.542L381.942 558.784C382.351 558.951 382.547 559.418 382.38 559.827L381.197 562.728C381.042 563.109 381.202 563.543 381.554 563.758C381.827 563.924 382.092 564.102 382.35 564.29C382.682 564.533 383.145 564.515 383.438 564.225L385.664 562.02C385.978 561.709 386.484 561.711 386.795 562.025L387.247 562.481C387.558 562.795 387.556 563.301 387.242 563.612L385.017 565.818C384.724 566.108 384.702 566.571 384.942 566.906C385.106 567.134 385.261 567.369 385.409 567.61C385.623 567.961 386.058 568.121 386.438 567.965L389.338 566.781C389.747 566.614 390.214 566.81 390.381 567.219L390.624 567.813C390.791 568.222 390.595 568.689 390.186 568.857L387.288 570.04C386.907 570.196 386.71 570.615 386.802 571.016C386.86 571.266 386.91 571.52 386.951 571.776C387.017 572.183 387.359 572.496 387.771 572.495L390.902 572.492C391.344 572.492 391.702 572.85 391.703 573.291L391.703 573.934C391.704 574.375 391.346 574.734 390.904 574.734L387.774 574.738C387.362 574.738 387.021 575.052 386.956 575.46C386.905 575.782 386.841 576.099 386.763 576.412C386.665 576.812 386.856 577.233 387.235 577.395L390.113 578.621C390.519 578.795 390.708 579.264 390.535 579.671L390.283 580.262C390.11 580.668 389.64 580.857 389.233 580.684L386.355 579.457C385.977 579.296 385.54 579.45 385.32 579.798C385.195 579.996 385.064 580.19 384.928 580.38C384.687 580.714 384.708 581.177 385 581.468L387.217 583.675C387.53 583.987 387.531 584.494 387.219 584.807L386.766 585.262C386.455 585.575 385.948 585.576 385.635 585.264L383.418 583.057C383.126 582.766 382.663 582.747 382.33 582.99C382.122 583.141 381.909 583.285 381.692 583.422C381.343 583.641 381.189 584.078 381.349 584.456L382.57 587.335C382.743 587.742 382.553 588.212 382.146 588.384L381.555 588.635C381.148 588.807 380.679 588.618 380.506 588.211L379.286 585.334C379.125 584.955 378.704 584.763 378.304 584.861C378.001 584.935 377.693 584.998 377.381 585.048C376.975 585.113 376.661 585.455 376.661 585.867V588.993C376.661 589.434 376.303 589.793 375.861 589.793H375.219C374.777 589.793 374.419 589.434 374.419 588.993L374.419 585.868C374.419 585.455 374.105 585.114 373.698 585.049C373.439 585.007 373.183 584.957 372.931 584.899C372.529 584.807 372.111 585.005 371.955 585.386L370.776 588.278C370.609 588.687 370.142 588.884 369.733 588.717L369.138 588.474C368.729 588.307 368.533 587.84 368.699 587.431L369.879 584.539C370.035 584.158 369.874 583.723 369.523 583.509C369.249 583.342 368.982 583.164 368.724 582.975C368.391 582.732 367.928 582.75 367.635 583.04L365.415 585.239C365.102 585.55 364.595 585.548 364.284 585.234L363.832 584.778C363.521 584.464 363.523 583.957 363.837 583.646L366.057 581.447C366.349 581.157 366.371 580.694 366.131 580.359C365.967 580.13 365.811 579.894 365.663 579.652C365.449 579.301 365.014 579.141 364.633 579.296L361.742 580.478C361.333 580.645 360.866 580.449 360.699 580.04L360.456 579.445C360.289 579.036 360.485 578.569 360.894 578.402L363.785 577.221C364.166 577.065 364.363 576.646 364.271 576.245C364.213 575.994 364.163 575.74 364.122 575.483C364.056 575.076 363.714 574.763 363.302 574.763L360.178 574.766C359.736 574.767 359.377 574.409 359.377 573.967L359.376 573.325C359.376 572.883 359.734 572.525 360.175 572.524L363.301 572.521C363.713 572.52 364.054 572.206 364.119 571.8C364.17 571.477 364.235 571.159 364.313 570.846C364.411 570.446 364.22 570.024 363.841 569.862L360.967 568.637C360.561 568.464 360.372 567.994 360.545 567.588L360.797 566.997C360.97 566.59 361.44 566.401 361.846 566.575L364.723 567.801C365.102 567.962 365.538 567.808 365.758 567.461C365.883 567.263 366.014 567.069 366.151 566.879C366.392 566.545 366.371 566.081 366.079 565.791L363.862 563.583C363.549 563.271 363.548 562.765 363.86 562.452L364.313 561.997C364.625 561.684 365.132 561.682 365.445 561.994L367.663 564.203C367.955 564.494 368.418 564.513 368.751 564.271C368.958 564.12 369.171 563.976 369.389 563.839C369.737 563.62 369.892 563.184 369.731 562.805L368.509 559.923C368.337 559.516 368.527 559.047 368.933 558.874L369.525 558.624C369.931 558.451 370.401 558.641 370.573 559.048L371.796 561.929C371.956 562.308 372.378 562.501 372.777 562.403C373.08 562.329 373.387 562.266 373.698 562.217ZM375.54 582.379C380.372 582.379 384.29 578.462 384.29 573.629C384.29 568.797 380.372 564.879 375.54 564.879C370.707 564.879 366.79 568.797 366.79 573.629C366.79 578.462 370.707 582.379 375.54 582.379Z" fill="black"/>
<path d="M406.18 583.869C406.18 584.633 405.546 585.251 404.764 585.251C403.982 585.251 403.348 584.633 403.348 583.869C403.348 583.106 403.982 582.488 404.764 582.488C405.546 582.488 406.18 583.106 406.18 583.869Z" fill="black"/>
<path fill-rule="evenodd" clip-rule="evenodd" d="M397.2 585.743C394.727 589.624 389.576 590.278 386.346 590.687C384.753 590.89 383.627 591.032 383.522 591.474C383.204 592.812 386.13 598.042 392.247 599.96C398.364 601.879 407.22 598.659 410.126 591.474C413.033 584.29 410.447 576.381 406.562 572.878C402.677 569.375 395.602 568.945 395.098 570.331C394.949 570.742 395.399 571.758 396.01 573.134C397.455 576.392 399.797 581.669 397.2 585.743ZM399.94 587.24C396.735 592.713 391.756 593.04 389.519 593.187C388.828 593.232 388.398 593.261 388.364 593.418C388.218 594.085 389.706 596.086 394.154 596.887C398.601 597.688 405.272 595.556 407.441 589.718C409.611 583.881 407.93 578.098 405.03 575.252C402.13 572.406 399.192 571.938 398.958 572.641C398.907 572.792 399.118 573.222 399.439 573.876C400.607 576.261 403.233 581.618 399.94 587.24Z" fill="black"/>
</g>
<g id="137_3">
<path d="M443.413 578.897C442.84 579.126 439.5 577.657 437.195 576.583C436.38 576.204 435.496 577 435.798 577.846L442.796 597.433C443.139 598.393 444.537 598.286 444.733 597.285C445.09 595.465 445.497 593.447 445.725 592.501C446.194 590.557 447.579 589.079 448.475 589.234C449.371 589.389 455.23 594.954 461.84 593.328C468.45 591.702 472.184 587.906 473.39 585.913C474.597 583.919 474.535 580.633 474.535 580.633C474.535 580.633 465.827 579.269 464.515 578.744C463.204 578.219 462.582 577.339 462.742 576.394C462.902 575.45 468.267 566.079 468.267 566.079C468.267 566.079 466.441 563.483 462.121 562.506C457.801 561.53 452.506 564.08 449.193 567.738C445.88 571.396 444.302 578.541 443.413 578.897Z" fill="black"/>
<path d="M473.479 558.718L472.173 565.285C472.078 565.764 472.655 566.082 473.008 565.744L478.846 560.176C479.135 559.9 478.999 559.412 478.608 559.326L474.077 558.327C473.803 558.267 473.533 558.443 473.479 558.718Z" fill="black"/>
<path d="M482.114 565.064L476.254 571.014C475.886 571.387 476.267 572.003 476.765 571.841L484.844 569.207C485.159 569.105 485.289 568.729 485.105 568.454L482.886 565.137C482.71 564.873 482.336 564.838 482.114 565.064Z" fill="black"/>
<path d="M485.792 576.888L478.278 577.312C477.787 577.34 477.627 577.986 478.049 578.24L484.385 582.047C484.668 582.217 485.035 582.07 485.124 581.752L486.302 577.521C486.394 577.191 486.134 576.869 485.792 576.888Z" fill="black"/>
</g>
<g id="16_2">
<path fill-rule="evenodd" clip-rule="evenodd" d="M363.122 319.295C362.971 317.658 363.559 311.348 369.099 306.761C374.639 302.175 380.33 302.806 380.33 302.806C380.33 302.806 388.524 304.578 393.838 306.484C399.153 308.39 405.348 311.541 406.487 312.33C407.626 313.12 409.305 316.31 409.388 317.027C409.47 317.743 408.179 333.01 407.985 333.762C407.813 334.431 405.932 335.706 404.915 336.395C404.789 336.481 404.676 336.558 404.582 336.623C403.724 337.213 393.043 341.833 391.99 342.238C390.936 342.643 389.203 343.131 387.65 342.871C386.096 342.611 369.898 338.399 368.448 337.762C366.998 337.125 366.335 336.051 366.003 334.896C365.672 333.742 363.272 320.933 363.122 319.295ZM378.079 305.876L382.703 307.303C383.448 307.533 383.651 308.467 383.078 308.979C382.113 309.844 380.79 311.089 379.705 312.335C378.522 313.693 377.758 314.888 377.336 315.624C377.089 316.055 376.557 316.284 376.067 316.135L374.145 315.552C373.517 315.362 372.872 315.797 372.845 316.429L372.781 317.919C372.754 318.568 372.077 319.004 371.441 318.783L368.113 317.624C367.622 317.453 367.355 316.952 367.53 316.479C368.067 315.037 369.389 312.023 371.765 309.674C374.407 307.062 376.755 306.129 377.534 305.874C377.711 305.815 377.901 305.821 378.079 305.876ZM383.711 318.993L381.861 318.241C381.329 318.025 381.105 317.426 381.397 316.947C381.815 316.262 382.5 315.199 383.506 313.812C384.983 311.777 387.449 310.139 388.412 309.546C388.666 309.389 388.979 309.364 389.261 309.466L393.767 311.094C394.531 311.37 394.665 312.385 394.025 312.872C392.486 314.045 390.217 316.006 389.111 318.099C388.116 319.984 387.746 321.668 387.613 322.778C387.534 323.442 386.841 323.955 386.173 323.77L385.045 323.459C384.617 323.34 384.321 322.964 384.321 322.536V319.877C384.321 319.491 384.081 319.143 383.711 318.993ZM393.04 324.116L405.904 319.769C406.312 319.632 406.58 319.258 406.522 318.847C406.264 317.017 405 312.314 398.849 314.093C393.128 315.748 392.021 320.865 391.823 323.268C391.77 323.905 392.413 324.328 393.04 324.116ZM404.536 323.008L392.236 327.456C391.851 327.595 391.595 327.945 391.588 328.34L391.44 337.291C391.432 337.807 391.848 338.236 392.384 338.225C392.815 338.216 393.32 338.184 393.745 338.102C394.701 337.916 401.941 334.654 403.342 333.923C404.361 333.392 405.14 332.603 405.489 332.212C405.625 332.061 405.693 331.868 405.698 331.668L405.888 323.929C405.905 323.249 405.199 322.768 404.536 323.008ZM368.94 321.063L371.73 321.957C372.138 322.088 372.414 322.456 372.413 322.869L372.404 330.628C372.404 331.035 372.67 331.398 373.07 331.534L374.649 332.073C375.043 332.207 375.308 332.563 375.314 332.965L375.342 334.947C375.352 335.598 374.698 336.071 374.049 335.882C372.613 335.465 371.054 334.998 370.456 334.677C369.664 334.254 368.497 332.588 368.363 331.899C368.259 331.368 367.821 324.943 367.626 322.031C367.581 321.351 368.267 320.848 368.94 321.063ZM378.794 336.597L378.821 334.862C378.831 334.224 379.473 333.773 380.109 333.956L382.691 334.702C383.331 334.887 383.976 334.428 383.979 333.786L384.001 328.236C384.004 327.599 384.64 327.141 385.277 327.317L386.709 327.712C387.133 327.829 387.427 328.195 387.433 328.619C387.46 330.688 387.537 336.608 387.528 337.297C387.516 338.134 386.689 339.249 386.117 339.262C385.66 339.272 381.261 338.031 379.503 337.529C379.075 337.407 378.787 337.026 378.794 336.597ZM376.56 329.724C376.45 329.417 376.475 327.783 376.497 326.891C376.506 326.533 376.308 326.198 376.029 325.96C375.503 325.511 374.736 324.619 374.723 323.23C374.704 321.113 376.45 320.378 377.789 320.479C379.128 320.58 381.26 321.521 381.218 323.787C381.193 325.15 380.538 325.899 380.019 326.281C379.675 326.533 379.392 326.904 379.391 327.32C379.388 328.306 379.368 330.018 379.264 330.259C379.118 330.6 376.713 330.15 376.56 329.724Z" fill="black"/>
<path d="M399.1 329.815C397.203 330.424 394.538 329.028 394.4 330.29C394.262 331.552 397.006 332.74 399.754 331.833C402.502 330.925 403.348 327.999 402.583 327.331C401.818 326.664 400.996 329.206 399.1 329.815Z" fill="black"/>
</g>
<g id="137_1">
<path fill-rule="evenodd" clip-rule="evenodd" d="M324.411 594.377C324.957 592.901 325.252 577.895 324.228 575.501C323.582 573.991 321.514 572.934 320.079 572.2C319.24 571.771 318.617 571.453 318.622 571.22C318.629 570.918 319.136 570.462 319.684 569.97C320.284 569.432 320.932 568.849 321.027 568.376C321.208 567.47 321.269 561.25 320.846 560.525C320.423 559.801 317.464 557.445 310.278 557.325C303.092 557.204 299.952 560.706 299.473 561.645C298.995 562.584 299.134 567.512 299.362 568.548C299.488 569.122 300.061 569.916 300.544 570.585C300.932 571.122 301.261 571.579 301.254 571.776C301.249 571.952 300.773 572.345 300.132 572.875C299.15 573.687 297.779 574.821 297.114 575.984C296.014 577.908 297.142 594.301 297.581 595.379C298.019 596.456 305.156 599.966 311.788 600.079C318.419 600.193 323.865 595.852 324.411 594.377ZM310.094 560.228C305.484 560.397 303.2 561.793 303.2 562.512C303.2 563.231 305.576 564.774 310.397 564.816C315.218 564.859 317.199 562.977 317.241 562.3C317.283 561.624 314.704 560.059 310.094 560.228ZM302.895 568.48C302.51 567.991 302.521 565.611 302.752 565.462C302.817 565.42 303.135 565.539 303.649 565.731C304.969 566.224 307.575 567.198 310.461 567.157C313.323 567.116 315.924 565.971 317.285 565.372C317.831 565.132 318.178 564.979 318.262 565.021C318.557 565.166 318.511 567.133 318.299 567.777C318.087 568.421 315.066 570.914 310.859 570.98C306.652 571.045 303.28 568.969 302.895 568.48ZM300.959 577.294C301.58 576.339 305.178 573.776 305.75 573.601C305.997 573.525 306.523 573.627 307.247 573.768C308.198 573.954 309.491 574.206 310.939 574.206C312.535 574.206 313.722 573.86 314.58 573.609C315.092 573.46 315.487 573.345 315.784 573.357C316.577 573.39 320.467 576.318 320.895 577.352C321.322 578.385 321.021 590.4 320.735 591.25C320.45 592.1 318.386 595.357 311.809 595.55C305.232 595.744 301.772 592.582 301.262 591.728C300.751 590.874 300.337 578.248 300.959 577.294Z" fill="black"/>
<path d="M309.273 577.366C308.72 577.362 308.268 577.808 308.265 578.362L308.254 580.866C308.251 581.418 307.802 581.864 307.249 581.868C306.495 581.873 305.639 581.884 304.998 581.893C304.452 581.901 304.015 582.345 304.017 582.89C304.019 583.742 304.025 585 304.039 586.047C304.047 586.591 304.493 587.024 305.038 587.021L306.969 587.011C307.516 587.008 307.963 587.444 307.974 587.99L308.039 591.154C308.05 591.703 308.502 592.14 309.051 592.134L312.422 592.094C312.969 592.087 313.41 591.641 313.41 591.094V588.127C313.41 587.577 313.854 587.13 314.405 587.127L316.468 587.116C317.015 587.113 317.458 586.671 317.462 586.124L317.488 583.053C317.493 582.502 317.05 582.051 316.498 582.045L314.488 582.024C313.938 582.018 313.496 581.569 313.499 581.019L313.511 578.397C313.513 577.846 313.07 577.397 312.519 577.392L309.273 577.366Z" fill="black"/>
</g>
<path id="16_3" fill-rule="evenodd" clip-rule="evenodd" d="M468.634 306.258C466.274 309.086 465.043 314.835 465.043 314.835C465.043 314.835 458.394 313.459 451.803 314.835C445.212 316.21 439.619 319.46 439.619 325.085C439.619 329.334 442.111 331.594 443.403 332.766C443.822 333.146 444.114 333.411 444.156 333.594C444.225 333.892 443.573 334.261 442.765 334.717C441.555 335.401 439.997 336.282 439.997 337.416C439.997 339.307 443.264 343.148 457.019 343.148C470.774 343.148 473.181 339.594 472.895 338.276C472.776 337.729 472.252 337.234 471.66 336.674C470.826 335.885 469.856 334.968 469.688 333.594C469.514 332.161 470.198 331.595 471.174 330.788L471.174 330.788L471.174 330.788C471.799 330.27 472.544 329.654 473.26 328.647C475.094 326.068 474.797 323.676 474.797 323.676C474.797 323.676 480.522 319.717 482.57 315.663C484.618 311.608 485.296 305.198 481.265 303.032C477.234 300.865 470.995 303.43 468.634 306.258ZM455.098 322.768C453.71 322.925 450.542 324.13 450.321 324.698C450.1 325.266 450.777 326.174 451.565 326.837C452.354 327.499 454.12 327.987 454.783 327.419C455.12 327.13 454.975 326.812 454.821 326.478C454.674 326.157 454.52 325.821 454.783 325.48C455.059 325.123 456.069 324.616 456.967 324.165C457.816 323.739 458.566 323.362 458.505 323.209C458.379 322.894 456.486 322.61 455.098 322.768ZM467.827 315.718C467.827 315.718 469.01 311.725 471.278 308.471C473.546 305.217 478.131 304.674 479.856 306.055C481.582 307.435 480.793 311.527 479.265 314.535C477.736 317.542 473.94 320.55 473.94 320.55C473.94 320.55 472.806 318.577 471.278 317.542C469.749 316.507 467.827 315.718 467.827 315.718ZM457.221 317.297C449.054 317.966 445.473 320.808 444.789 321.676C444.104 322.544 445.868 323.874 446.979 323.589C447.298 323.508 447.876 323.247 448.63 322.907C450.498 322.064 453.441 320.736 456.153 320.464C459.959 320.082 464.65 321.046 464.826 322.317C464.908 322.911 463.613 323.4 462.226 323.925C460.64 324.524 458.934 325.169 459.028 326.066C459.204 327.749 461.953 327.974 465.38 327.02C468.807 326.066 470.964 324.326 470.496 322.317C470.027 320.309 465.388 316.627 457.221 317.297ZM446.842 335.802C446.54 335.83 446.273 335.854 446.074 335.891C445.057 336.079 444.815 337.78 445.367 338.427C445.919 339.073 448.673 340.178 457.136 340.178C465.599 340.178 467.091 338.427 467.398 337.554C467.706 336.681 467.697 335.901 467.038 335.661C466.786 335.569 466.569 335.577 466.361 335.586C466.024 335.6 465.708 335.612 465.293 335.201C464.621 334.535 464.773 333.273 465.018 332.63C465.123 332.354 465.915 331.799 466.784 331.192C467.938 330.384 469.227 329.482 469.212 329.017C469.186 328.202 468.334 328.156 467.691 328.189C467.541 328.197 467.223 328.325 466.745 328.518C465.164 329.154 461.841 330.491 457.136 330.491C452.541 330.491 449.199 328.192 447.378 326.939C446.771 326.521 446.333 326.22 446.074 326.159C445.037 325.914 444.24 327.965 444.494 329.281C444.61 329.884 445.754 330.635 446.959 331.426C448.385 332.362 449.898 333.355 449.898 334.228C449.898 335.523 448.082 335.689 446.842 335.802Z" fill="black"/>
<g id="16_0">
<path fill-rule="evenodd" clip-rule="evenodd" d="M235.924 343.267C247.483 343.267 256.853 333.989 256.853 322.544C256.853 311.098 247.483 301.82 235.924 301.82C224.365 301.82 214.995 311.098 214.995 322.544C214.995 333.989 224.365 343.267 235.924 343.267ZM235.754 338.973C244.649 338.973 251.859 331.66 251.859 322.639C251.859 313.618 244.649 306.305 235.754 306.305C226.86 306.305 219.649 313.618 219.649 322.639C219.649 331.66 226.86 338.973 235.754 338.973Z" fill="black"/>
<path d="M230.056 326.283C230.056 326.283 227.573 327.714 226.264 329.578C226.264 329.578 228.205 334.478 236.196 334.565C244.186 334.652 245.812 329.622 245.812 329.622C245.812 329.622 244.141 326.803 240.801 325.546C237.46 324.289 233.577 324.592 233.577 324.592C233.577 324.592 231.011 320.479 230.772 320.273C230.534 320.066 229.808 319.807 229.053 320.083C228.299 320.36 227.955 321.19 228.026 321.626C228.098 322.062 230.056 326.283 230.056 326.283Z" fill="black"/>
<path d="M223.198 315.808L221.921 317.457L225.355 319.74L226.499 318.26L223.198 315.808Z" fill="black"/>
<path d="M226.147 312.51L224.87 314.032L227.952 316.4L229.053 315.343L226.147 312.51Z" fill="black"/>
<path d="M230.858 313.863L228.788 310.692L230.593 309.804L232.31 313.271L230.858 313.863Z" fill="black"/>
<path d="M235.216 312.679L234.996 308.747L237.153 308.831L237.021 312.721L235.216 312.679Z" fill="black"/>
<path d="M240.851 314.666L239.486 313.355L242.436 310.226L243.8 311.453L240.851 314.666Z" fill="black"/>
<path d="M245.913 313.736L243.272 316.653L244.329 317.837L247.146 315.174L245.913 313.736Z" fill="black"/>
<path d="M246.266 321.431L245.693 319.994L249.171 318.049L249.919 319.782L246.266 321.431Z" fill="black"/>
</g>
<g id="137_0">
<path d="M215.04 563.126C213.951 564.988 211.878 574.345 212.078 574.898C212.279 575.452 214.107 575.835 214.614 575.367C215.122 574.898 217.385 565.456 217.385 565.456C217.385 565.456 218.183 562.348 219.988 562.419C220.89 562.455 221.627 564.006 222.353 565.535C223.081 567.067 223.798 568.578 224.662 568.522C225.389 568.476 226.495 567.168 227.744 565.69C229.456 563.664 231.439 561.317 233.092 561.46C234.73 561.601 234.265 562.941 233.837 564.172C233.518 565.09 233.22 565.947 233.829 566.202C234.518 566.491 235.272 565.793 236.017 565.102C236.815 564.362 237.605 563.63 238.295 564.13C238.978 564.625 238.729 565.468 238.487 566.288C238.255 567.071 238.03 567.834 238.631 568.251C239.31 568.721 239.933 568.382 240.507 568.069C240.973 567.816 241.407 567.58 241.812 567.809C242.298 568.084 242.251 568.834 242.205 569.563C242.166 570.189 242.128 570.799 242.43 571.078C242.768 571.39 243.183 571.387 243.566 571.385C243.924 571.383 244.253 571.381 244.465 571.635C244.751 571.978 244.068 573.108 243.525 574.005C243.236 574.484 242.986 574.896 242.945 575.088C242.827 575.64 243.682 576.377 244.188 576.147C244.695 575.917 248.562 571.497 247.964 570.346C247.624 569.692 247.135 569.542 246.661 569.397C246.299 569.286 245.946 569.177 245.673 568.851C245.367 568.486 245.476 567.812 245.59 567.102C245.712 566.341 245.842 565.539 245.477 565.027C245.131 564.539 244.585 564.686 243.981 564.848C243.359 565.015 242.675 565.198 242.081 564.723C241.508 564.265 241.608 563.666 241.71 563.048C241.817 562.402 241.928 561.734 241.282 561.182C240.597 560.597 239.654 560.865 238.741 561.125C237.967 561.346 237.215 561.56 236.659 561.242C236.203 560.981 236.23 560.406 236.26 559.757C236.31 558.687 236.369 557.417 234.279 557.028C232.147 556.632 229.653 559.101 227.786 560.95C226.715 562.012 225.849 562.868 225.378 562.861C224.82 562.852 224.258 561.962 223.621 560.951C222.781 559.619 221.81 558.08 220.545 558.082C218.321 558.085 216.13 561.264 215.04 563.126Z" fill="black"/>
<path d="M253.466 564.003L251.26 568.216C251.042 568.634 251.469 569.094 251.902 568.907L256.353 566.98C256.675 566.841 256.757 566.421 256.511 566.171L254.265 563.884C254.028 563.642 253.623 563.702 253.466 564.003Z" fill="black"/>
<path d="M253.064 572.062L257.638 571.184C258.001 571.114 258.312 571.45 258.214 571.807L257.154 575.684C257.057 576.038 256.626 576.171 256.347 575.933L252.833 572.934C252.515 572.662 252.652 572.142 253.064 572.062Z" fill="black"/>
<path d="M255.297 579.34L251.303 578.058C250.89 577.926 250.515 578.347 250.696 578.743L252.782 583.303C252.951 583.672 253.465 583.697 253.669 583.346L255.577 580.068C255.737 579.792 255.601 579.438 255.297 579.34Z" fill="black"/>
<path fill-rule="evenodd" clip-rule="evenodd" d="M224.209 574.101C224.35 574.546 224.472 574.93 224.84 575.117C225.172 575.286 226.029 574.408 227.141 573.27C229.184 571.177 232.086 568.203 234.18 569.221C236.337 570.27 236.19 571.686 236.082 572.723C236.028 573.239 235.984 573.662 236.239 573.898C236.572 574.206 237.068 574.201 237.614 574.196C238.33 574.189 239.134 574.182 239.775 574.873C240.338 575.48 240.31 576.127 240.283 576.762C240.255 577.403 240.228 578.031 240.811 578.592C241.34 579.1 241.802 579.144 242.241 579.185C242.766 579.235 243.26 579.282 243.799 580.116C244.396 581.042 243.971 582.085 243.615 582.96C243.382 583.534 243.178 584.035 243.311 584.383C243.475 584.813 243.816 585.056 244.178 585.314C244.556 585.584 244.958 585.87 245.206 586.404C245.691 587.45 245.568 588.898 245.14 589.687C244.711 590.475 237.604 597.37 233.246 598.907C228.887 600.444 220.159 599.544 216.284 594.605C212.408 589.667 213.419 583.028 214.542 579.547C215.664 576.067 220.217 571.359 222.395 572.108C223.723 572.565 223.989 573.406 224.209 574.101ZM222.145 576.274C220.73 575.577 218.565 578.279 217.582 580.947C216.598 583.614 216.163 590.415 219.64 593.308C223.117 596.201 227.202 596.258 230.563 595.778C233.884 595.303 236.667 593.191 238.252 591.988L238.309 591.945C239.885 590.75 242.193 588.607 241.486 586.76C240.98 585.435 239.267 586.428 238.085 587.113C237.618 587.383 237.234 587.606 237.04 587.619C236.353 587.666 236.107 587.307 236.332 586.826C236.388 586.707 236.707 586.516 237.134 586.259C238.431 585.481 240.728 584.102 239.748 582.305C238.782 580.534 236.363 582.345 234.925 583.422C234.422 583.799 234.039 584.086 233.88 584.098C233.269 584.143 233.048 583.599 233.228 583.174C233.269 583.079 233.574 582.816 234.006 582.446C235.502 581.162 238.514 578.577 237.249 577.144C236.012 575.742 233.386 578.081 231.964 579.348C231.512 579.751 231.181 580.046 231.055 580.077C230.535 580.208 230.387 579.89 230.512 579.425C230.54 579.32 230.793 579.016 231.146 578.593C232.354 577.143 234.728 574.291 233.228 573.232C231.652 572.119 229.987 574.213 228.789 575.719C228.514 576.065 228.264 576.379 228.046 576.617C226.874 577.891 224.761 580.093 224.001 580.413C223.24 580.733 222.68 580.693 222.634 579.969C222.623 579.783 222.678 579.494 222.743 579.157C222.93 578.181 223.197 576.793 222.145 576.274Z" fill="black"/>
</g>
<path id="16_1" fill-rule="evenodd" clip-rule="evenodd" d="M298.104 303.753C303.967 304.017 307.769 308.416 308.914 309.824C310.059 311.232 312.494 316.19 312.49 320.003C312.489 321.864 312.155 322.991 311.867 323.961C311.565 324.977 311.315 325.822 311.551 327.162C312.012 329.78 313.872 331.051 315.968 331.074C318.064 331.098 319.45 327.907 319.312 326.235C319.26 325.604 318.976 324.895 318.648 324.078C318.107 322.728 317.448 321.085 317.526 319.019C317.651 315.704 321.663 313.021 325.496 313.344C329.329 313.667 331.329 317.459 331.802 318.921C332.275 320.383 333.23 330.576 329.344 335.342C325.457 340.108 319.816 342.601 309.546 341.379C301.376 340.407 300.849 330.156 300.584 325.009C300.516 323.685 300.465 322.699 300.307 322.295C300.029 321.589 298.724 320.982 297.107 320.231C294.197 318.878 290.28 317.057 289.541 313.348C288.393 307.581 292.241 303.489 298.104 303.753ZM301.894 309.605C301.894 309.605 297.732 306.398 294.78 308.815C291.828 311.232 294.199 315.14 296.522 316.02C298.845 316.9 303.621 320.152 303.621 320.152C303.621 320.152 305.298 320.507 306.509 320.015C307.719 319.524 308.469 318.133 308.469 318.133C308.469 318.133 308.5 315.986 307.364 314.401C306.228 312.816 304.895 311.837 304.895 311.837C304.895 311.837 304.89 313.3 304.024 314.347C303.158 315.394 300.863 316.31 299.986 315.531C299.339 314.956 300.13 314.094 300.842 313.317C301.097 313.039 301.341 312.773 301.507 312.534C302.138 311.625 301.894 309.605 301.894 309.605ZM304.513 322.138C304.513 322.138 305.679 322.16 306.936 321.864C308.194 321.568 308.841 320.939 308.841 320.939C308.841 320.939 308.077 323.781 307.97 325.562C307.863 327.342 308.291 329.088 308.291 329.088C308.291 329.088 307.934 329.567 306.758 329.91C305.582 330.252 304.762 329.944 304.762 329.944C304.762 329.944 304.227 327.65 304.263 325.938C304.299 324.226 304.513 322.138 304.513 322.138ZM308.291 337.75C305.154 336.197 305.012 332.272 305.012 332.272C305.012 332.272 306.25 332.314 307.4 332.032C308.55 331.751 309.268 331.279 309.268 331.279C309.268 331.279 309.794 332.578 311.324 333.418C312.853 334.258 314.35 334.405 314.35 334.405C314.35 334.405 314.608 335.415 314.693 336.599C314.778 337.784 314.579 338.903 314.579 338.903C314.579 338.903 311.427 339.303 308.291 337.75ZM316.775 334.147C316.775 334.147 318.258 333.522 319.344 332.723C320.429 331.923 321.189 330.95 321.189 330.95C321.189 330.95 322.636 331.055 323.83 332.028C325.024 333.001 325.024 334.113 325.024 334.113C325.024 334.113 324.156 335.885 322.274 336.858C320.393 337.831 317.426 338.457 317.426 338.457C317.426 338.457 317.465 337.157 317.32 336.219C317.175 335.281 316.775 334.147 316.775 334.147ZM322.516 327.217C322.481 328.486 322.168 329.454 322.168 329.454C322.168 329.454 323.558 329.654 324.81 330.255C326.061 330.856 326.93 331.824 326.93 331.824C326.93 331.824 328.286 330.122 328.598 328.052C328.911 325.982 328.815 324.276 328.815 324.276C328.815 324.276 327.312 323.044 325.366 323.178C323.419 323.311 322.307 324.847 322.307 324.847C322.307 324.847 322.55 325.949 322.516 327.217ZM321.72 323.075C321.72 323.075 323.363 321.691 324.94 321.512C326.517 321.333 328.432 321.644 328.432 321.644C328.432 321.644 328.349 316.423 324.112 317.063C319.875 317.703 321.72 323.075 321.72 323.075Z" fill="black"/>
</g>
<defs>
<linearGradient id="paint0_linear_0_1" x1="347.071" y1="0.304962" x2="348.105" y2="77.4073" gradientUnits="userSpaceOnUse">
<stop stop-color="#8DCDF8"/>
<stop offset="0.269099" stop-color="#84C1EA"/>
<stop offset="1" stop-color="#78AFD5"/>
</linearGradient>
<linearGradient id="paint1_linear_0_1" x1="347.071" y1="27.0472" x2="347.071" y2="73.361" gradientUnits="userSpaceOnUse">
<stop offset="0.297496" stop-color="#7DB9E1"/>
<stop offset="1" stop-color="#82C0E9"/>
</linearGradient>
<linearGradient id="paint2_linear_0_1" x1="347.89" y1="32.8002" x2="347.89" y2="857.62" gradientUnits="userSpaceOnUse">
<stop stop-color="#9CC0D8" stop-opacity="0"/>
<stop offset="0.00710607" stop-color="#82C1EB"/>
<stop offset="0.54" stop-color="#78B3DB"/>
<stop offset="1" stop-color="#6DA2C6"/>
</linearGradient>
<linearGradient id="paint3_linear_0_1" x1="0.098755" y1="452.092" x2="695.682" y2="445.218" gradientUnits="userSpaceOnUse">
<stop stop-color="#76AED5"/>
<stop offset="0.224836" stop-color="#76AED4" stop-opacity="0"/>
<stop offset="0.76" stop-color="#76AED4" stop-opacity="0"/>
<stop offset="1" stop-color="#76AED4"/>
</linearGradient>
<linearGradient id="paint4_linear_0_1" x1="240.878" y1="708.121" x2="234.244" y2="802.991" gradientUnits="userSpaceOnUse">
<stop stop-color="#6DA2C6"/>
<stop offset="0.625031" stop-color="#72A8CD"/>
</linearGradient>
<linearGradient id="paint5_linear_0_1" x1="240.878" y1="708.121" x2="234.244" y2="802.991" gradientUnits="userSpaceOnUse">
<stop stop-color="#699EC2"/>
<stop offset="0.625031" stop-color="#73ACD2"/>
</linearGradient>
<linearGradient id="paint6_linear_0_1" x1="240.214" y1="720.595" x2="235.618" y2="786.331" gradientUnits="userSpaceOnUse">
<stop stop-color="#699EC2"/>
<stop offset="0.625031" stop-color="#73ACD2"/>
</linearGradient>
<linearGradient id="paint7_linear_0_1" x1="239.043" y1="725.212" x2="235.136" y2="781.076" gradientUnits="userSpaceOnUse">
<stop stop-color="#65ADF5"/>
<stop offset="0.514439" stop-color="#5B9CDE"/>
<stop offset="1" stop-color="#5694D3"/>
</linearGradient>
<linearGradient id="paint8_linear_0_1" x1="239.183" y1="723.205" x2="234.996" y2="783.083" gradientUnits="userSpaceOnUse">
<stop stop-color="#69B3FD"/>
<stop offset="1" stop-color="#528BC5"/>
</linearGradient>
<linearGradient id="paint9_linear_0_1" x1="347.264" y1="731.789" x2="347.264" y2="826.89" gradientUnits="userSpaceOnUse">
<stop stop-color="#6DA2C6"/>
<stop offset="0.625031" stop-color="#72A8CD"/>
</linearGradient>
<linearGradient id="paint10_linear_0_1" x1="347.264" y1="731.789" x2="347.264" y2="826.89" gradientUnits="userSpaceOnUse">
<stop stop-color="#699EC2"/>
<stop offset="0.625031" stop-color="#73ACD2"/>
</linearGradient>
<linearGradient id="paint11_linear_0_1" x1="347.052" y1="744.279" x2="347.052" y2="810.176" gradientUnits="userSpaceOnUse">
<stop stop-color="#699EC2"/>
<stop offset="0.625031" stop-color="#73ACD2"/>
</linearGradient>
<linearGradient id="paint12_linear_0_1" x1="346.224" y1="748.989" x2="346.224" y2="804.989" gradientUnits="userSpaceOnUse">
<stop stop-color="#65ADF5"/>
<stop offset="0.514439" stop-color="#5B9CDE"/>
<stop offset="1" stop-color="#5694D3"/>
</linearGradient>
<linearGradient id="paint13_linear_0_1" x1="346.224" y1="746.976" x2="346.224" y2="807.001" gradientUnits="userSpaceOnUse">
<stop stop-color="#69B3FD"/>
<stop offset="1" stop-color="#528BC5"/>
</linearGradient>
<linearGradient id="paint14_linear_0_1" x1="453.254" y1="708.44" x2="459.888" y2="803.309" gradientUnits="userSpaceOnUse">
<stop stop-color="#6DA2C6"/>
<stop offset="0.625031" stop-color="#72A8CD"/>
</linearGradient>
<linearGradient id="paint15_linear_0_1" x1="453.254" y1="708.44" x2="459.888" y2="803.309" gradientUnits="userSpaceOnUse">
<stop stop-color="#699EC2"/>
<stop offset="0.625031" stop-color="#73ACD2"/>
</linearGradient>
<linearGradient id="paint16_linear_0_1" x1="453.918" y1="720.913" x2="458.515" y2="786.65" gradientUnits="userSpaceOnUse">
<stop stop-color="#699EC2"/>
<stop offset="0.625031" stop-color="#73ACD2"/>
</linearGradient>
<linearGradient id="paint17_linear_0_1" x1="453.548" y1="725.668" x2="457.454" y2="781.531" gradientUnits="userSpaceOnUse">
<stop stop-color="#65ADF5"/>
<stop offset="0.514439" stop-color="#5B9CDE"/>
<stop offset="1" stop-color="#5694D3"/>
</linearGradient>
<linearGradient id="paint18_linear_0_1" x1="453.407" y1="723.66" x2="457.594" y2="783.539" gradientUnits="userSpaceOnUse">
<stop stop-color="#69B3FD"/>
<stop offset="1" stop-color="#528BC5"/>
</linearGradient>
<linearGradient id="paint19_linear_0_1" x1="176.38" y1="289.594" x2="516.774" y2="617.276" gradientUnits="userSpaceOnUse">
<stop offset="0.102247" stop-color="#ACC5C8"/>
<stop offset="0.197784" stop-color="#B3CBCD"/>
<stop offset="0.31873" stop-color="#ACC5C8"/>
<stop offset="0.470019" stop-color="#B3CBCD"/>
<stop offset="0.634069" stop-color="#ACC5C8"/>
</linearGradient>
<linearGradient id="paint20_linear_0_1" x1="347.955" y1="286.949" x2="347.955" y2="619.84" gradientUnits="userSpaceOnUse">
<stop stop-opacity="0.1"/>
<stop offset="1" stop-opacity="0.05"/>
</linearGradient>
<linearGradient id="paint21_linear_0_1" x1="349.961" y1="201.354" x2="349.961" y2="698.82" gradientUnits="userSpaceOnUse">
<stop stop-color="#75ACD1"/>
<stop offset="1" stop-color="#70A5CA"/>
</linearGradient>
<linearGradient id="paint22_linear_0_1" x1="343.787" y1="198.473" x2="366.345" y2="697.251" gradientUnits="userSpaceOnUse">
<stop offset="0.391246" stop-color="#6CA1C5"/>
<stop offset="1" stop-color="#7FB7DD"/>
</linearGradient>
<linearGradient id="paint23_linear_0_1" x1="347.946" y1="283.001" x2="347.946" y2="623.979" gradientUnits="userSpaceOnUse">
<stop stop-color="#6C9FC1"/>
<stop offset="0.0981391" stop-color="#79B0D6"/>
<stop offset="0.913361" stop-color="#79B0D6"/>
<stop offset="1" stop-color="#7AB5DC"/>
</linearGradient>
<linearGradient id="paint24_linear_0_1" x1="352.769" y1="74.0231" x2="352.769" y2="783.473" gradientUnits="userSpaceOnUse">
<stop stop-color="#76B6ED"/>
<stop offset="1" stop-color="#68A1D1"/>
</linearGradient>
<linearGradient id="paint25_linear_0_1" x1="352.769" y1="74.0231" x2="352.769" y2="783.473" gradientUnits="userSpaceOnUse">
<stop stop-color="#76B6ED"/>
<stop offset="1" stop-color="#68A1D1"/>
</linearGradient>
<linearGradient id="paint26_linear_0_1" x1="346.352" y1="537.596" x2="349.019" y2="783.473" gradientUnits="userSpaceOnUse">
<stop stop-color="#76B1E3"/>
<stop offset="1" stop-color="#649CCD"/>
</linearGradient>
<linearGradient id="paint27_linear_0_1" x1="346.352" y1="537.596" x2="349.019" y2="783.473" gradientUnits="userSpaceOnUse">
<stop stop-color="#76B1E3"/>
<stop offset="1" stop-color="#649CCD"/>
</linearGradient>
<linearGradient id="paint28_linear_0_1" x1="352.769" y1="74.0231" x2="352.769" y2="783.473" gradientUnits="userSpaceOnUse">
<stop stop-color="#76B6ED"/>
<stop offset="1" stop-color="#68A1D1"/>
</linearGradient>
<linearGradient id="paint29_linear_0_1" x1="352.769" y1="74.0231" x2="352.769" y2="783.473" gradientUnits="userSpaceOnUse">
<stop stop-color="#76B6ED"/>
<stop offset="1" stop-color="#68A1D1"/>
</linearGradient>
<linearGradient id="paint30_linear_0_1" x1="356.839" y1="311.363" x2="357.594" y2="476.397" gradientUnits="userSpaceOnUse">
<stop stop-color="#76B6ED"/>
<stop offset="1" stop-color="#6CA6D7"/>
</linearGradient>
<linearGradient id="paint31_linear_0_1" x1="356.839" y1="311.363" x2="357.594" y2="476.397" gradientUnits="userSpaceOnUse">
<stop stop-color="#76B6ED"/>
<stop offset="1" stop-color="#6CA6D7"/>
</linearGradient>
<linearGradient id="paint32_linear_0_1" x1="352.769" y1="74.0231" x2="352.769" y2="783.473" gradientUnits="userSpaceOnUse">
<stop stop-color="#76B6ED"/>
<stop offset="1" stop-color="#68A1D1"/>
</linearGradient>
<linearGradient id="paint33_linear_0_1" x1="198.35" y1="125.263" x2="198.35" y2="230.297" gradientUnits="userSpaceOnUse">
<stop stop-color="#7EC0F9"/>
<stop offset="1" stop-color="#70ACE0"/>
</linearGradient>
<linearGradient id="paint34_linear_0_1" x1="352.769" y1="74.0231" x2="352.769" y2="783.473" gradientUnits="userSpaceOnUse">
<stop stop-color="#76B6ED"/>
<stop offset="1" stop-color="#68A1D1"/>
</linearGradient>
<linearGradient id="paint35_linear_0_1" x1="446.929" y1="74.0231" x2="446.929" y2="240.487" gradientUnits="userSpaceOnUse">
<stop stop-color="#7EC0F9"/>
<stop offset="1" stop-color="#70ACE0"/>
</linearGradient>
</defs>
</svg>
